%TF.GenerationSoftware,KiCad,Pcbnew,10.0.1*%
%TF.CreationDate,2026-09-04T22:04:05-05:00*%
%TF.ProjectId,CHIPDOWNARM,43484950-444f-4574-9e41-524d2e6b6963,rev?*%
%TF.SameCoordinates,Original*%
%TF.FileFunction,Soldermask,Top*%
%TF.FilePolarity,Negative*%
%FSLAX46Y46*%
G04 Gerber Fmt 4.6, Leading zero omitted, Abs format (unit mm)*
G04 Created by KiCad (PCBNEW 10.0.1) date 2026-09-04 22:04:05*
%MOMM*%
%LPD*%
G01*
G04 APERTURE LIST*
G04 Aperture macros list*
%AMRoundRect*
0 Rectangle with rounded corners*
0 $1 Rounding radius*
0 $2 $3 $4 $5 $6 $7 $8 $9 X,Y pos of 4 corners*
0 Add a 4 corners polygon primitive as box body*
4,1,4,$2,$3,$4,$5,$6,$7,$8,$9,$2,$3,0*
0 Add four circle primitives for the rounded corners*
1,1,$1+$1,$2,$3*
1,1,$1+$1,$4,$5*
1,1,$1+$1,$6,$7*
1,1,$1+$1,$8,$9*
0 Add four rect primitives between the rounded corners*
20,1,$1+$1,$2,$3,$4,$5,0*
20,1,$1+$1,$4,$5,$6,$7,0*
20,1,$1+$1,$6,$7,$8,$9,0*
20,1,$1+$1,$8,$9,$2,$3,0*%
G04 Aperture macros list end*
%ADD10RoundRect,0.218750X-0.218750X-0.256250X0.218750X-0.256250X0.218750X0.256250X-0.218750X0.256250X0*%
%ADD11RoundRect,0.140000X0.170000X-0.140000X0.170000X0.140000X-0.170000X0.140000X-0.170000X-0.140000X0*%
%ADD12RoundRect,0.140000X-0.140000X-0.170000X0.140000X-0.170000X0.140000X0.170000X-0.140000X0.170000X0*%
%ADD13C,0.990600*%
%ADD14C,0.787400*%
%ADD15C,6.000000*%
%ADD16RoundRect,0.062500X-0.337500X-0.062500X0.337500X-0.062500X0.337500X0.062500X-0.337500X0.062500X0*%
%ADD17RoundRect,0.225000X-0.225000X-0.250000X0.225000X-0.250000X0.225000X0.250000X-0.225000X0.250000X0*%
%ADD18RoundRect,0.147500X-0.147500X-0.172500X0.147500X-0.172500X0.147500X0.172500X-0.147500X0.172500X0*%
%ADD19RoundRect,0.135000X-0.135000X-0.185000X0.135000X-0.185000X0.135000X0.185000X-0.135000X0.185000X0*%
%ADD20RoundRect,0.135000X0.185000X-0.135000X0.185000X0.135000X-0.185000X0.135000X-0.185000X-0.135000X0*%
%ADD21R,1.000000X1.800000*%
%ADD22RoundRect,0.147500X0.172500X-0.147500X0.172500X0.147500X-0.172500X0.147500X-0.172500X-0.147500X0*%
%ADD23RoundRect,0.243750X-0.243750X-0.456250X0.243750X-0.456250X0.243750X0.456250X-0.243750X0.456250X0*%
%ADD24RoundRect,0.218750X0.381250X-0.218750X0.381250X0.218750X-0.381250X0.218750X-0.381250X-0.218750X0*%
%ADD25RoundRect,0.250000X-0.275000X-0.250000X0.275000X-0.250000X0.275000X0.250000X-0.275000X0.250000X0*%
%ADD26RoundRect,0.250000X-0.850000X-0.275000X0.850000X-0.275000X0.850000X0.275000X-0.850000X0.275000X0*%
%ADD27RoundRect,0.200000X-0.250000X-0.200000X0.250000X-0.200000X0.250000X0.200000X-0.250000X0.200000X0*%
%ADD28RoundRect,0.225000X0.250000X-0.225000X0.250000X0.225000X-0.250000X0.225000X-0.250000X-0.225000X0*%
%ADD29RoundRect,0.218750X-0.218750X-0.381250X0.218750X-0.381250X0.218750X0.381250X-0.218750X0.381250X0*%
%ADD30RoundRect,0.087500X-0.187500X-0.087500X0.187500X-0.087500X0.187500X0.087500X-0.187500X0.087500X0*%
%ADD31RoundRect,0.175000X-0.175000X-0.625000X0.175000X-0.625000X0.175000X0.625000X-0.175000X0.625000X0*%
%ADD32R,1.700000X1.700000*%
%ADD33C,1.700000*%
%ADD34RoundRect,0.062500X-0.375000X-0.062500X0.375000X-0.062500X0.375000X0.062500X-0.375000X0.062500X0*%
%ADD35RoundRect,0.062500X-0.062500X-0.375000X0.062500X-0.375000X0.062500X0.375000X-0.062500X0.375000X0*%
%ADD36R,5.600000X5.600000*%
G04 APERTURE END LIST*
%TO.C,J2*%
G36*
X35510000Y-2860000D02*
G01*
X37600000Y-2860000D01*
X37600000Y-4740000D01*
X35510000Y-4740000D01*
X35510000Y-2860000D01*
G37*
%TD*%
D10*
%TO.C,D1*%
X9712500Y-6800000D03*
X11287500Y-6800000D03*
%TD*%
D11*
%TO.C,C24*%
X34500000Y-9480000D03*
X34500000Y-8520000D03*
%TD*%
D12*
%TO.C,C19*%
X5020000Y-15500000D03*
X5980000Y-15500000D03*
%TD*%
D13*
%TO.C,J3*%
X33960000Y-14000000D03*
X39040000Y-12984000D03*
X39040000Y-15016000D03*
D14*
X35230000Y-14635000D03*
X35230000Y-13365000D03*
X36500000Y-14635000D03*
X36500000Y-13365000D03*
X37770000Y-14635000D03*
X37770000Y-13365000D03*
%TD*%
D15*
%TO.C,MH4*%
X41500000Y-26500000D03*
%TD*%
D16*
%TO.C,U2*%
X16275000Y-4750000D03*
X16275000Y-5250000D03*
X16275000Y-5750000D03*
X16275000Y-6250000D03*
X17725000Y-6250000D03*
X17725000Y-5750000D03*
X17725000Y-5250000D03*
X17725000Y-4750000D03*
%TD*%
D11*
%TO.C,C8*%
X24800000Y-24480000D03*
X24800000Y-23520000D03*
%TD*%
D17*
%TO.C,C9*%
X11725000Y-17500000D03*
X13275000Y-17500000D03*
%TD*%
D18*
%TO.C,L_M2*%
X32315000Y-3800000D03*
X33285000Y-3800000D03*
%TD*%
D19*
%TO.C,R_STOP*%
X14990000Y-8500000D03*
X16010000Y-8500000D03*
%TD*%
D12*
%TO.C,C26*%
X35020000Y-24500000D03*
X35980000Y-24500000D03*
%TD*%
D20*
%TO.C,R_BOOT0*%
X26500000Y-24510000D03*
X26500000Y-23490000D03*
%TD*%
D21*
%TO.C,Y2*%
X9750000Y-14500000D03*
X7250000Y-14500000D03*
%TD*%
D19*
%TO.C,R_VDDPA*%
X14490000Y-17500000D03*
X15510000Y-17500000D03*
%TD*%
D11*
%TO.C,C13*%
X20000000Y-24480000D03*
X20000000Y-23520000D03*
%TD*%
D22*
%TO.C,D3*%
X36000000Y-7985000D03*
X36000000Y-7015000D03*
%TD*%
D19*
%TO.C,R_PULL_SDA*%
X29490000Y-26500000D03*
X30510000Y-26500000D03*
%TD*%
D23*
%TO.C,F1*%
X9562500Y-3800000D03*
X11437500Y-3800000D03*
%TD*%
D17*
%TO.C,C3*%
X22725000Y-4000000D03*
X24275000Y-4000000D03*
%TD*%
D15*
%TO.C,MH3*%
X3500000Y-26500000D03*
%TD*%
D24*
%TO.C,L1*%
X20500000Y-6562500D03*
X20500000Y-4437500D03*
%TD*%
D17*
%TO.C,C2*%
X13225000Y-6800000D03*
X14775000Y-6800000D03*
%TD*%
D22*
%TO.C,FB1*%
X21000000Y-10985000D03*
X21000000Y-10015000D03*
%TD*%
%TO.C,L_CHOKE*%
X27000000Y-4285000D03*
X27000000Y-3315000D03*
%TD*%
D17*
%TO.C,C4*%
X22725000Y-7000000D03*
X24275000Y-7000000D03*
%TD*%
D11*
%TO.C,C20*%
X22500000Y-10980000D03*
X22500000Y-10020000D03*
%TD*%
D12*
%TO.C,C25*%
X38020000Y-19500000D03*
X38980000Y-19500000D03*
%TD*%
%TO.C,C18*%
X5020000Y-13500000D03*
X5980000Y-13500000D03*
%TD*%
D25*
%TO.C,J2*%
X34975000Y-3800000D03*
D26*
X36500000Y-2325000D03*
X36500000Y-5275000D03*
%TD*%
D27*
%TO.C,Y1*%
X34750000Y-20100000D03*
X36250000Y-20100000D03*
X36250000Y-18900000D03*
X34750000Y-18900000D03*
%TD*%
D12*
%TO.C,C11*%
X12020000Y-19500000D03*
X12980000Y-19500000D03*
%TD*%
D11*
%TO.C,C_M2*%
X32800000Y-6680000D03*
X32800000Y-5720000D03*
%TD*%
%TO.C,C17*%
X19500000Y-10980000D03*
X19500000Y-10020000D03*
%TD*%
D12*
%TO.C,C5*%
X14520000Y-13500000D03*
X15480000Y-13500000D03*
%TD*%
D19*
%TO.C,R_SET*%
X16990000Y-8500000D03*
X18010000Y-8500000D03*
%TD*%
D10*
%TO.C,D2*%
X16712500Y-26500000D03*
X18287500Y-26500000D03*
%TD*%
D11*
%TO.C,C16*%
X31000000Y-10980000D03*
X31000000Y-10020000D03*
%TD*%
D20*
%TO.C,R_VDDRF*%
X18500000Y-24510000D03*
X18500000Y-23490000D03*
%TD*%
D11*
%TO.C,C14*%
X21500000Y-24480000D03*
X21500000Y-23520000D03*
%TD*%
D19*
%TO.C,R_PULL_SCL*%
X29490000Y-24500000D03*
X30510000Y-24500000D03*
%TD*%
D11*
%TO.C,C_M1*%
X30800000Y-6680000D03*
X30800000Y-5720000D03*
%TD*%
%TO.C,C22*%
X18000000Y-10980000D03*
X18000000Y-10020000D03*
%TD*%
D19*
%TO.C,R_LED*%
X19690000Y-26500000D03*
X20710000Y-26500000D03*
%TD*%
D17*
%TO.C,C1*%
X13225000Y-3800000D03*
X14775000Y-3800000D03*
%TD*%
D15*
%TO.C,MH1*%
X3500000Y-3500000D03*
%TD*%
%TO.C,MH2*%
X41500000Y-3500000D03*
%TD*%
D28*
%TO.C,C15*%
X29500000Y-11275000D03*
X29500000Y-9725000D03*
%TD*%
D29*
%TO.C,L_SMPS*%
X25437500Y-10500000D03*
X27562500Y-10500000D03*
%TD*%
D30*
%TO.C,U3*%
X32075000Y-24000000D03*
X32075000Y-25000000D03*
X33925000Y-25000000D03*
X33925000Y-24000000D03*
D31*
X33000000Y-24500000D03*
%TD*%
D12*
%TO.C,C12*%
X31520000Y-20500000D03*
X32480000Y-20500000D03*
%TD*%
D11*
%TO.C,C21*%
X24000000Y-10980000D03*
X24000000Y-10020000D03*
%TD*%
D19*
%TO.C,R_TCXO*%
X31490000Y-18500000D03*
X32510000Y-18500000D03*
%TD*%
D12*
%TO.C,C10*%
X14520000Y-19500000D03*
X15480000Y-19500000D03*
%TD*%
D28*
%TO.C,C23*%
X33000000Y-9775000D03*
X33000000Y-8225000D03*
%TD*%
D11*
%TO.C,C7*%
X23200000Y-24480000D03*
X23200000Y-23520000D03*
%TD*%
D12*
%TO.C,C6*%
X14520000Y-15500000D03*
X15480000Y-15500000D03*
%TD*%
%TO.C,C_DC*%
X28320000Y-3800000D03*
X29280000Y-3800000D03*
%TD*%
D32*
%TO.C,J1*%
X6000000Y-9500000D03*
D33*
X8540000Y-9500000D03*
%TD*%
D34*
%TO.C,U1*%
X19062500Y-14250000D03*
X19062500Y-14750000D03*
X19062500Y-15250000D03*
X19062500Y-15750000D03*
X19062500Y-16250000D03*
X19062500Y-16750000D03*
X19062500Y-17250000D03*
X19062500Y-17750000D03*
X19062500Y-18250000D03*
X19062500Y-18750000D03*
X19062500Y-19250000D03*
X19062500Y-19750000D03*
D35*
X19750000Y-20437500D03*
X20250000Y-20437500D03*
X20750000Y-20437500D03*
X21250000Y-20437500D03*
X21750000Y-20437500D03*
X22250000Y-20437500D03*
X22750000Y-20437500D03*
X23250000Y-20437500D03*
X23750000Y-20437500D03*
X24250000Y-20437500D03*
X24750000Y-20437500D03*
X25250000Y-20437500D03*
D34*
X25937500Y-19750000D03*
X25937500Y-19250000D03*
X25937500Y-18750000D03*
X25937500Y-18250000D03*
X25937500Y-17750000D03*
X25937500Y-17250000D03*
X25937500Y-16750000D03*
X25937500Y-16250000D03*
X25937500Y-15750000D03*
X25937500Y-15250000D03*
X25937500Y-14750000D03*
X25937500Y-14250000D03*
D35*
X25250000Y-13562500D03*
X24750000Y-13562500D03*
X24250000Y-13562500D03*
X23750000Y-13562500D03*
X23250000Y-13562500D03*
X22750000Y-13562500D03*
X22250000Y-13562500D03*
X21750000Y-13562500D03*
X21250000Y-13562500D03*
X20750000Y-13562500D03*
X20250000Y-13562500D03*
X19750000Y-13562500D03*
D36*
X22500000Y-17000000D03*
%TD*%
D18*
%TO.C,L_M1*%
X30315000Y-3800000D03*
X31285000Y-3800000D03*
%TD*%
M02*
