%TF.GenerationSoftware,KiCad,Pcbnew,10.0.1*%
%TF.CreationDate,2026-09-04T22:04:05-05:00*%
%TF.ProjectId,CHIPDOWNARM,43484950-444f-4574-9e41-524d2e6b6963,rev?*%
%TF.SameCoordinates,Original*%
%TF.FileFunction,Copper,L2,Inr*%
%TF.FilePolarity,Positive*%
%FSLAX46Y46*%
G04 Gerber Fmt 4.6, Leading zero omitted, Abs format (unit mm)*
G04 Created by KiCad (PCBNEW 10.0.1) date 2026-09-04 22:04:05*
%MOMM*%
%LPD*%
G01*
G04 APERTURE LIST*
%TA.AperFunction,ComponentPad*%
%ADD10C,6.000000*%
%TD*%
%TA.AperFunction,ComponentPad*%
%ADD11R,1.700000X1.700000*%
%TD*%
%TA.AperFunction,ComponentPad*%
%ADD12C,1.700000*%
%TD*%
%TA.AperFunction,ViaPad*%
%ADD13C,0.500000*%
%TD*%
%TA.AperFunction,ViaPad*%
%ADD14C,0.450000*%
%TD*%
%TA.AperFunction,ViaPad*%
%ADD15C,0.600000*%
%TD*%
G04 APERTURE END LIST*
D10*
%TO.N,N/C*%
%TO.C,MH4*%
X41500000Y-26500000D03*
%TD*%
%TO.N,N/C*%
%TO.C,MH3*%
X3500000Y-26500000D03*
%TD*%
%TO.N,N/C*%
%TO.C,MH1*%
X3500000Y-3500000D03*
%TD*%
%TO.N,N/C*%
%TO.C,MH2*%
X41500000Y-3500000D03*
%TD*%
D11*
%TO.N,VBAT_RAW*%
%TO.C,J1*%
X6000000Y-9500000D03*
D12*
%TO.N,GND*%
X8540000Y-9500000D03*
%TD*%
D13*
%TO.N,GND*%
X4950000Y-20950000D03*
D14*
X37870000Y-14630000D03*
D13*
X950000Y-20950000D03*
D15*
X23800000Y-18300000D03*
D13*
X12950000Y-20950000D03*
X16950000Y-16950000D03*
D14*
X29500000Y-9720000D03*
D13*
X12950000Y-12950000D03*
X24950000Y-4950000D03*
D15*
X21200000Y-18300000D03*
D13*
X16950000Y-24950000D03*
D14*
X15180000Y-13500000D03*
D13*
X8950000Y-28950000D03*
X32950000Y-28950000D03*
D14*
X20000000Y-23520000D03*
D15*
X22500000Y-15700000D03*
D14*
X18010000Y-8500000D03*
X24000000Y-10020000D03*
D13*
X40950000Y-16950000D03*
D14*
X36650000Y-16750000D03*
X22500000Y-10020000D03*
D13*
X40950000Y-8950000D03*
X8950000Y-12950000D03*
D15*
X23800000Y-17000000D03*
D13*
X36950000Y-950000D03*
X8950000Y-24950000D03*
X12950000Y-8950000D03*
X4950000Y-16950000D03*
X8950000Y-20950000D03*
D14*
X15180000Y-15500000D03*
X21500000Y-23520000D03*
D15*
X22500000Y-17000000D03*
D13*
X8950000Y-16950000D03*
D14*
X27000000Y-9450000D03*
X23200000Y-23520000D03*
X16270000Y-4750000D03*
D13*
X40950000Y-12950000D03*
X24950000Y-950000D03*
X28950000Y-28950000D03*
X950000Y-16950000D03*
D14*
X26500000Y-23710000D03*
D13*
X24950000Y-28950000D03*
D14*
X31000000Y-10020000D03*
D13*
X40950000Y-20950000D03*
D14*
X19100000Y-5800000D03*
D13*
X12950000Y-28950000D03*
X36950000Y-4950000D03*
X8950000Y-8950000D03*
X950000Y-12950000D03*
X32950000Y-950000D03*
D14*
X36200000Y-20110000D03*
D13*
X16950000Y-12950000D03*
D15*
X21200000Y-17000000D03*
D13*
X950000Y-8950000D03*
X12950000Y-950000D03*
D14*
X24960000Y-23720000D03*
D15*
X21200000Y-15700000D03*
X23800000Y-15700000D03*
D14*
X14780000Y-3800000D03*
D13*
X36950000Y-28950000D03*
X16950000Y-950000D03*
X36950000Y-24950000D03*
X28950000Y-950000D03*
X16950000Y-28950000D03*
X12950000Y-24950000D03*
X20950000Y-28950000D03*
D15*
X22500000Y-18300000D03*
D13*
X8950000Y-950000D03*
D14*
X12600000Y-17500000D03*
D13*
X20950000Y-950000D03*
X32950000Y-16950000D03*
%TO.N,+3V0*%
X21000000Y-10985000D03*
D14*
X21750000Y-13562500D03*
D15*
%TO.N,OSC32_OUT*%
X24738200Y-11499300D03*
X16301100Y-15411300D03*
%TO.N,NRST*%
X23099700Y-22621400D03*
X37409900Y-15750600D03*
X12612500Y-14999700D03*
%TO.N,SWCLK*%
X33447800Y-12018100D03*
X22784400Y-12594700D03*
%TO.N,SWO*%
X36671900Y-12072500D03*
X18599200Y-13339800D03*
%TO.N,VR_PA*%
X18773200Y-20918100D03*
X22612400Y-5910500D03*
%TO.N,VDDPA_RAIL*%
X27747900Y-20490700D03*
X26324500Y-22491500D03*
%TO.N,BOOT0*%
X25160400Y-22562700D03*
X27123600Y-16754700D03*
%TO.N,OSC32_IN*%
X25711300Y-12521100D03*
X16777800Y-14754000D03*
%TO.N,RF_PA_OUT*%
X29398700Y-21453400D03*
X30909400Y-21259900D03*
X24018400Y-21420000D03*
X29034700Y-4800500D03*
%TO.N,LED_STATUS*%
X20387700Y-22409200D03*
X18316900Y-22617200D03*
X18262500Y-28472200D03*
X16707500Y-17965700D03*
%TO.N,V1V55_SMPS*%
X27336300Y-18333400D03*
X21982600Y-12615600D03*
X27716500Y-13638300D03*
%TO.N,I2C1_SCL*%
X28071800Y-15661200D03*
X30643700Y-25498800D03*
%TO.N,VLX_SMPS*%
X21100600Y-9212900D03*
X19925700Y-12058600D03*
%TO.N,HSE_IN*%
X29614800Y-20490700D03*
X26837800Y-21755500D03*
%TO.N,VDD_TCXO_CTRL*%
X28318700Y-17745200D03*
X29769900Y-19544600D03*
%TD*%
%TA.AperFunction,Conductor*%
%TO.N,GND*%
G36*
X40080236Y-522174D02*
G01*
X40101910Y-574500D01*
X40080236Y-626826D01*
X40060019Y-641170D01*
X40017461Y-661665D01*
X39949419Y-694433D01*
X39645043Y-885685D01*
X39363993Y-1109815D01*
X39109815Y-1363993D01*
X38885685Y-1645043D01*
X38694433Y-1949419D01*
X38538462Y-2273295D01*
X38419740Y-2612584D01*
X38419735Y-2612600D01*
X38339748Y-2963047D01*
X38339748Y-2963048D01*
X38299500Y-3320267D01*
X38299500Y-3679732D01*
X38339748Y-4036951D01*
X38339748Y-4036952D01*
X38419735Y-4387399D01*
X38419740Y-4387415D01*
X38538462Y-4726704D01*
X38538463Y-4726706D01*
X38538464Y-4726708D01*
X38694434Y-5050582D01*
X38885685Y-5354956D01*
X39109812Y-5636003D01*
X39363997Y-5890188D01*
X39645044Y-6114315D01*
X39949418Y-6305566D01*
X40273292Y-6461536D01*
X40612592Y-6580262D01*
X40612597Y-6580263D01*
X40612600Y-6580264D01*
X40963047Y-6660251D01*
X40963048Y-6660251D01*
X40963052Y-6660252D01*
X41320264Y-6700500D01*
X41320268Y-6700500D01*
X41679732Y-6700500D01*
X41679736Y-6700500D01*
X42036948Y-6660252D01*
X42387408Y-6580262D01*
X42726708Y-6461536D01*
X43050582Y-6305566D01*
X43354956Y-6114315D01*
X43636003Y-5890188D01*
X43890188Y-5636003D01*
X44114315Y-5354956D01*
X44305566Y-5050582D01*
X44358828Y-4939981D01*
X44401060Y-4902243D01*
X44457608Y-4905418D01*
X44495347Y-4947650D01*
X44499500Y-4972090D01*
X44499500Y-25027909D01*
X44477826Y-25080235D01*
X44425500Y-25101909D01*
X44373174Y-25080235D01*
X44358828Y-25060017D01*
X44305566Y-24949419D01*
X44305566Y-24949418D01*
X44114315Y-24645044D01*
X43890188Y-24363997D01*
X43636003Y-24109812D01*
X43354956Y-23885685D01*
X43050582Y-23694434D01*
X42726708Y-23538464D01*
X42726704Y-23538462D01*
X42387415Y-23419740D01*
X42387399Y-23419735D01*
X42036952Y-23339748D01*
X41858342Y-23319624D01*
X41679736Y-23299500D01*
X41320264Y-23299500D01*
X41141658Y-23319624D01*
X40963048Y-23339748D01*
X40963047Y-23339748D01*
X40612600Y-23419735D01*
X40612584Y-23419740D01*
X40273295Y-23538462D01*
X39949419Y-23694433D01*
X39645043Y-23885685D01*
X39363993Y-24109815D01*
X39109815Y-24363993D01*
X38885685Y-24645043D01*
X38694433Y-24949419D01*
X38538462Y-25273295D01*
X38419740Y-25612584D01*
X38419735Y-25612600D01*
X38339748Y-25963047D01*
X38339748Y-25963048D01*
X38299500Y-26320267D01*
X38299500Y-26679732D01*
X38339748Y-27036951D01*
X38339748Y-27036952D01*
X38419735Y-27387399D01*
X38419740Y-27387415D01*
X38538462Y-27726704D01*
X38538464Y-27726708D01*
X38694434Y-28050582D01*
X38885685Y-28354956D01*
X39109812Y-28636003D01*
X39363997Y-28890188D01*
X39645044Y-29114315D01*
X39949418Y-29305566D01*
X40060018Y-29358828D01*
X40097757Y-29401060D01*
X40094582Y-29457608D01*
X40052350Y-29495347D01*
X40027910Y-29499500D01*
X4972090Y-29499500D01*
X4919764Y-29477826D01*
X4898090Y-29425500D01*
X4919764Y-29373174D01*
X4939980Y-29358829D01*
X5050582Y-29305566D01*
X5354956Y-29114315D01*
X5636003Y-28890188D01*
X5890188Y-28636003D01*
X6073366Y-28406305D01*
X17762000Y-28406305D01*
X17762000Y-28538094D01*
X17796106Y-28665381D01*
X17796107Y-28665384D01*
X17796108Y-28665386D01*
X17862000Y-28779514D01*
X17955186Y-28872700D01*
X18069314Y-28938592D01*
X18196605Y-28972699D01*
X18196606Y-28972700D01*
X18196608Y-28972700D01*
X18328394Y-28972700D01*
X18328394Y-28972699D01*
X18455686Y-28938592D01*
X18569814Y-28872700D01*
X18663000Y-28779514D01*
X18728892Y-28665386D01*
X18762999Y-28538094D01*
X18763000Y-28538094D01*
X18763000Y-28406306D01*
X18762999Y-28406305D01*
X18728893Y-28279018D01*
X18728892Y-28279014D01*
X18663000Y-28164886D01*
X18569814Y-28071700D01*
X18533233Y-28050580D01*
X18455690Y-28005810D01*
X18455681Y-28005806D01*
X18328394Y-27971700D01*
X18328392Y-27971700D01*
X18196608Y-27971700D01*
X18196606Y-27971700D01*
X18069318Y-28005806D01*
X18069309Y-28005810D01*
X17955185Y-28071700D01*
X17862000Y-28164885D01*
X17796110Y-28279009D01*
X17796106Y-28279018D01*
X17762000Y-28406305D01*
X6073366Y-28406305D01*
X6114315Y-28354956D01*
X6305566Y-28050582D01*
X6461536Y-27726708D01*
X6580262Y-27387408D01*
X6660252Y-27036948D01*
X6700500Y-26679736D01*
X6700500Y-26320264D01*
X6660252Y-25963052D01*
X6580262Y-25612592D01*
X6517388Y-25432908D01*
X6517387Y-25432905D01*
X30143200Y-25432905D01*
X30143200Y-25564694D01*
X30177306Y-25691981D01*
X30177307Y-25691984D01*
X30177308Y-25691986D01*
X30243200Y-25806114D01*
X30336386Y-25899300D01*
X30450514Y-25965192D01*
X30577805Y-25999299D01*
X30577806Y-25999300D01*
X30577808Y-25999300D01*
X30709594Y-25999300D01*
X30709594Y-25999299D01*
X30836886Y-25965192D01*
X30951014Y-25899300D01*
X31044200Y-25806114D01*
X31110092Y-25691986D01*
X31144199Y-25564694D01*
X31144200Y-25564694D01*
X31144200Y-25432906D01*
X31144199Y-25432905D01*
X31110093Y-25305618D01*
X31110092Y-25305614D01*
X31044200Y-25191486D01*
X30951014Y-25098300D01*
X30836890Y-25032410D01*
X30836881Y-25032406D01*
X30709594Y-24998300D01*
X30709592Y-24998300D01*
X30577808Y-24998300D01*
X30577806Y-24998300D01*
X30450518Y-25032406D01*
X30450509Y-25032410D01*
X30336385Y-25098300D01*
X30243200Y-25191485D01*
X30177310Y-25305609D01*
X30177306Y-25305618D01*
X30143200Y-25432905D01*
X6517387Y-25432905D01*
X6461539Y-25273298D01*
X6377264Y-25098300D01*
X6305566Y-24949418D01*
X6114315Y-24645044D01*
X5890188Y-24363997D01*
X5636003Y-24109812D01*
X5354956Y-23885685D01*
X5050582Y-23694434D01*
X4726708Y-23538464D01*
X4726704Y-23538462D01*
X4387415Y-23419740D01*
X4387399Y-23419735D01*
X4036952Y-23339748D01*
X3858342Y-23319624D01*
X3679736Y-23299500D01*
X3320264Y-23299500D01*
X3141658Y-23319624D01*
X2963048Y-23339748D01*
X2963047Y-23339748D01*
X2612600Y-23419735D01*
X2612584Y-23419740D01*
X2273295Y-23538462D01*
X1949419Y-23694433D01*
X1645043Y-23885685D01*
X1363993Y-24109815D01*
X1109815Y-24363993D01*
X885685Y-24645043D01*
X694433Y-24949419D01*
X641172Y-25060017D01*
X598940Y-25097757D01*
X542392Y-25094581D01*
X504652Y-25052349D01*
X500500Y-25027909D01*
X500500Y-22551305D01*
X17816400Y-22551305D01*
X17816400Y-22683094D01*
X17850506Y-22810381D01*
X17850510Y-22810390D01*
X17907847Y-22909700D01*
X17916400Y-22924514D01*
X18009586Y-23017700D01*
X18123714Y-23083592D01*
X18251005Y-23117699D01*
X18251006Y-23117700D01*
X18251008Y-23117700D01*
X18382794Y-23117700D01*
X18382794Y-23117699D01*
X18510086Y-23083592D01*
X18624214Y-23017700D01*
X18717400Y-22924514D01*
X18783292Y-22810386D01*
X18817399Y-22683094D01*
X18817400Y-22683094D01*
X18817400Y-22551306D01*
X18817399Y-22551305D01*
X18787551Y-22439911D01*
X18783292Y-22424014D01*
X18736695Y-22343305D01*
X19887200Y-22343305D01*
X19887200Y-22475094D01*
X19921306Y-22602381D01*
X19921307Y-22602384D01*
X19921308Y-22602386D01*
X19987200Y-22716514D01*
X20080386Y-22809700D01*
X20194514Y-22875592D01*
X20321805Y-22909699D01*
X20321806Y-22909700D01*
X20321808Y-22909700D01*
X20453594Y-22909700D01*
X20453594Y-22909699D01*
X20580886Y-22875592D01*
X20695014Y-22809700D01*
X20788200Y-22716514D01*
X20854092Y-22602386D01*
X20864475Y-22563634D01*
X20866653Y-22555505D01*
X22599200Y-22555505D01*
X22599200Y-22687294D01*
X22633306Y-22814581D01*
X22633310Y-22814590D01*
X22678003Y-22892000D01*
X22699200Y-22928714D01*
X22792386Y-23021900D01*
X22906514Y-23087792D01*
X23033805Y-23121899D01*
X23033806Y-23121900D01*
X23033808Y-23121900D01*
X23165594Y-23121900D01*
X23165594Y-23121899D01*
X23292886Y-23087792D01*
X23407014Y-23021900D01*
X23500200Y-22928714D01*
X23566092Y-22814586D01*
X23600199Y-22687294D01*
X23600200Y-22687294D01*
X23600200Y-22555506D01*
X23600199Y-22555505D01*
X23599074Y-22551308D01*
X23584470Y-22496805D01*
X24659900Y-22496805D01*
X24659900Y-22628594D01*
X24694006Y-22755881D01*
X24694010Y-22755890D01*
X24727901Y-22814590D01*
X24759900Y-22870014D01*
X24853086Y-22963200D01*
X24967214Y-23029092D01*
X25094505Y-23063199D01*
X25094506Y-23063200D01*
X25094508Y-23063200D01*
X25226294Y-23063200D01*
X25226294Y-23063199D01*
X25353586Y-23029092D01*
X25467714Y-22963200D01*
X25560900Y-22870014D01*
X25626792Y-22755886D01*
X25660899Y-22628594D01*
X25660900Y-22628594D01*
X25660900Y-22496806D01*
X25660899Y-22496805D01*
X25645655Y-22439911D01*
X25641822Y-22425605D01*
X25824000Y-22425605D01*
X25824000Y-22557394D01*
X25858106Y-22684681D01*
X25858110Y-22684690D01*
X25899215Y-22755886D01*
X25924000Y-22798814D01*
X26017186Y-22892000D01*
X26131314Y-22957892D01*
X26258605Y-22991999D01*
X26258606Y-22992000D01*
X26258608Y-22992000D01*
X26390394Y-22992000D01*
X26390394Y-22991999D01*
X26517686Y-22957892D01*
X26631814Y-22892000D01*
X26725000Y-22798814D01*
X26790892Y-22684686D01*
X26824999Y-22557394D01*
X26825000Y-22557394D01*
X26825000Y-22425606D01*
X26824999Y-22425605D01*
X26824571Y-22424009D01*
X26804514Y-22349152D01*
X26811906Y-22293000D01*
X26856839Y-22258522D01*
X26875992Y-22256000D01*
X26903694Y-22256000D01*
X26903694Y-22255999D01*
X27030986Y-22221892D01*
X27145114Y-22156000D01*
X27238300Y-22062814D01*
X27304192Y-21948686D01*
X27338299Y-21821394D01*
X27338300Y-21821394D01*
X27338300Y-21689606D01*
X27338299Y-21689605D01*
X27330473Y-21660399D01*
X27304192Y-21562314D01*
X27238300Y-21448186D01*
X27177619Y-21387505D01*
X28898200Y-21387505D01*
X28898200Y-21519294D01*
X28932306Y-21646581D01*
X28932310Y-21646590D01*
X28957147Y-21689608D01*
X28998200Y-21760714D01*
X29091386Y-21853900D01*
X29205514Y-21919792D01*
X29332805Y-21953899D01*
X29332806Y-21953900D01*
X29332808Y-21953900D01*
X29464594Y-21953900D01*
X29464594Y-21953899D01*
X29591886Y-21919792D01*
X29706014Y-21853900D01*
X29799200Y-21760714D01*
X29865092Y-21646586D01*
X29899199Y-21519294D01*
X29899200Y-21519294D01*
X29899200Y-21387506D01*
X29899199Y-21387505D01*
X29890489Y-21355000D01*
X29865092Y-21260214D01*
X29845811Y-21226818D01*
X29845430Y-21226158D01*
X29826866Y-21194005D01*
X30408900Y-21194005D01*
X30408900Y-21325794D01*
X30443006Y-21453081D01*
X30443010Y-21453090D01*
X30461950Y-21485894D01*
X30508900Y-21567214D01*
X30602086Y-21660400D01*
X30716214Y-21726292D01*
X30843505Y-21760399D01*
X30843506Y-21760400D01*
X30843508Y-21760400D01*
X30975294Y-21760400D01*
X30975294Y-21760399D01*
X31102586Y-21726292D01*
X31216714Y-21660400D01*
X31309900Y-21567214D01*
X31375792Y-21453086D01*
X31409899Y-21325794D01*
X31409900Y-21325794D01*
X31409900Y-21194006D01*
X31409899Y-21194005D01*
X31387733Y-21111281D01*
X31375792Y-21066714D01*
X31309900Y-20952586D01*
X31216714Y-20859400D01*
X31110391Y-20798014D01*
X31102590Y-20793510D01*
X31102581Y-20793506D01*
X30975294Y-20759400D01*
X30975292Y-20759400D01*
X30843508Y-20759400D01*
X30843506Y-20759400D01*
X30716218Y-20793506D01*
X30716209Y-20793510D01*
X30602085Y-20859400D01*
X30508900Y-20952585D01*
X30443010Y-21066709D01*
X30443006Y-21066718D01*
X30408900Y-21194005D01*
X29826866Y-21194005D01*
X29799199Y-21146085D01*
X29742632Y-21089518D01*
X29720958Y-21037192D01*
X29742632Y-20984866D01*
X29775802Y-20965715D01*
X29807986Y-20957092D01*
X29922114Y-20891200D01*
X30015300Y-20798014D01*
X30081192Y-20683886D01*
X30115299Y-20556594D01*
X30115300Y-20556594D01*
X30115300Y-20424806D01*
X30115299Y-20424805D01*
X30113368Y-20417600D01*
X30081192Y-20297514D01*
X30015300Y-20183386D01*
X29955087Y-20123173D01*
X29933413Y-20070847D01*
X29955087Y-20018521D01*
X29970409Y-20006764D01*
X30077214Y-19945100D01*
X30170400Y-19851914D01*
X30236292Y-19737786D01*
X30270399Y-19610494D01*
X30270400Y-19610494D01*
X30270400Y-19478706D01*
X30270399Y-19478705D01*
X30236293Y-19351418D01*
X30236292Y-19351414D01*
X30170400Y-19237286D01*
X30077214Y-19144100D01*
X29963090Y-19078210D01*
X29963081Y-19078206D01*
X29835794Y-19044100D01*
X29835792Y-19044100D01*
X29704008Y-19044100D01*
X29704006Y-19044100D01*
X29576718Y-19078206D01*
X29576709Y-19078210D01*
X29462585Y-19144100D01*
X29369400Y-19237285D01*
X29303510Y-19351409D01*
X29303506Y-19351418D01*
X29269400Y-19478705D01*
X29269400Y-19610494D01*
X29303506Y-19737781D01*
X29303510Y-19737790D01*
X29369400Y-19851914D01*
X29429612Y-19912126D01*
X29451286Y-19964452D01*
X29429612Y-20016778D01*
X29414286Y-20028538D01*
X29307485Y-20090200D01*
X29214300Y-20183385D01*
X29148410Y-20297509D01*
X29148406Y-20297518D01*
X29114300Y-20424805D01*
X29114300Y-20556594D01*
X29148406Y-20683881D01*
X29148410Y-20683890D01*
X29214300Y-20798014D01*
X29270867Y-20854581D01*
X29292541Y-20906907D01*
X29270867Y-20959233D01*
X29237694Y-20978385D01*
X29205518Y-20987006D01*
X29205509Y-20987010D01*
X29091385Y-21052900D01*
X28998200Y-21146085D01*
X28932310Y-21260209D01*
X28932306Y-21260218D01*
X28898200Y-21387505D01*
X27177619Y-21387505D01*
X27145114Y-21355000D01*
X27094528Y-21325794D01*
X27030990Y-21289110D01*
X27030981Y-21289106D01*
X26903694Y-21255000D01*
X26903692Y-21255000D01*
X26771908Y-21255000D01*
X26771906Y-21255000D01*
X26644618Y-21289106D01*
X26644609Y-21289110D01*
X26530485Y-21355000D01*
X26437300Y-21448185D01*
X26371410Y-21562309D01*
X26371406Y-21562318D01*
X26337300Y-21689605D01*
X26337300Y-21821394D01*
X26357786Y-21897847D01*
X26350394Y-21954000D01*
X26305461Y-21988478D01*
X26286308Y-21991000D01*
X26258606Y-21991000D01*
X26131318Y-22025106D01*
X26131309Y-22025110D01*
X26017185Y-22091000D01*
X25924000Y-22184185D01*
X25858110Y-22298309D01*
X25858106Y-22298318D01*
X25824000Y-22425605D01*
X25641822Y-22425605D01*
X25626793Y-22369518D01*
X25626792Y-22369514D01*
X25560900Y-22255386D01*
X25467714Y-22162200D01*
X25447979Y-22150806D01*
X25353590Y-22096310D01*
X25353581Y-22096306D01*
X25226294Y-22062200D01*
X25226292Y-22062200D01*
X25094508Y-22062200D01*
X25094506Y-22062200D01*
X24967218Y-22096306D01*
X24967209Y-22096310D01*
X24853085Y-22162200D01*
X24759900Y-22255385D01*
X24694010Y-22369509D01*
X24694006Y-22369518D01*
X24659900Y-22496805D01*
X23584470Y-22496805D01*
X23566092Y-22428214D01*
X23500200Y-22314086D01*
X23407014Y-22220900D01*
X23305343Y-22162200D01*
X23292890Y-22155010D01*
X23292881Y-22155006D01*
X23165594Y-22120900D01*
X23165592Y-22120900D01*
X23033808Y-22120900D01*
X23033806Y-22120900D01*
X22906518Y-22155006D01*
X22906509Y-22155010D01*
X22792385Y-22220900D01*
X22699200Y-22314085D01*
X22633310Y-22428209D01*
X22633306Y-22428218D01*
X22599200Y-22555505D01*
X20866653Y-22555505D01*
X20873083Y-22531511D01*
X20873084Y-22531506D01*
X20888200Y-22475091D01*
X20888200Y-22343306D01*
X20888199Y-22343305D01*
X20864641Y-22255386D01*
X20854092Y-22216014D01*
X20788200Y-22101886D01*
X20695014Y-22008700D01*
X20659989Y-21988478D01*
X20580890Y-21942810D01*
X20580881Y-21942806D01*
X20453594Y-21908700D01*
X20453592Y-21908700D01*
X20321808Y-21908700D01*
X20321806Y-21908700D01*
X20194518Y-21942806D01*
X20194509Y-21942810D01*
X20080385Y-22008700D01*
X19987200Y-22101885D01*
X19921310Y-22216009D01*
X19921306Y-22216018D01*
X19887200Y-22343305D01*
X18736695Y-22343305D01*
X18717400Y-22309886D01*
X18624214Y-22216700D01*
X18623017Y-22216009D01*
X18510090Y-22150810D01*
X18510081Y-22150806D01*
X18382794Y-22116700D01*
X18382792Y-22116700D01*
X18251008Y-22116700D01*
X18251006Y-22116700D01*
X18123718Y-22150806D01*
X18123709Y-22150810D01*
X18009585Y-22216700D01*
X17916400Y-22309885D01*
X17850510Y-22424009D01*
X17850506Y-22424018D01*
X17816400Y-22551305D01*
X500500Y-22551305D01*
X500500Y-20852205D01*
X18272700Y-20852205D01*
X18272700Y-20983994D01*
X18306806Y-21111281D01*
X18306810Y-21111290D01*
X18354568Y-21194008D01*
X18372700Y-21225414D01*
X18465886Y-21318600D01*
X18580014Y-21384492D01*
X18707305Y-21418599D01*
X18707306Y-21418600D01*
X18707308Y-21418600D01*
X18839094Y-21418600D01*
X18839094Y-21418599D01*
X18966386Y-21384492D01*
X19019018Y-21354105D01*
X23517900Y-21354105D01*
X23517900Y-21485894D01*
X23552006Y-21613181D01*
X23552010Y-21613190D01*
X23579267Y-21660400D01*
X23617900Y-21727314D01*
X23711086Y-21820500D01*
X23825214Y-21886392D01*
X23952505Y-21920499D01*
X23952506Y-21920500D01*
X23952508Y-21920500D01*
X24084294Y-21920500D01*
X24084294Y-21920499D01*
X24211586Y-21886392D01*
X24325714Y-21820500D01*
X24418900Y-21727314D01*
X24484792Y-21613186D01*
X24518899Y-21485894D01*
X24518900Y-21485894D01*
X24518900Y-21354106D01*
X24518899Y-21354105D01*
X24484793Y-21226818D01*
X24484792Y-21226814D01*
X24418900Y-21112686D01*
X24325714Y-21019500D01*
X24276697Y-20991200D01*
X24211590Y-20953610D01*
X24211581Y-20953606D01*
X24084294Y-20919500D01*
X24084292Y-20919500D01*
X23952508Y-20919500D01*
X23952506Y-20919500D01*
X23825218Y-20953606D01*
X23825209Y-20953610D01*
X23711085Y-21019500D01*
X23617900Y-21112685D01*
X23552010Y-21226809D01*
X23552006Y-21226818D01*
X23517900Y-21354105D01*
X19019018Y-21354105D01*
X19080514Y-21318600D01*
X19173700Y-21225414D01*
X19239592Y-21111286D01*
X19273699Y-20983994D01*
X19273700Y-20983994D01*
X19273700Y-20852206D01*
X19273699Y-20852205D01*
X19257971Y-20793508D01*
X19239592Y-20724914D01*
X19173700Y-20610786D01*
X19080514Y-20517600D01*
X18966386Y-20451708D01*
X18966383Y-20451707D01*
X18966381Y-20451706D01*
X18865984Y-20424805D01*
X27247400Y-20424805D01*
X27247400Y-20556594D01*
X27281506Y-20683881D01*
X27281510Y-20683890D01*
X27305198Y-20724918D01*
X27347400Y-20798014D01*
X27440586Y-20891200D01*
X27554714Y-20957092D01*
X27682005Y-20991199D01*
X27682006Y-20991200D01*
X27682008Y-20991200D01*
X27813794Y-20991200D01*
X27813794Y-20991199D01*
X27941086Y-20957092D01*
X28055214Y-20891200D01*
X28148400Y-20798014D01*
X28214292Y-20683886D01*
X28248399Y-20556594D01*
X28248400Y-20556594D01*
X28248400Y-20424806D01*
X28248399Y-20424805D01*
X28246468Y-20417600D01*
X28214292Y-20297514D01*
X28148400Y-20183386D01*
X28055214Y-20090200D01*
X28021694Y-20070847D01*
X27941090Y-20024310D01*
X27941081Y-20024306D01*
X27813794Y-19990200D01*
X27813792Y-19990200D01*
X27682008Y-19990200D01*
X27682006Y-19990200D01*
X27554718Y-20024306D01*
X27554709Y-20024310D01*
X27440585Y-20090200D01*
X27347400Y-20183385D01*
X27281510Y-20297509D01*
X27281506Y-20297518D01*
X27247400Y-20424805D01*
X18865984Y-20424805D01*
X18839094Y-20417600D01*
X18839092Y-20417600D01*
X18707308Y-20417600D01*
X18707306Y-20417600D01*
X18580018Y-20451706D01*
X18580009Y-20451710D01*
X18465885Y-20517600D01*
X18372700Y-20610785D01*
X18306810Y-20724909D01*
X18306806Y-20724918D01*
X18272700Y-20852205D01*
X500500Y-20852205D01*
X500500Y-17899805D01*
X16207000Y-17899805D01*
X16207000Y-18031594D01*
X16241106Y-18158881D01*
X16241107Y-18158884D01*
X16241108Y-18158886D01*
X16307000Y-18273014D01*
X16400186Y-18366200D01*
X16514314Y-18432092D01*
X16641605Y-18466199D01*
X16641606Y-18466200D01*
X16641608Y-18466200D01*
X16773394Y-18466200D01*
X16773394Y-18466199D01*
X16900686Y-18432092D01*
X17014814Y-18366200D01*
X17108000Y-18273014D01*
X17111181Y-18267505D01*
X26835800Y-18267505D01*
X26835800Y-18399294D01*
X26869906Y-18526581D01*
X26869907Y-18526584D01*
X26869908Y-18526586D01*
X26935800Y-18640714D01*
X27028986Y-18733900D01*
X27143114Y-18799792D01*
X27270405Y-18833899D01*
X27270406Y-18833900D01*
X27270408Y-18833900D01*
X27402194Y-18833900D01*
X27402194Y-18833899D01*
X27529486Y-18799792D01*
X27643614Y-18733900D01*
X27736800Y-18640714D01*
X27802692Y-18526586D01*
X27836799Y-18399294D01*
X27836800Y-18399294D01*
X27836800Y-18267506D01*
X27836799Y-18267505D01*
X27830956Y-18245700D01*
X27802692Y-18140214D01*
X27801369Y-18137020D01*
X27801369Y-18080383D01*
X27841418Y-18040335D01*
X27898055Y-18040335D01*
X27922062Y-18056376D01*
X28011386Y-18145700D01*
X28125514Y-18211592D01*
X28252805Y-18245699D01*
X28252806Y-18245700D01*
X28252808Y-18245700D01*
X28384594Y-18245700D01*
X28384594Y-18245699D01*
X28511886Y-18211592D01*
X28626014Y-18145700D01*
X28719200Y-18052514D01*
X28785092Y-17938386D01*
X28819199Y-17811094D01*
X28819200Y-17811094D01*
X28819200Y-17679306D01*
X28819199Y-17679305D01*
X28785093Y-17552018D01*
X28785092Y-17552014D01*
X28719200Y-17437886D01*
X28626014Y-17344700D01*
X28511890Y-17278810D01*
X28511881Y-17278806D01*
X28384594Y-17244700D01*
X28384592Y-17244700D01*
X28252808Y-17244700D01*
X28252806Y-17244700D01*
X28125518Y-17278806D01*
X28125509Y-17278810D01*
X28011385Y-17344700D01*
X27918200Y-17437885D01*
X27852310Y-17552009D01*
X27852306Y-17552018D01*
X27818200Y-17679305D01*
X27818200Y-17811094D01*
X27852308Y-17938387D01*
X27853632Y-17941584D01*
X27853628Y-17998221D01*
X27813576Y-18038266D01*
X27756939Y-18038262D01*
X27732937Y-18022223D01*
X27643614Y-17932900D01*
X27529490Y-17867010D01*
X27529481Y-17867006D01*
X27402194Y-17832900D01*
X27402192Y-17832900D01*
X27270408Y-17832900D01*
X27270406Y-17832900D01*
X27143118Y-17867006D01*
X27143109Y-17867010D01*
X27028985Y-17932900D01*
X26935800Y-18026085D01*
X26869910Y-18140209D01*
X26869906Y-18140218D01*
X26835800Y-18267505D01*
X17111181Y-18267505D01*
X17173892Y-18158886D01*
X17207999Y-18031594D01*
X17208000Y-18031594D01*
X17208000Y-17899806D01*
X17207999Y-17899805D01*
X17173893Y-17772518D01*
X17173892Y-17772514D01*
X17108000Y-17658386D01*
X17014814Y-17565200D01*
X16991967Y-17552009D01*
X16900690Y-17499310D01*
X16900681Y-17499306D01*
X16773394Y-17465200D01*
X16773392Y-17465200D01*
X16641608Y-17465200D01*
X16641606Y-17465200D01*
X16514318Y-17499306D01*
X16514309Y-17499310D01*
X16400185Y-17565200D01*
X16307000Y-17658385D01*
X16241110Y-17772509D01*
X16241106Y-17772518D01*
X16207000Y-17899805D01*
X500500Y-17899805D01*
X500500Y-16688805D01*
X26623100Y-16688805D01*
X26623100Y-16820594D01*
X26657206Y-16947881D01*
X26657207Y-16947884D01*
X26657208Y-16947886D01*
X26723100Y-17062014D01*
X26816286Y-17155200D01*
X26930414Y-17221092D01*
X27057705Y-17255199D01*
X27057706Y-17255200D01*
X27057708Y-17255200D01*
X27189494Y-17255200D01*
X27189494Y-17255199D01*
X27316786Y-17221092D01*
X27430914Y-17155200D01*
X27524100Y-17062014D01*
X27589992Y-16947886D01*
X27624099Y-16820594D01*
X27624100Y-16820594D01*
X27624100Y-16688806D01*
X27624099Y-16688805D01*
X27589993Y-16561518D01*
X27589992Y-16561514D01*
X27524100Y-16447386D01*
X27430914Y-16354200D01*
X27316790Y-16288310D01*
X27316781Y-16288306D01*
X27189494Y-16254200D01*
X27189492Y-16254200D01*
X27057708Y-16254200D01*
X27057706Y-16254200D01*
X26930418Y-16288306D01*
X26930409Y-16288310D01*
X26816285Y-16354200D01*
X26723100Y-16447385D01*
X26657210Y-16561509D01*
X26657206Y-16561518D01*
X26623100Y-16688805D01*
X500500Y-16688805D01*
X500500Y-14933805D01*
X12112000Y-14933805D01*
X12112000Y-15065594D01*
X12146106Y-15192881D01*
X12146110Y-15192890D01*
X12198832Y-15284206D01*
X12212000Y-15307014D01*
X12305186Y-15400200D01*
X12419314Y-15466092D01*
X12546605Y-15500199D01*
X12546606Y-15500200D01*
X12546608Y-15500200D01*
X12678394Y-15500200D01*
X12678394Y-15500199D01*
X12805686Y-15466092D01*
X12919814Y-15400200D01*
X12974609Y-15345405D01*
X15800600Y-15345405D01*
X15800600Y-15477194D01*
X15834706Y-15604481D01*
X15834710Y-15604490D01*
X15881023Y-15684706D01*
X15900600Y-15718614D01*
X15993786Y-15811800D01*
X16107914Y-15877692D01*
X16235205Y-15911799D01*
X16235206Y-15911800D01*
X16235208Y-15911800D01*
X16366994Y-15911800D01*
X16366994Y-15911799D01*
X16494286Y-15877692D01*
X16608414Y-15811800D01*
X16701600Y-15718614D01*
X16767492Y-15604486D01*
X16769952Y-15595305D01*
X27571300Y-15595305D01*
X27571300Y-15727094D01*
X27605406Y-15854381D01*
X27605410Y-15854390D01*
X27671300Y-15968514D01*
X27764486Y-16061700D01*
X27878614Y-16127592D01*
X28005905Y-16161699D01*
X28005906Y-16161700D01*
X28005908Y-16161700D01*
X28137694Y-16161700D01*
X28137694Y-16161699D01*
X28264986Y-16127592D01*
X28379114Y-16061700D01*
X28472300Y-15968514D01*
X28538192Y-15854386D01*
X28572299Y-15727094D01*
X28572300Y-15727094D01*
X28572300Y-15684705D01*
X36909400Y-15684705D01*
X36909400Y-15816494D01*
X36943506Y-15943781D01*
X36943507Y-15943784D01*
X36943508Y-15943786D01*
X37009400Y-16057914D01*
X37102586Y-16151100D01*
X37216714Y-16216992D01*
X37344005Y-16251099D01*
X37344006Y-16251100D01*
X37344008Y-16251100D01*
X37475794Y-16251100D01*
X37475794Y-16251099D01*
X37603086Y-16216992D01*
X37717214Y-16151100D01*
X37810400Y-16057914D01*
X37876292Y-15943786D01*
X37910399Y-15816494D01*
X37910400Y-15816494D01*
X37910400Y-15684706D01*
X37910399Y-15684705D01*
X37896440Y-15632610D01*
X37876292Y-15557414D01*
X37810400Y-15443286D01*
X37717214Y-15350100D01*
X37636601Y-15303558D01*
X37603090Y-15284210D01*
X37603081Y-15284206D01*
X37475794Y-15250100D01*
X37475792Y-15250100D01*
X37344008Y-15250100D01*
X37344006Y-15250100D01*
X37216718Y-15284206D01*
X37216709Y-15284210D01*
X37102585Y-15350100D01*
X37009400Y-15443285D01*
X36943510Y-15557409D01*
X36943506Y-15557418D01*
X36909400Y-15684705D01*
X28572300Y-15684705D01*
X28572300Y-15595306D01*
X28572299Y-15595305D01*
X28562147Y-15557418D01*
X28538192Y-15468014D01*
X28472300Y-15353886D01*
X28379114Y-15260700D01*
X28309297Y-15220391D01*
X28264990Y-15194810D01*
X28264981Y-15194806D01*
X28137694Y-15160700D01*
X28137692Y-15160700D01*
X28005908Y-15160700D01*
X28005906Y-15160700D01*
X27878618Y-15194806D01*
X27878609Y-15194810D01*
X27764485Y-15260700D01*
X27671300Y-15353885D01*
X27605410Y-15468009D01*
X27605406Y-15468018D01*
X27571300Y-15595305D01*
X16769952Y-15595305D01*
X16801599Y-15477194D01*
X16801600Y-15477194D01*
X16801600Y-15345409D01*
X16801599Y-15345405D01*
X16800846Y-15342594D01*
X16801037Y-15341137D01*
X16800967Y-15340599D01*
X16801111Y-15340580D01*
X16808234Y-15286443D01*
X16853163Y-15251962D01*
X16970986Y-15220392D01*
X17085114Y-15154500D01*
X17178300Y-15061314D01*
X17244028Y-14947470D01*
X38344200Y-14947470D01*
X38344200Y-15084529D01*
X38370937Y-15218950D01*
X38370940Y-15218961D01*
X38423387Y-15345580D01*
X38423389Y-15345583D01*
X38423390Y-15345585D01*
X38499537Y-15459547D01*
X38596453Y-15556463D01*
X38710415Y-15632610D01*
X38710420Y-15632612D01*
X38710419Y-15632612D01*
X38836186Y-15684706D01*
X38837043Y-15685061D01*
X38971470Y-15711800D01*
X38971471Y-15711800D01*
X39108529Y-15711800D01*
X39108530Y-15711800D01*
X39242957Y-15685061D01*
X39369585Y-15632610D01*
X39483547Y-15556463D01*
X39580463Y-15459547D01*
X39656610Y-15345585D01*
X39709061Y-15218957D01*
X39735800Y-15084530D01*
X39735800Y-14947470D01*
X39709061Y-14813043D01*
X39706355Y-14806509D01*
X39656612Y-14686419D01*
X39656611Y-14686417D01*
X39656610Y-14686415D01*
X39580463Y-14572453D01*
X39483547Y-14475537D01*
X39369585Y-14399390D01*
X39369581Y-14399388D01*
X39369579Y-14399387D01*
X39369580Y-14399387D01*
X39242961Y-14346940D01*
X39242950Y-14346937D01*
X39141680Y-14326793D01*
X39108530Y-14320200D01*
X38971470Y-14320200D01*
X38944877Y-14325489D01*
X38837049Y-14346937D01*
X38837038Y-14346940D01*
X38710419Y-14399387D01*
X38596453Y-14475536D01*
X38596452Y-14475538D01*
X38499538Y-14572452D01*
X38499536Y-14572453D01*
X38423387Y-14686419D01*
X38370940Y-14813038D01*
X38370937Y-14813049D01*
X38344200Y-14947470D01*
X17244028Y-14947470D01*
X17244192Y-14947186D01*
X17278299Y-14819894D01*
X17278300Y-14819894D01*
X17278300Y-14688106D01*
X17278299Y-14688105D01*
X17244193Y-14560818D01*
X17244192Y-14560814D01*
X17178300Y-14446686D01*
X17085114Y-14353500D01*
X17043692Y-14329585D01*
X16970990Y-14287610D01*
X16970981Y-14287606D01*
X16843694Y-14253500D01*
X16843692Y-14253500D01*
X16711908Y-14253500D01*
X16711906Y-14253500D01*
X16584618Y-14287606D01*
X16584609Y-14287610D01*
X16470485Y-14353500D01*
X16377300Y-14446685D01*
X16311410Y-14560809D01*
X16311406Y-14560818D01*
X16277300Y-14688105D01*
X16277300Y-14819892D01*
X16278055Y-14822710D01*
X16277862Y-14824168D01*
X16277933Y-14824701D01*
X16277790Y-14824719D01*
X16270661Y-14878862D01*
X16225729Y-14913339D01*
X16107918Y-14944906D01*
X16107909Y-14944910D01*
X15993785Y-15010800D01*
X15900600Y-15103985D01*
X15834710Y-15218109D01*
X15834706Y-15218118D01*
X15800600Y-15345405D01*
X12974609Y-15345405D01*
X13013000Y-15307014D01*
X13078892Y-15192886D01*
X13112999Y-15065594D01*
X13113000Y-15065594D01*
X13113000Y-14933806D01*
X13112999Y-14933805D01*
X13078893Y-14806518D01*
X13078892Y-14806514D01*
X13013000Y-14692386D01*
X12919814Y-14599200D01*
X12818079Y-14540463D01*
X12805690Y-14533310D01*
X12805681Y-14533306D01*
X12678394Y-14499200D01*
X12678392Y-14499200D01*
X12546608Y-14499200D01*
X12546606Y-14499200D01*
X12419318Y-14533306D01*
X12419309Y-14533310D01*
X12305185Y-14599200D01*
X12212000Y-14692385D01*
X12146110Y-14806509D01*
X12146106Y-14806518D01*
X12112000Y-14933805D01*
X500500Y-14933805D01*
X500500Y-13273905D01*
X18098700Y-13273905D01*
X18098700Y-13405694D01*
X18132806Y-13532981D01*
X18132810Y-13532990D01*
X18155567Y-13572406D01*
X18198700Y-13647114D01*
X18291886Y-13740300D01*
X18406014Y-13806192D01*
X18533305Y-13840299D01*
X18533306Y-13840300D01*
X18533308Y-13840300D01*
X18665094Y-13840300D01*
X18665094Y-13840299D01*
X18792386Y-13806192D01*
X18906514Y-13740300D01*
X18999700Y-13647114D01*
X19065592Y-13532986D01*
X19072694Y-13506479D01*
X21324500Y-13506479D01*
X21324500Y-13618520D01*
X21353495Y-13726732D01*
X21353499Y-13726741D01*
X21394085Y-13797038D01*
X21409515Y-13823763D01*
X21488737Y-13902985D01*
X21585763Y-13959003D01*
X21693979Y-13987999D01*
X21693980Y-13988000D01*
X21693982Y-13988000D01*
X21806020Y-13988000D01*
X21806020Y-13987999D01*
X21914237Y-13959003D01*
X22011263Y-13902985D01*
X22090485Y-13823763D01*
X22146503Y-13726737D01*
X22175499Y-13618520D01*
X22175500Y-13618520D01*
X22175500Y-13572405D01*
X27216000Y-13572405D01*
X27216000Y-13704194D01*
X27250106Y-13831481D01*
X27250110Y-13831490D01*
X27284373Y-13890835D01*
X27316000Y-13945614D01*
X27409186Y-14038800D01*
X27523314Y-14104692D01*
X27650605Y-14138799D01*
X27650606Y-14138800D01*
X27650608Y-14138800D01*
X27782394Y-14138800D01*
X27782394Y-14138799D01*
X27909686Y-14104692D01*
X28023814Y-14038800D01*
X28117000Y-13945614D01*
X28125166Y-13931470D01*
X33264200Y-13931470D01*
X33264200Y-14068529D01*
X33290937Y-14202950D01*
X33290940Y-14202961D01*
X33343387Y-14329580D01*
X33343389Y-14329583D01*
X33343390Y-14329585D01*
X33419537Y-14443547D01*
X33516453Y-14540463D01*
X33630415Y-14616610D01*
X33630420Y-14616612D01*
X33630419Y-14616612D01*
X33757038Y-14669059D01*
X33757043Y-14669061D01*
X33891470Y-14695800D01*
X33891471Y-14695800D01*
X34028529Y-14695800D01*
X34028530Y-14695800D01*
X34162957Y-14669061D01*
X34289585Y-14616610D01*
X34403547Y-14540463D01*
X34500463Y-14443547D01*
X34576610Y-14329585D01*
X34629061Y-14202957D01*
X34655800Y-14068530D01*
X34655800Y-13931470D01*
X34629061Y-13797043D01*
X34599941Y-13726741D01*
X34576612Y-13670419D01*
X34576611Y-13670417D01*
X34576610Y-13670415D01*
X34500463Y-13556453D01*
X34403547Y-13459537D01*
X34381967Y-13445118D01*
X34355672Y-13427548D01*
X34289585Y-13383390D01*
X34289581Y-13383388D01*
X34289579Y-13383387D01*
X34289580Y-13383387D01*
X34162961Y-13330940D01*
X34162950Y-13330937D01*
X34061680Y-13310793D01*
X34028530Y-13304200D01*
X33891470Y-13304200D01*
X33864877Y-13309489D01*
X33757049Y-13330937D01*
X33757038Y-13330940D01*
X33630419Y-13383387D01*
X33516453Y-13459536D01*
X33516452Y-13459538D01*
X33419538Y-13556452D01*
X33419536Y-13556453D01*
X33343387Y-13670419D01*
X33290940Y-13797038D01*
X33290937Y-13797049D01*
X33264200Y-13931470D01*
X28125166Y-13931470D01*
X28182892Y-13831486D01*
X28216999Y-13704194D01*
X28217000Y-13704194D01*
X28217000Y-13572406D01*
X28216999Y-13572405D01*
X28212724Y-13556452D01*
X28182892Y-13445114D01*
X28117000Y-13330986D01*
X28023814Y-13237800D01*
X27996474Y-13222015D01*
X27909690Y-13171910D01*
X27909681Y-13171906D01*
X27782394Y-13137800D01*
X27782392Y-13137800D01*
X27650608Y-13137800D01*
X27650606Y-13137800D01*
X27523318Y-13171906D01*
X27523309Y-13171910D01*
X27409185Y-13237800D01*
X27316000Y-13330985D01*
X27250110Y-13445109D01*
X27250106Y-13445118D01*
X27216000Y-13572405D01*
X22175500Y-13572405D01*
X22175500Y-13506480D01*
X22175499Y-13506479D01*
X22159056Y-13445114D01*
X22146503Y-13398263D01*
X22090485Y-13301237D01*
X22026229Y-13236981D01*
X22004555Y-13184655D01*
X22026229Y-13132329D01*
X22059399Y-13113177D01*
X22175786Y-13081992D01*
X22289914Y-13016100D01*
X22341625Y-12964388D01*
X22393948Y-12942715D01*
X22446274Y-12964388D01*
X22477086Y-12995200D01*
X22591214Y-13061092D01*
X22718505Y-13095199D01*
X22718506Y-13095200D01*
X22718508Y-13095200D01*
X22850294Y-13095200D01*
X22850294Y-13095199D01*
X22977586Y-13061092D01*
X23091714Y-12995200D01*
X23184900Y-12902014D01*
X23250792Y-12787886D01*
X23284899Y-12660594D01*
X23284900Y-12660594D01*
X23284900Y-12528806D01*
X23284899Y-12528805D01*
X23283877Y-12524992D01*
X23273025Y-12484489D01*
X23269012Y-12469511D01*
X23265179Y-12455205D01*
X25210800Y-12455205D01*
X25210800Y-12586994D01*
X25244906Y-12714281D01*
X25244907Y-12714284D01*
X25244908Y-12714286D01*
X25310800Y-12828414D01*
X25403986Y-12921600D01*
X25518114Y-12987492D01*
X25645405Y-13021599D01*
X25645406Y-13021600D01*
X25645408Y-13021600D01*
X25777194Y-13021600D01*
X25777194Y-13021599D01*
X25904486Y-12987492D01*
X26018614Y-12921600D01*
X26024744Y-12915470D01*
X38344200Y-12915470D01*
X38344200Y-13052530D01*
X38345903Y-13061092D01*
X38370937Y-13186950D01*
X38370940Y-13186961D01*
X38423387Y-13313580D01*
X38423389Y-13313583D01*
X38423390Y-13313585D01*
X38499537Y-13427547D01*
X38596453Y-13524463D01*
X38710415Y-13600610D01*
X38710420Y-13600612D01*
X38710419Y-13600612D01*
X38837038Y-13653059D01*
X38837043Y-13653061D01*
X38971470Y-13679800D01*
X38971471Y-13679800D01*
X39108529Y-13679800D01*
X39108530Y-13679800D01*
X39242957Y-13653061D01*
X39369585Y-13600610D01*
X39483547Y-13524463D01*
X39580463Y-13427547D01*
X39656610Y-13313585D01*
X39709061Y-13186957D01*
X39735800Y-13052530D01*
X39735800Y-12915470D01*
X39709061Y-12781043D01*
X39681411Y-12714290D01*
X39656612Y-12654419D01*
X39656611Y-12654417D01*
X39656610Y-12654415D01*
X39580463Y-12540453D01*
X39483547Y-12443537D01*
X39369585Y-12367390D01*
X39369581Y-12367388D01*
X39369579Y-12367387D01*
X39369580Y-12367387D01*
X39242961Y-12314940D01*
X39242950Y-12314937D01*
X39141680Y-12294793D01*
X39108530Y-12288200D01*
X38971470Y-12288200D01*
X38944877Y-12293489D01*
X38837049Y-12314937D01*
X38837038Y-12314940D01*
X38710419Y-12367387D01*
X38596453Y-12443536D01*
X38596452Y-12443538D01*
X38499538Y-12540452D01*
X38499536Y-12540453D01*
X38423387Y-12654419D01*
X38370940Y-12781038D01*
X38370937Y-12781049D01*
X38345456Y-12909156D01*
X38344200Y-12915470D01*
X26024744Y-12915470D01*
X26111800Y-12828414D01*
X26177692Y-12714286D01*
X26211799Y-12586994D01*
X26211800Y-12586994D01*
X26211800Y-12455206D01*
X26211799Y-12455205D01*
X26208672Y-12443536D01*
X26177692Y-12327914D01*
X26111800Y-12213786D01*
X26018614Y-12120600D01*
X25955211Y-12083994D01*
X25904490Y-12054710D01*
X25904481Y-12054706D01*
X25777194Y-12020600D01*
X25777192Y-12020600D01*
X25645408Y-12020600D01*
X25645406Y-12020600D01*
X25518118Y-12054706D01*
X25518109Y-12054710D01*
X25403985Y-12120600D01*
X25310800Y-12213785D01*
X25244910Y-12327909D01*
X25244906Y-12327918D01*
X25210800Y-12455205D01*
X23265179Y-12455205D01*
X23250793Y-12401518D01*
X23250792Y-12401514D01*
X23184900Y-12287386D01*
X23091714Y-12194200D01*
X22977590Y-12128310D01*
X22977581Y-12128306D01*
X22850294Y-12094200D01*
X22850292Y-12094200D01*
X22718508Y-12094200D01*
X22718506Y-12094200D01*
X22591218Y-12128306D01*
X22591209Y-12128310D01*
X22477085Y-12194200D01*
X22425376Y-12245910D01*
X22373050Y-12267584D01*
X22320724Y-12245910D01*
X22289914Y-12215100D01*
X22175790Y-12149210D01*
X22175781Y-12149206D01*
X22048494Y-12115100D01*
X22048492Y-12115100D01*
X21916708Y-12115100D01*
X21916706Y-12115100D01*
X21789418Y-12149206D01*
X21789409Y-12149210D01*
X21675285Y-12215100D01*
X21582100Y-12308285D01*
X21516210Y-12422409D01*
X21516206Y-12422418D01*
X21482100Y-12549705D01*
X21482100Y-12681494D01*
X21516206Y-12808781D01*
X21516210Y-12808790D01*
X21582100Y-12922914D01*
X21675287Y-13016101D01*
X21677852Y-13018069D01*
X21678667Y-13019481D01*
X21678716Y-13019530D01*
X21678703Y-13019542D01*
X21706174Y-13067116D01*
X21691519Y-13121824D01*
X21651962Y-13148258D01*
X21585765Y-13165996D01*
X21585758Y-13165999D01*
X21488736Y-13222015D01*
X21409515Y-13301236D01*
X21353499Y-13398258D01*
X21353495Y-13398267D01*
X21324500Y-13506479D01*
X19072694Y-13506479D01*
X19099699Y-13405694D01*
X19099700Y-13405694D01*
X19099700Y-13273906D01*
X19099699Y-13273905D01*
X19089805Y-13236981D01*
X19065592Y-13146614D01*
X18999700Y-13032486D01*
X18906514Y-12939300D01*
X18875855Y-12921599D01*
X18792390Y-12873410D01*
X18792381Y-12873406D01*
X18665094Y-12839300D01*
X18665092Y-12839300D01*
X18533308Y-12839300D01*
X18533306Y-12839300D01*
X18406018Y-12873406D01*
X18406009Y-12873410D01*
X18291885Y-12939300D01*
X18198700Y-13032485D01*
X18132810Y-13146609D01*
X18132806Y-13146618D01*
X18098700Y-13273905D01*
X500500Y-13273905D01*
X500500Y-11992705D01*
X19425200Y-11992705D01*
X19425200Y-12124494D01*
X19459306Y-12251781D01*
X19459310Y-12251790D01*
X19487804Y-12301143D01*
X19525200Y-12365914D01*
X19618386Y-12459100D01*
X19732514Y-12524992D01*
X19859805Y-12559099D01*
X19859806Y-12559100D01*
X19859808Y-12559100D01*
X19991594Y-12559100D01*
X19991594Y-12559099D01*
X20118886Y-12524992D01*
X20233014Y-12459100D01*
X20326200Y-12365914D01*
X20392092Y-12251786D01*
X20426199Y-12124494D01*
X20426200Y-12124494D01*
X20426200Y-11992706D01*
X20426199Y-11992705D01*
X20415347Y-11952206D01*
X20392092Y-11865414D01*
X20326200Y-11751286D01*
X20233014Y-11658100D01*
X20142965Y-11606110D01*
X20118890Y-11592210D01*
X20118881Y-11592206D01*
X19991594Y-11558100D01*
X19991592Y-11558100D01*
X19859808Y-11558100D01*
X19859806Y-11558100D01*
X19732518Y-11592206D01*
X19732509Y-11592210D01*
X19618385Y-11658100D01*
X19525200Y-11751285D01*
X19459310Y-11865409D01*
X19459306Y-11865418D01*
X19425200Y-11992705D01*
X500500Y-11992705D01*
X500500Y-10925688D01*
X20549500Y-10925688D01*
X20549500Y-11044311D01*
X20580199Y-11158882D01*
X20580201Y-11158887D01*
X20639508Y-11261609D01*
X20639509Y-11261610D01*
X20639511Y-11261613D01*
X20723387Y-11345489D01*
X20826114Y-11404799D01*
X20826115Y-11404799D01*
X20826117Y-11404800D01*
X20883402Y-11420149D01*
X20940688Y-11435499D01*
X20940689Y-11435500D01*
X20940691Y-11435500D01*
X21059311Y-11435500D01*
X21059311Y-11435499D01*
X21067126Y-11433405D01*
X24237700Y-11433405D01*
X24237700Y-11565194D01*
X24271806Y-11692481D01*
X24271810Y-11692490D01*
X24305756Y-11751285D01*
X24337700Y-11806614D01*
X24430886Y-11899800D01*
X24545014Y-11965692D01*
X24672305Y-11999799D01*
X24672306Y-11999800D01*
X24672308Y-11999800D01*
X24804094Y-11999800D01*
X24804094Y-11999799D01*
X24931386Y-11965692D01*
X24954746Y-11952205D01*
X32947300Y-11952205D01*
X32947300Y-12083994D01*
X32981406Y-12211281D01*
X32981410Y-12211290D01*
X33037411Y-12308286D01*
X33047300Y-12325414D01*
X33140486Y-12418600D01*
X33254614Y-12484492D01*
X33381905Y-12518599D01*
X33381906Y-12518600D01*
X33381908Y-12518600D01*
X33513694Y-12518600D01*
X33513694Y-12518599D01*
X33640986Y-12484492D01*
X33755114Y-12418600D01*
X33848300Y-12325414D01*
X33914192Y-12211286D01*
X33948299Y-12083994D01*
X33948300Y-12083994D01*
X33948300Y-12006605D01*
X36171400Y-12006605D01*
X36171400Y-12138394D01*
X36205506Y-12265681D01*
X36205510Y-12265690D01*
X36241435Y-12327914D01*
X36271400Y-12379814D01*
X36364586Y-12473000D01*
X36478714Y-12538892D01*
X36606005Y-12572999D01*
X36606006Y-12573000D01*
X36606008Y-12573000D01*
X36737794Y-12573000D01*
X36737794Y-12572999D01*
X36865086Y-12538892D01*
X36979214Y-12473000D01*
X37072400Y-12379814D01*
X37138292Y-12265686D01*
X37172399Y-12138394D01*
X37172400Y-12138394D01*
X37172400Y-12006606D01*
X37172399Y-12006605D01*
X37170575Y-11999799D01*
X37138292Y-11879314D01*
X37072400Y-11765186D01*
X36979214Y-11672000D01*
X36884991Y-11617600D01*
X36865090Y-11606110D01*
X36865081Y-11606106D01*
X36737794Y-11572000D01*
X36737792Y-11572000D01*
X36606008Y-11572000D01*
X36606006Y-11572000D01*
X36478718Y-11606106D01*
X36478709Y-11606110D01*
X36364585Y-11672000D01*
X36271400Y-11765185D01*
X36205510Y-11879309D01*
X36205506Y-11879318D01*
X36171400Y-12006605D01*
X33948300Y-12006605D01*
X33948300Y-11952206D01*
X33948299Y-11952205D01*
X33914193Y-11824918D01*
X33914192Y-11824914D01*
X33848300Y-11710786D01*
X33755114Y-11617600D01*
X33735206Y-11606106D01*
X33640990Y-11551710D01*
X33640981Y-11551706D01*
X33513694Y-11517600D01*
X33513692Y-11517600D01*
X33381908Y-11517600D01*
X33381906Y-11517600D01*
X33254618Y-11551706D01*
X33254609Y-11551710D01*
X33140485Y-11617600D01*
X33047300Y-11710785D01*
X32981410Y-11824909D01*
X32981406Y-11824918D01*
X32947300Y-11952205D01*
X24954746Y-11952205D01*
X25045514Y-11899800D01*
X25138700Y-11806614D01*
X25204592Y-11692486D01*
X25238699Y-11565194D01*
X25238700Y-11565194D01*
X25238700Y-11433406D01*
X25238699Y-11433405D01*
X25231034Y-11404800D01*
X25204592Y-11306114D01*
X25138700Y-11191986D01*
X25045514Y-11098800D01*
X24951137Y-11044311D01*
X24931390Y-11032910D01*
X24931381Y-11032906D01*
X24804094Y-10998800D01*
X24804092Y-10998800D01*
X24672308Y-10998800D01*
X24672306Y-10998800D01*
X24545018Y-11032906D01*
X24545009Y-11032910D01*
X24430885Y-11098800D01*
X24337700Y-11191985D01*
X24271810Y-11306109D01*
X24271806Y-11306118D01*
X24237700Y-11433405D01*
X21067126Y-11433405D01*
X21173886Y-11404799D01*
X21276613Y-11345489D01*
X21360489Y-11261613D01*
X21419799Y-11158886D01*
X21450499Y-11044311D01*
X21450500Y-11044311D01*
X21450500Y-10925689D01*
X21450499Y-10925688D01*
X21419800Y-10811117D01*
X21419798Y-10811112D01*
X21360491Y-10708390D01*
X21360490Y-10708389D01*
X21360489Y-10708387D01*
X21276613Y-10624511D01*
X21276610Y-10624509D01*
X21276609Y-10624508D01*
X21173887Y-10565201D01*
X21173882Y-10565199D01*
X21059311Y-10534500D01*
X21059309Y-10534500D01*
X20940691Y-10534500D01*
X20940689Y-10534500D01*
X20826117Y-10565199D01*
X20826112Y-10565201D01*
X20723390Y-10624508D01*
X20639508Y-10708390D01*
X20580201Y-10811112D01*
X20580199Y-10811117D01*
X20549500Y-10925688D01*
X500500Y-10925688D01*
X500500Y-8630253D01*
X4949500Y-8630253D01*
X4949500Y-10369746D01*
X4961133Y-10428232D01*
X4990608Y-10472343D01*
X5005448Y-10494552D01*
X5042652Y-10519411D01*
X5071767Y-10538866D01*
X5071768Y-10538866D01*
X5071769Y-10538867D01*
X5130252Y-10550500D01*
X5130254Y-10550500D01*
X6869746Y-10550500D01*
X6869748Y-10550500D01*
X6928231Y-10538867D01*
X6994552Y-10494552D01*
X7038867Y-10428231D01*
X7050500Y-10369748D01*
X7050500Y-9413426D01*
X7440000Y-9413426D01*
X7440000Y-9586573D01*
X7467085Y-9757581D01*
X7467088Y-9757594D01*
X7520588Y-9922249D01*
X7599197Y-10076526D01*
X7599197Y-10076527D01*
X7663220Y-10164646D01*
X8096328Y-9731537D01*
X8139901Y-9807007D01*
X8232993Y-9900099D01*
X8308461Y-9943670D01*
X7875352Y-10376779D01*
X7963472Y-10440802D01*
X8117750Y-10519411D01*
X8117749Y-10519411D01*
X8282405Y-10572911D01*
X8282418Y-10572914D01*
X8453426Y-10600000D01*
X8626574Y-10600000D01*
X8797581Y-10572914D01*
X8797594Y-10572911D01*
X8962249Y-10519411D01*
X9116526Y-10440802D01*
X9116527Y-10440802D01*
X9204646Y-10376779D01*
X8771538Y-9943670D01*
X8847007Y-9900099D01*
X8940099Y-9807007D01*
X8983671Y-9731538D01*
X9416779Y-10164646D01*
X9480802Y-10076527D01*
X9480802Y-10076526D01*
X9559411Y-9922249D01*
X9612911Y-9757594D01*
X9612914Y-9757581D01*
X9640000Y-9586573D01*
X9640000Y-9413426D01*
X9612914Y-9242418D01*
X9612911Y-9242405D01*
X9587769Y-9165025D01*
X9581914Y-9147005D01*
X20600100Y-9147005D01*
X20600100Y-9278794D01*
X20634206Y-9406081D01*
X20634210Y-9406090D01*
X20688429Y-9499999D01*
X20700100Y-9520214D01*
X20793286Y-9613400D01*
X20907414Y-9679292D01*
X21034705Y-9713399D01*
X21034706Y-9713400D01*
X21034708Y-9713400D01*
X21166494Y-9713400D01*
X21166494Y-9713399D01*
X21293786Y-9679292D01*
X21407914Y-9613400D01*
X21501100Y-9520214D01*
X21566992Y-9406086D01*
X21601099Y-9278794D01*
X21601100Y-9278794D01*
X21601100Y-9147006D01*
X21601099Y-9147005D01*
X21582542Y-9077750D01*
X21566992Y-9019714D01*
X21501100Y-8905586D01*
X21407914Y-8812400D01*
X21293790Y-8746510D01*
X21293781Y-8746506D01*
X21166494Y-8712400D01*
X21166492Y-8712400D01*
X21034708Y-8712400D01*
X21034706Y-8712400D01*
X20907418Y-8746506D01*
X20907409Y-8746510D01*
X20793285Y-8812400D01*
X20700100Y-8905585D01*
X20634210Y-9019709D01*
X20634206Y-9019718D01*
X20600100Y-9147005D01*
X9581914Y-9147005D01*
X9559411Y-9077750D01*
X9480802Y-8923473D01*
X9480802Y-8923472D01*
X9416779Y-8835352D01*
X8983670Y-9268460D01*
X8940099Y-9192993D01*
X8847007Y-9099901D01*
X8771537Y-9056328D01*
X9204646Y-8623220D01*
X9116527Y-8559197D01*
X8962249Y-8480588D01*
X8962250Y-8480588D01*
X8797594Y-8427088D01*
X8797581Y-8427085D01*
X8626574Y-8400000D01*
X8453426Y-8400000D01*
X8282418Y-8427085D01*
X8282405Y-8427088D01*
X8117752Y-8480587D01*
X7963479Y-8559193D01*
X7875352Y-8623220D01*
X8308461Y-9056329D01*
X8232993Y-9099901D01*
X8139901Y-9192993D01*
X8096329Y-9268461D01*
X7663220Y-8835352D01*
X7599193Y-8923479D01*
X7520587Y-9077752D01*
X7467088Y-9242405D01*
X7467085Y-9242418D01*
X7440000Y-9413426D01*
X7050500Y-9413426D01*
X7050500Y-8630252D01*
X7038867Y-8571769D01*
X6994552Y-8505448D01*
X6957347Y-8480588D01*
X6928232Y-8461133D01*
X6928233Y-8461133D01*
X6898989Y-8455316D01*
X6869748Y-8449500D01*
X5130252Y-8449500D01*
X5101010Y-8455316D01*
X5071767Y-8461133D01*
X5005449Y-8505447D01*
X5005447Y-8505449D01*
X4961133Y-8571767D01*
X4949500Y-8630253D01*
X500500Y-8630253D01*
X500500Y-4972090D01*
X522174Y-4919764D01*
X574500Y-4898090D01*
X626826Y-4919764D01*
X641170Y-4939980D01*
X694434Y-5050582D01*
X885685Y-5354956D01*
X1109812Y-5636003D01*
X1363997Y-5890188D01*
X1645044Y-6114315D01*
X1949418Y-6305566D01*
X2273292Y-6461536D01*
X2612592Y-6580262D01*
X2612597Y-6580263D01*
X2612600Y-6580264D01*
X2963047Y-6660251D01*
X2963048Y-6660251D01*
X2963052Y-6660252D01*
X3320264Y-6700500D01*
X3320268Y-6700500D01*
X3679732Y-6700500D01*
X3679736Y-6700500D01*
X4036948Y-6660252D01*
X4387408Y-6580262D01*
X4726708Y-6461536D01*
X5050582Y-6305566D01*
X5354956Y-6114315D01*
X5636003Y-5890188D01*
X5681586Y-5844605D01*
X22111900Y-5844605D01*
X22111900Y-5976394D01*
X22146006Y-6103681D01*
X22146010Y-6103690D01*
X22211900Y-6217814D01*
X22305086Y-6311000D01*
X22419214Y-6376892D01*
X22546505Y-6410999D01*
X22546506Y-6411000D01*
X22546508Y-6411000D01*
X22678294Y-6411000D01*
X22678294Y-6410999D01*
X22805586Y-6376892D01*
X22919714Y-6311000D01*
X23012900Y-6217814D01*
X23078792Y-6103686D01*
X23112899Y-5976394D01*
X23112900Y-5976394D01*
X23112900Y-5844606D01*
X23112899Y-5844605D01*
X23078793Y-5717318D01*
X23078792Y-5717314D01*
X23012900Y-5603186D01*
X22919714Y-5510000D01*
X22805590Y-5444110D01*
X22805581Y-5444106D01*
X22678294Y-5410000D01*
X22678292Y-5410000D01*
X22546508Y-5410000D01*
X22546506Y-5410000D01*
X22419218Y-5444106D01*
X22419209Y-5444110D01*
X22305085Y-5510000D01*
X22211900Y-5603185D01*
X22146010Y-5717309D01*
X22146006Y-5717318D01*
X22111900Y-5844605D01*
X5681586Y-5844605D01*
X5890188Y-5636003D01*
X6114315Y-5354956D01*
X6305566Y-5050582D01*
X6457733Y-4734605D01*
X28534200Y-4734605D01*
X28534200Y-4866394D01*
X28568306Y-4993681D01*
X28568307Y-4993684D01*
X28568308Y-4993686D01*
X28634200Y-5107814D01*
X28727386Y-5201000D01*
X28841514Y-5266892D01*
X28968805Y-5300999D01*
X28968806Y-5301000D01*
X28968808Y-5301000D01*
X29100594Y-5301000D01*
X29100594Y-5300999D01*
X29227886Y-5266892D01*
X29342014Y-5201000D01*
X29435200Y-5107814D01*
X29501092Y-4993686D01*
X29535199Y-4866394D01*
X29535200Y-4866394D01*
X29535200Y-4734606D01*
X29535199Y-4734605D01*
X29533082Y-4726706D01*
X29501092Y-4607314D01*
X29435200Y-4493186D01*
X29342014Y-4400000D01*
X29320204Y-4387408D01*
X29227890Y-4334110D01*
X29227881Y-4334106D01*
X29100594Y-4300000D01*
X29100592Y-4300000D01*
X28968808Y-4300000D01*
X28968806Y-4300000D01*
X28841518Y-4334106D01*
X28841509Y-4334110D01*
X28727385Y-4400000D01*
X28634200Y-4493185D01*
X28568310Y-4607309D01*
X28568306Y-4607318D01*
X28534200Y-4734605D01*
X6457733Y-4734605D01*
X6461536Y-4726708D01*
X6580262Y-4387408D01*
X6660252Y-4036948D01*
X6700500Y-3679736D01*
X6700500Y-3320264D01*
X6660252Y-2963052D01*
X6580262Y-2612592D01*
X6461536Y-2273292D01*
X6305566Y-1949418D01*
X6114315Y-1645044D01*
X5890188Y-1363997D01*
X5636003Y-1109812D01*
X5354956Y-885685D01*
X5050582Y-694434D01*
X4939981Y-641171D01*
X4902243Y-598940D01*
X4905418Y-542392D01*
X4947650Y-504653D01*
X4972090Y-500500D01*
X40027910Y-500500D01*
X40080236Y-522174D01*
G37*
%TD.AperFunction*%
%TD*%
M02*
