M48
; DRILL file KiCad 10.0.1 date 2026-09-04T22:04:06
; FORMAT={-:-/ absolute / metric / decimal}
; #@! TF.CreationDate,2026-09-04T22:04:06-05:00
; #@! TF.GenerationSoftware,Kicad,Pcbnew,10.0.1
; #@! TF.FileFunction,MixedPlating,1,4
FMAT,2
METRIC
; #@! TA.AperFunction,Plated,PTH,ViaDrill
T1C0.200
; #@! TA.AperFunction,Plated,PTH,ViaDrill
T2C0.250
; #@! TA.AperFunction,Plated,PTH,ComponentDrill
T3C1.000
; #@! TA.AperFunction,Plated,PTH,ComponentDrill
T4C3.200
; #@! TA.AperFunction,NonPlated,NPTH,ComponentDrill
T5C0.991
%
G90
G05
T1
X12.6Y-17.5
X14.78Y-3.8
X15.18Y-13.5
X15.18Y-15.5
X16.27Y-4.75
X18.01Y-8.5
X19.1Y-5.8
X20.0Y-23.52
X21.5Y-23.52
X21.75Y-13.562
X22.5Y-10.02
X23.2Y-23.52
X24.0Y-10.02
X24.96Y-23.72
X26.5Y-23.71
X27.0Y-9.45
X29.5Y-9.72
X31.0Y-10.02
X36.2Y-20.11
X36.65Y-16.75
X37.87Y-14.63
T2
X0.95Y-8.95
X0.95Y-12.95
X0.95Y-16.95
X0.95Y-20.95
X4.95Y-16.95
X4.95Y-20.95
X8.95Y-0.95
X8.95Y-8.95
X8.95Y-12.95
X8.95Y-16.95
X8.95Y-20.95
X8.95Y-24.95
X8.95Y-28.95
X12.612Y-15.0
X12.95Y-0.95
X12.95Y-8.95
X12.95Y-12.95
X12.95Y-20.95
X12.95Y-24.95
X12.95Y-28.95
X16.301Y-15.411
X16.707Y-17.966
X16.778Y-14.754
X16.95Y-0.95
X16.95Y-12.95
X16.95Y-16.95
X16.95Y-24.95
X16.95Y-28.95
X18.262Y-28.472
X18.317Y-22.617
X18.599Y-13.34
X18.773Y-20.918
X19.926Y-12.059
X20.388Y-22.409
X20.95Y-0.95
X20.95Y-28.95
X21.0Y-10.985
X21.101Y-9.213
X21.2Y-15.7
X21.2Y-17.0
X21.2Y-18.3
X21.983Y-12.616
X22.5Y-15.7
X22.5Y-17.0
X22.5Y-18.3
X22.612Y-5.91
X22.784Y-12.595
X23.1Y-22.621
X23.8Y-15.7
X23.8Y-17.0
X23.8Y-18.3
X24.018Y-21.42
X24.738Y-11.499
X24.95Y-0.95
X24.95Y-4.95
X24.95Y-28.95
X25.16Y-22.563
X25.711Y-12.521
X26.325Y-22.491
X26.838Y-21.755
X27.124Y-16.755
X27.336Y-18.333
X27.716Y-13.638
X27.748Y-20.491
X28.072Y-15.661
X28.319Y-17.745
X28.95Y-0.95
X28.95Y-28.95
X29.035Y-4.8
X29.399Y-21.453
X29.615Y-20.491
X29.77Y-19.545
X30.644Y-25.499
X30.909Y-21.26
X32.95Y-0.95
X32.95Y-16.95
X32.95Y-28.95
X33.448Y-12.018
X36.672Y-12.072
X36.95Y-0.95
X36.95Y-4.95
X36.95Y-24.95
X36.95Y-28.95
X37.41Y-15.751
X40.95Y-8.95
X40.95Y-12.95
X40.95Y-16.95
X40.95Y-20.95
T3
X6.0Y-9.5
X8.54Y-9.5
T4
X3.5Y-3.5
X3.5Y-26.5
X41.5Y-3.5
X41.5Y-26.5
T5
X33.96Y-14.0
X39.04Y-12.984
X39.04Y-15.016
M30
