%TF.GenerationSoftware,KiCad,Pcbnew,10.0.1*%
%TF.CreationDate,2026-09-04T22:04:05-05:00*%
%TF.ProjectId,CHIPDOWNARM,43484950-444f-4574-9e41-524d2e6b6963,rev?*%
%TF.SameCoordinates,Original*%
%TF.FileFunction,Other,User*%
%FSLAX46Y46*%
G04 Gerber Fmt 4.6, Leading zero omitted, Abs format (unit mm)*
G04 Created by KiCad (PCBNEW 10.0.1) date 2026-09-04 22:04:05*
%MOMM*%
%LPD*%
G01*
G04 APERTURE LIST*
%ADD10C,0.050000*%
G04 APERTURE END LIST*
%TO.C,D1*%
D10*
X9020000Y-6070000D02*
X11980000Y-6070000D01*
X11980000Y-7530000D01*
X9020000Y-7530000D01*
X9020000Y-6070000D01*
%TO.C,C24*%
X34040000Y-8090000D02*
X34960000Y-8090000D01*
X34960000Y-9910000D01*
X34040000Y-9910000D01*
X34040000Y-8090000D01*
%TO.C,C19*%
X4590000Y-15040000D02*
X6410000Y-15040000D01*
X6410000Y-15960000D01*
X4590000Y-15960000D01*
X4590000Y-15040000D01*
%TO.C,J3*%
X33000000Y-12000000D02*
X40000000Y-12000000D01*
X33000000Y-16000000D02*
X33000000Y-12000000D01*
X40000000Y-12000000D02*
X40000000Y-16000000D01*
X40000000Y-16000000D02*
X33000000Y-16000000D01*
%TO.C,U2*%
X15620000Y-4370000D02*
X16000000Y-4370000D01*
X15620000Y-6630000D02*
X15620000Y-4370000D01*
X16000000Y-4250000D02*
X18000000Y-4250000D01*
X16000000Y-4370000D02*
X16000000Y-4250000D01*
X16000000Y-6630000D02*
X15620000Y-6630000D01*
X16000000Y-6750000D02*
X16000000Y-6630000D01*
X18000000Y-4250000D02*
X18000000Y-4370000D01*
X18000000Y-4370000D02*
X18380000Y-4370000D01*
X18000000Y-6630000D02*
X18000000Y-6750000D01*
X18000000Y-6750000D02*
X16000000Y-6750000D01*
X18380000Y-4370000D02*
X18380000Y-6630000D01*
X18380000Y-6630000D02*
X18000000Y-6630000D01*
%TO.C,C8*%
X24340000Y-23090000D02*
X25260000Y-23090000D01*
X25260000Y-24910000D01*
X24340000Y-24910000D01*
X24340000Y-23090000D01*
%TO.C,C9*%
X11020000Y-16770000D02*
X13980000Y-16770000D01*
X13980000Y-18230000D01*
X11020000Y-18230000D01*
X11020000Y-16770000D01*
%TO.C,L_M2*%
X31870000Y-3330000D02*
X33730000Y-3330000D01*
X33730000Y-4270000D01*
X31870000Y-4270000D01*
X31870000Y-3330000D01*
%TO.C,R_STOP*%
X14570000Y-8030000D02*
X16430000Y-8030000D01*
X16430000Y-8970000D01*
X14570000Y-8970000D01*
X14570000Y-8030000D01*
%TO.C,C26*%
X34590000Y-24040000D02*
X36410000Y-24040000D01*
X36410000Y-24960000D01*
X34590000Y-24960000D01*
X34590000Y-24040000D01*
%TO.C,R_BOOT0*%
X26030000Y-23070000D02*
X26970000Y-23070000D01*
X26970000Y-24930000D01*
X26030000Y-24930000D01*
X26030000Y-23070000D01*
%TO.C,Y2*%
X6500000Y-13350000D02*
X6500000Y-15650000D01*
X6500000Y-13350000D02*
X10500000Y-13350000D01*
X6500000Y-15650000D02*
X10500000Y-15650000D01*
X10500000Y-13350000D02*
X10500000Y-15650000D01*
%TO.C,R_VDDPA*%
X14070000Y-17030000D02*
X15930000Y-17030000D01*
X15930000Y-17970000D01*
X14070000Y-17970000D01*
X14070000Y-17030000D01*
%TO.C,C13*%
X19540000Y-23090000D02*
X20460000Y-23090000D01*
X20460000Y-24910000D01*
X19540000Y-24910000D01*
X19540000Y-23090000D01*
%TO.C,D3*%
X35530000Y-6570000D02*
X36470000Y-6570000D01*
X36470000Y-8430000D01*
X35530000Y-8430000D01*
X35530000Y-6570000D01*
%TO.C,R_PULL_SDA*%
X29070000Y-26030000D02*
X30930000Y-26030000D01*
X30930000Y-26970000D01*
X29070000Y-26970000D01*
X29070000Y-26030000D01*
%TO.C,F1*%
X8820000Y-2850000D02*
X12180000Y-2850000D01*
X12180000Y-4750000D01*
X8820000Y-4750000D01*
X8820000Y-2850000D01*
%TO.C,C3*%
X22020000Y-3270000D02*
X24980000Y-3270000D01*
X24980000Y-4730000D01*
X22020000Y-4730000D01*
X22020000Y-3270000D01*
%TO.C,L1*%
X19650000Y-3750000D02*
X21350000Y-3750000D01*
X21350000Y-7250000D01*
X19650000Y-7250000D01*
X19650000Y-3750000D01*
%TO.C,C2*%
X12520000Y-6070000D02*
X15480000Y-6070000D01*
X15480000Y-7530000D01*
X12520000Y-7530000D01*
X12520000Y-6070000D01*
%TO.C,FB1*%
X20530000Y-9570000D02*
X21470000Y-9570000D01*
X21470000Y-11430000D01*
X20530000Y-11430000D01*
X20530000Y-9570000D01*
%TO.C,L_CHOKE*%
X26530000Y-2870000D02*
X27470000Y-2870000D01*
X27470000Y-4730000D01*
X26530000Y-4730000D01*
X26530000Y-2870000D01*
%TO.C,C4*%
X22020000Y-6270000D02*
X24980000Y-6270000D01*
X24980000Y-7730000D01*
X22020000Y-7730000D01*
X22020000Y-6270000D01*
%TO.C,C20*%
X22040000Y-9590000D02*
X22960000Y-9590000D01*
X22960000Y-11410000D01*
X22040000Y-11410000D01*
X22040000Y-9590000D01*
%TO.C,C25*%
X37590000Y-19040000D02*
X39410000Y-19040000D01*
X39410000Y-19960000D01*
X37590000Y-19960000D01*
X37590000Y-19040000D01*
%TO.C,C18*%
X4590000Y-13040000D02*
X6410000Y-13040000D01*
X6410000Y-13960000D01*
X4590000Y-13960000D01*
X4590000Y-13040000D01*
%TO.C,J2*%
X38100000Y-2000000D02*
X38300000Y-2000000D01*
X38300000Y-5600000D01*
X38100000Y-5600000D01*
X38100000Y-6300000D01*
X34900000Y-6300000D01*
X34900000Y-5600000D01*
X34700000Y-5600000D01*
X34700000Y-4800000D01*
X33950000Y-4800000D01*
X33950000Y-2800000D01*
X34700000Y-2800000D01*
X34700000Y-2000000D01*
X34900000Y-2000000D01*
X34900000Y-1300000D01*
X38100000Y-1300000D01*
X38100000Y-2000000D01*
%TO.C,Y1*%
X34000000Y-18200000D02*
X37000000Y-18200000D01*
X37000000Y-20800000D01*
X34000000Y-20800000D01*
X34000000Y-18200000D01*
%TO.C,C11*%
X11590000Y-19040000D02*
X13410000Y-19040000D01*
X13410000Y-19960000D01*
X11590000Y-19960000D01*
X11590000Y-19040000D01*
%TO.C,C_M2*%
X32340000Y-5290000D02*
X33260000Y-5290000D01*
X33260000Y-7110000D01*
X32340000Y-7110000D01*
X32340000Y-5290000D01*
%TO.C,C17*%
X19040000Y-9590000D02*
X19960000Y-9590000D01*
X19960000Y-11410000D01*
X19040000Y-11410000D01*
X19040000Y-9590000D01*
%TO.C,C5*%
X14090000Y-13040000D02*
X15910000Y-13040000D01*
X15910000Y-13960000D01*
X14090000Y-13960000D01*
X14090000Y-13040000D01*
%TO.C,R_SET*%
X16570000Y-8030000D02*
X18430000Y-8030000D01*
X18430000Y-8970000D01*
X16570000Y-8970000D01*
X16570000Y-8030000D01*
%TO.C,D2*%
X16020000Y-25770000D02*
X18980000Y-25770000D01*
X18980000Y-27230000D01*
X16020000Y-27230000D01*
X16020000Y-25770000D01*
%TO.C,C16*%
X30540000Y-9590000D02*
X31460000Y-9590000D01*
X31460000Y-11410000D01*
X30540000Y-11410000D01*
X30540000Y-9590000D01*
%TO.C,R_VDDRF*%
X18030000Y-23070000D02*
X18970000Y-23070000D01*
X18970000Y-24930000D01*
X18030000Y-24930000D01*
X18030000Y-23070000D01*
%TO.C,C14*%
X21040000Y-23090000D02*
X21960000Y-23090000D01*
X21960000Y-24910000D01*
X21040000Y-24910000D01*
X21040000Y-23090000D01*
%TO.C,R_PULL_SCL*%
X29070000Y-24030000D02*
X30930000Y-24030000D01*
X30930000Y-24970000D01*
X29070000Y-24970000D01*
X29070000Y-24030000D01*
%TO.C,C_M1*%
X30340000Y-5290000D02*
X31260000Y-5290000D01*
X31260000Y-7110000D01*
X30340000Y-7110000D01*
X30340000Y-5290000D01*
%TO.C,C22*%
X17540000Y-9590000D02*
X18460000Y-9590000D01*
X18460000Y-11410000D01*
X17540000Y-11410000D01*
X17540000Y-9590000D01*
%TO.C,R_LED*%
X19270000Y-26030000D02*
X21130000Y-26030000D01*
X21130000Y-26970000D01*
X19270000Y-26970000D01*
X19270000Y-26030000D01*
%TO.C,C1*%
X12520000Y-3070000D02*
X15480000Y-3070000D01*
X15480000Y-4530000D01*
X12520000Y-4530000D01*
X12520000Y-3070000D01*
%TO.C,C15*%
X28770000Y-9020000D02*
X30230000Y-9020000D01*
X30230000Y-11980000D01*
X28770000Y-11980000D01*
X28770000Y-9020000D01*
%TO.C,L_SMPS*%
X24750000Y-9650000D02*
X28250000Y-9650000D01*
X28250000Y-11350000D01*
X24750000Y-11350000D01*
X24750000Y-9650000D01*
%TO.C,U3*%
X31550000Y-23250000D02*
X31550000Y-25750000D01*
X31550000Y-25750000D02*
X34450000Y-25750000D01*
X34450000Y-23250000D02*
X31550000Y-23250000D01*
X34450000Y-25750000D02*
X34450000Y-23250000D01*
%TO.C,C12*%
X31090000Y-20040000D02*
X32910000Y-20040000D01*
X32910000Y-20960000D01*
X31090000Y-20960000D01*
X31090000Y-20040000D01*
%TO.C,C21*%
X23540000Y-9590000D02*
X24460000Y-9590000D01*
X24460000Y-11410000D01*
X23540000Y-11410000D01*
X23540000Y-9590000D01*
%TO.C,R_TCXO*%
X31070000Y-18030000D02*
X32930000Y-18030000D01*
X32930000Y-18970000D01*
X31070000Y-18970000D01*
X31070000Y-18030000D01*
%TO.C,C10*%
X14090000Y-19040000D02*
X15910000Y-19040000D01*
X15910000Y-19960000D01*
X14090000Y-19960000D01*
X14090000Y-19040000D01*
%TO.C,C23*%
X32270000Y-7520000D02*
X33730000Y-7520000D01*
X33730000Y-10480000D01*
X32270000Y-10480000D01*
X32270000Y-7520000D01*
%TO.C,C7*%
X22740000Y-23090000D02*
X23660000Y-23090000D01*
X23660000Y-24910000D01*
X22740000Y-24910000D01*
X22740000Y-23090000D01*
%TO.C,C6*%
X14090000Y-15040000D02*
X15910000Y-15040000D01*
X15910000Y-15960000D01*
X14090000Y-15960000D01*
X14090000Y-15040000D01*
%TO.C,C_DC*%
X27890000Y-3340000D02*
X29710000Y-3340000D01*
X29710000Y-4260000D01*
X27890000Y-4260000D01*
X27890000Y-3340000D01*
%TO.C,J1*%
X4230000Y-7730000D02*
X10320000Y-7730000D01*
X10320000Y-11270000D01*
X4230000Y-11270000D01*
X4230000Y-7730000D01*
%TO.C,U1*%
X18370000Y-13870000D02*
X18750000Y-13870000D01*
X18370000Y-20130000D02*
X18370000Y-13870000D01*
X18750000Y-13250000D02*
X19370000Y-13250000D01*
X18750000Y-13870000D02*
X18750000Y-13250000D01*
X18750000Y-20130000D02*
X18370000Y-20130000D01*
X18750000Y-20750000D02*
X18750000Y-20130000D01*
X19370000Y-12870000D02*
X25630000Y-12870000D01*
X19370000Y-13250000D02*
X19370000Y-12870000D01*
X19370000Y-20750000D02*
X18750000Y-20750000D01*
X19370000Y-21130000D02*
X19370000Y-20750000D01*
X25630000Y-12870000D02*
X25630000Y-13250000D01*
X25630000Y-13250000D02*
X26250000Y-13250000D01*
X25630000Y-20750000D02*
X25630000Y-21130000D01*
X25630000Y-21130000D02*
X19370000Y-21130000D01*
X26250000Y-13250000D02*
X26250000Y-13870000D01*
X26250000Y-13870000D02*
X26630000Y-13870000D01*
X26250000Y-20130000D02*
X26250000Y-20750000D01*
X26250000Y-20750000D02*
X25630000Y-20750000D01*
X26630000Y-13870000D02*
X26630000Y-20130000D01*
X26630000Y-20130000D02*
X26250000Y-20130000D01*
%TO.C,L_M1*%
X29870000Y-3330000D02*
X31730000Y-3330000D01*
X31730000Y-4270000D01*
X29870000Y-4270000D01*
X29870000Y-3330000D01*
%TD*%
M02*
