%TF.GenerationSoftware,KiCad,Pcbnew,10.0.1*%
%TF.CreationDate,2026-09-04T22:04:05-05:00*%
%TF.ProjectId,CHIPDOWNARM,43484950-444f-4574-9e41-524d2e6b6963,rev?*%
%TF.SameCoordinates,Original*%
%TF.FileFunction,Copper,L4,Bot*%
%TF.FilePolarity,Positive*%
%FSLAX46Y46*%
G04 Gerber Fmt 4.6, Leading zero omitted, Abs format (unit mm)*
G04 Created by KiCad (PCBNEW 10.0.1) date 2026-09-04 22:04:05*
%MOMM*%
%LPD*%
G01*
G04 APERTURE LIST*
%TA.AperFunction,ComponentPad*%
%ADD10C,6.000000*%
%TD*%
%TA.AperFunction,ComponentPad*%
%ADD11R,1.700000X1.700000*%
%TD*%
%TA.AperFunction,ComponentPad*%
%ADD12C,1.700000*%
%TD*%
%TA.AperFunction,ViaPad*%
%ADD13C,0.500000*%
%TD*%
%TA.AperFunction,ViaPad*%
%ADD14C,0.450000*%
%TD*%
%TA.AperFunction,ViaPad*%
%ADD15C,0.600000*%
%TD*%
%TA.AperFunction,Conductor*%
%ADD16C,0.200000*%
%TD*%
G04 APERTURE END LIST*
D10*
%TO.P,MH4,1*%
%TO.N,N/C*%
X41500000Y-26500000D03*
%TD*%
%TO.P,MH3,1*%
%TO.N,N/C*%
X3500000Y-26500000D03*
%TD*%
%TO.P,MH1,1*%
%TO.N,N/C*%
X3500000Y-3500000D03*
%TD*%
%TO.P,MH2,1*%
%TO.N,N/C*%
X41500000Y-3500000D03*
%TD*%
D11*
%TO.P,J1,1*%
%TO.N,VBAT_RAW*%
X6000000Y-9500000D03*
D12*
%TO.P,J1,2*%
%TO.N,GND*%
X8540000Y-9500000D03*
%TD*%
D13*
%TO.N,GND*%
X4950000Y-20950000D03*
D14*
X37870000Y-14630000D03*
D13*
X950000Y-20950000D03*
D15*
X23800000Y-18300000D03*
D13*
X12950000Y-20950000D03*
X16950000Y-16950000D03*
D14*
X29500000Y-9720000D03*
D13*
X12950000Y-12950000D03*
X24950000Y-4950000D03*
D15*
X21200000Y-18300000D03*
D13*
X16950000Y-24950000D03*
D14*
X15180000Y-13500000D03*
D13*
X8950000Y-28950000D03*
X32950000Y-28950000D03*
D14*
X20000000Y-23520000D03*
D15*
X22500000Y-15700000D03*
D14*
X18010000Y-8500000D03*
X24000000Y-10020000D03*
D13*
X40950000Y-16950000D03*
D14*
X36650000Y-16750000D03*
X22500000Y-10020000D03*
D13*
X40950000Y-8950000D03*
X8950000Y-12950000D03*
D15*
X23800000Y-17000000D03*
D13*
X36950000Y-950000D03*
X8950000Y-24950000D03*
X12950000Y-8950000D03*
X4950000Y-16950000D03*
X8950000Y-20950000D03*
D14*
X15180000Y-15500000D03*
X21500000Y-23520000D03*
D15*
X22500000Y-17000000D03*
D13*
X8950000Y-16950000D03*
D14*
X27000000Y-9450000D03*
X23200000Y-23520000D03*
X16270000Y-4750000D03*
D13*
X40950000Y-12950000D03*
X24950000Y-950000D03*
X28950000Y-28950000D03*
X950000Y-16950000D03*
D14*
X26500000Y-23710000D03*
D13*
X24950000Y-28950000D03*
D14*
X31000000Y-10020000D03*
D13*
X40950000Y-20950000D03*
D14*
X19100000Y-5800000D03*
D13*
X12950000Y-28950000D03*
X36950000Y-4950000D03*
X8950000Y-8950000D03*
X950000Y-12950000D03*
X32950000Y-950000D03*
D14*
X36200000Y-20110000D03*
D13*
X16950000Y-12950000D03*
D15*
X21200000Y-17000000D03*
D13*
X950000Y-8950000D03*
X12950000Y-950000D03*
D14*
X24960000Y-23720000D03*
D15*
X21200000Y-15700000D03*
X23800000Y-15700000D03*
D14*
X14780000Y-3800000D03*
D13*
X36950000Y-28950000D03*
X16950000Y-950000D03*
X36950000Y-24950000D03*
X28950000Y-950000D03*
X16950000Y-28950000D03*
X12950000Y-24950000D03*
X20950000Y-28950000D03*
D15*
X22500000Y-18300000D03*
D13*
X8950000Y-950000D03*
D14*
X12600000Y-17500000D03*
D13*
X20950000Y-950000D03*
X32950000Y-16950000D03*
%TO.N,+3V0*%
X21000000Y-10985000D03*
D14*
X21750000Y-13562500D03*
D15*
%TO.N,OSC32_OUT*%
X24738200Y-11499300D03*
X16301100Y-15411300D03*
%TO.N,NRST*%
X23099700Y-22621400D03*
X37409900Y-15750600D03*
X12612500Y-14999700D03*
%TO.N,SWCLK*%
X33447800Y-12018100D03*
X22784400Y-12594700D03*
%TO.N,SWO*%
X36671900Y-12072500D03*
X18599200Y-13339800D03*
%TO.N,VR_PA*%
X18773200Y-20918100D03*
X22612400Y-5910500D03*
%TO.N,VDDPA_RAIL*%
X27747900Y-20490700D03*
X26324500Y-22491500D03*
%TO.N,BOOT0*%
X25160400Y-22562700D03*
X27123600Y-16754700D03*
%TO.N,OSC32_IN*%
X25711300Y-12521100D03*
X16777800Y-14754000D03*
%TO.N,RF_PA_OUT*%
X29398700Y-21453400D03*
X30909400Y-21259900D03*
X24018400Y-21420000D03*
X29034700Y-4800500D03*
%TO.N,LED_STATUS*%
X20387700Y-22409200D03*
X18316900Y-22617200D03*
X18262500Y-28472200D03*
X16707500Y-17965700D03*
%TO.N,V1V55_SMPS*%
X27336300Y-18333400D03*
X21982600Y-12615600D03*
X27716500Y-13638300D03*
%TO.N,I2C1_SCL*%
X28071800Y-15661200D03*
X30643700Y-25498800D03*
%TO.N,VLX_SMPS*%
X21100600Y-9212900D03*
X19925700Y-12058600D03*
%TO.N,HSE_IN*%
X29614800Y-20490700D03*
X26837800Y-21755500D03*
%TO.N,VDD_TCXO_CTRL*%
X28318700Y-17745200D03*
X29769900Y-19544600D03*
%TD*%
%TO.N,OSC32_OUT*%
D16*
X22063600Y-11499300D02*
X18151600Y-15411300D01*
X18151600Y-15411300D02*
X16301100Y-15411300D01*
X24738200Y-11499300D02*
X22063600Y-11499300D01*
%TO.N,NRST*%
X12612500Y-16062000D02*
X12612500Y-14999700D01*
X19561500Y-23010900D02*
X12612600Y-16062000D01*
X37409900Y-19584300D02*
X37409900Y-15750600D01*
X23099700Y-22621400D02*
X26609500Y-26131200D01*
X26609500Y-26131200D02*
X30863000Y-26131200D01*
X22710200Y-23010900D02*
X19561500Y-23010900D01*
X12612600Y-16062000D02*
X12612500Y-16062000D01*
X23099700Y-22621400D02*
X22710200Y-23010900D01*
X30863000Y-26131200D02*
X37409900Y-19584300D01*
%TO.N,SWCLK*%
X22784400Y-12594700D02*
X23312600Y-13122900D01*
X27325000Y-13122900D02*
X28429800Y-12018100D01*
X28429800Y-12018100D02*
X33447800Y-12018100D01*
X23312600Y-13122900D02*
X27325000Y-13122900D01*
%TO.N,SWO*%
X18599200Y-10842900D02*
X20851000Y-8591100D01*
X33190500Y-8591100D02*
X36671900Y-12072500D01*
X20851000Y-8591100D02*
X33190500Y-8591100D01*
X18599200Y-13339800D02*
X18599200Y-10842900D01*
%TO.N,VR_PA*%
X15655800Y-12867100D02*
X15655800Y-17800700D01*
X15655800Y-17800700D02*
X18773200Y-20918100D01*
X22612400Y-5910500D02*
X15655800Y-12867100D01*
%TO.N,VDDPA_RAIL*%
X27747900Y-20490700D02*
X27251800Y-20490700D01*
X26236100Y-22403100D02*
X26324500Y-22491500D01*
X26236100Y-21506400D02*
X26236100Y-22403100D01*
X27251800Y-20490700D02*
X26236100Y-21506400D01*
%TO.N,BOOT0*%
X27123600Y-16754700D02*
X25160400Y-18717900D01*
X25160400Y-18717900D02*
X25160400Y-22562700D01*
%TO.N,OSC32_IN*%
X22039700Y-10868600D02*
X18154300Y-14754000D01*
X24958600Y-10868600D02*
X22039700Y-10868600D01*
X18154300Y-14754000D02*
X16777800Y-14754000D01*
X25711300Y-11621300D02*
X24958600Y-10868600D01*
X25711300Y-12521100D02*
X25711300Y-11621300D01*
%TO.N,RF_PA_OUT*%
X37275800Y-14893500D02*
X37275800Y-11744700D01*
X24018400Y-21420000D02*
X24018400Y-22271800D01*
X27675300Y-23176800D02*
X29398700Y-21453400D01*
X24018400Y-22271800D02*
X24923400Y-23176800D01*
X24923400Y-23176800D02*
X27675300Y-23176800D01*
X30909400Y-21259900D02*
X37275800Y-14893500D01*
X30331600Y-4800500D02*
X29034700Y-4800500D01*
X37275800Y-11744700D02*
X30331600Y-4800500D01*
%TO.N,LED_STATUS*%
X18316900Y-28417800D02*
X18262500Y-28472200D01*
X16707500Y-17965700D02*
X20387700Y-21645900D01*
X18316900Y-22617200D02*
X18316900Y-28417800D01*
X20387700Y-21645900D02*
X20387700Y-22409200D01*
%TO.N,V1V55_SMPS*%
X27716500Y-13638300D02*
X27470100Y-13884700D01*
X27792000Y-16232200D02*
X27792000Y-17421100D01*
X27336300Y-17876800D02*
X27336300Y-18333400D01*
X23135900Y-13884700D02*
X21982600Y-12731400D01*
X27470100Y-13884700D02*
X27470100Y-15910300D01*
X21982600Y-12731400D02*
X21982600Y-12615600D01*
X27470100Y-13884700D02*
X23135900Y-13884700D01*
X27792000Y-17421100D02*
X27336300Y-17876800D01*
X27470100Y-15910300D02*
X27792000Y-16232200D01*
%TO.N,I2C1_SCL*%
X30307700Y-21010800D02*
X30307700Y-25162800D01*
X30307700Y-25162800D02*
X30643700Y-25498800D01*
X28071800Y-15661200D02*
X30643700Y-18233100D01*
X30643700Y-20674800D02*
X30307700Y-21010800D01*
X30643700Y-18233100D02*
X30643700Y-20674800D01*
%TO.N,VLX_SMPS*%
X19925700Y-10387800D02*
X19925700Y-12058600D01*
X21100600Y-9212900D02*
X19925700Y-10387800D01*
%TO.N,HSE_IN*%
X29510600Y-20490700D02*
X28245800Y-21755500D01*
X28245800Y-21755500D02*
X26837800Y-21755500D01*
X29614800Y-20490700D02*
X29510600Y-20490700D01*
%TO.N,VDD_TCXO_CTRL*%
X28318700Y-18093400D02*
X28318700Y-17745200D01*
X29769900Y-19544600D02*
X28318700Y-18093400D01*
%TD*%
%TA.AperFunction,Conductor*%
%TO.N,GND*%
G36*
X21460426Y-12632096D02*
G01*
X21479028Y-12677006D01*
X21481467Y-12676685D01*
X21482100Y-12681494D01*
X21516206Y-12808781D01*
X21516210Y-12808790D01*
X21582100Y-12922914D01*
X21675287Y-13016101D01*
X21677852Y-13018069D01*
X21678667Y-13019481D01*
X21678716Y-13019530D01*
X21678703Y-13019542D01*
X21706174Y-13067116D01*
X21691519Y-13121824D01*
X21651962Y-13148258D01*
X21585765Y-13165996D01*
X21585758Y-13165999D01*
X21488736Y-13222015D01*
X21409515Y-13301236D01*
X21353499Y-13398258D01*
X21353495Y-13398267D01*
X21324500Y-13506479D01*
X21324500Y-13618520D01*
X21353495Y-13726732D01*
X21353499Y-13726741D01*
X21394085Y-13797038D01*
X21409515Y-13823763D01*
X21488737Y-13902985D01*
X21585763Y-13959003D01*
X21693979Y-13987999D01*
X21693980Y-13988000D01*
X21693982Y-13988000D01*
X21806020Y-13988000D01*
X21806020Y-13987999D01*
X21914237Y-13959003D01*
X22011263Y-13902985D01*
X22090485Y-13823763D01*
X22146503Y-13726737D01*
X22175499Y-13618520D01*
X22175500Y-13618520D01*
X22175500Y-13527922D01*
X22197174Y-13475596D01*
X22249500Y-13453922D01*
X22301824Y-13475595D01*
X22951389Y-14125160D01*
X23019912Y-14164722D01*
X23096338Y-14185200D01*
X27095600Y-14185200D01*
X27147926Y-14206874D01*
X27169600Y-14259200D01*
X27169600Y-15949864D01*
X27190078Y-16026288D01*
X27218837Y-16076101D01*
X27229636Y-16094805D01*
X27229636Y-16094806D01*
X27229638Y-16094808D01*
X27229640Y-16094811D01*
X27266782Y-16131953D01*
X27288456Y-16184278D01*
X27266782Y-16236604D01*
X27214456Y-16258278D01*
X27195306Y-16255757D01*
X27189494Y-16254200D01*
X27189492Y-16254200D01*
X27057708Y-16254200D01*
X27057706Y-16254200D01*
X26930418Y-16288306D01*
X26930409Y-16288310D01*
X26816285Y-16354200D01*
X26723100Y-16447385D01*
X26657210Y-16561509D01*
X26657206Y-16561518D01*
X26623100Y-16688805D01*
X26623100Y-16799576D01*
X26601426Y-16851902D01*
X24975889Y-18477440D01*
X24919940Y-18533388D01*
X24880379Y-18601909D01*
X24880377Y-18601914D01*
X24859900Y-18678335D01*
X24859900Y-22124734D01*
X24838226Y-22177060D01*
X24759900Y-22255385D01*
X24694008Y-22369512D01*
X24692153Y-22373993D01*
X24689747Y-22372996D01*
X24660364Y-22411262D01*
X24604208Y-22418635D01*
X24571060Y-22399489D01*
X24340574Y-22169003D01*
X24318900Y-22116677D01*
X24318900Y-21857966D01*
X24340574Y-21805640D01*
X24375843Y-21770371D01*
X24418900Y-21727314D01*
X24484792Y-21613186D01*
X24518899Y-21485894D01*
X24518900Y-21485894D01*
X24518900Y-21354106D01*
X24518899Y-21354105D01*
X24500006Y-21283596D01*
X24484792Y-21226814D01*
X24418900Y-21112686D01*
X24325714Y-21019500D01*
X24276697Y-20991200D01*
X24211590Y-20953610D01*
X24211581Y-20953606D01*
X24084294Y-20919500D01*
X24084292Y-20919500D01*
X23952508Y-20919500D01*
X23952506Y-20919500D01*
X23825218Y-20953606D01*
X23825209Y-20953610D01*
X23711085Y-21019500D01*
X23617900Y-21112685D01*
X23552010Y-21226809D01*
X23552006Y-21226818D01*
X23517900Y-21354105D01*
X23517900Y-21485894D01*
X23552006Y-21613181D01*
X23552010Y-21613190D01*
X23617900Y-21727314D01*
X23696226Y-21805640D01*
X23717900Y-21857966D01*
X23717900Y-22311364D01*
X23738377Y-22387785D01*
X23738379Y-22387790D01*
X23759293Y-22424014D01*
X23764302Y-22432689D01*
X23777940Y-22456311D01*
X24682940Y-23361311D01*
X24738889Y-23417260D01*
X24807411Y-23456821D01*
X24807412Y-23456821D01*
X24807414Y-23456822D01*
X24845624Y-23467060D01*
X24883835Y-23477299D01*
X24883836Y-23477300D01*
X24883838Y-23477300D01*
X27714864Y-23477300D01*
X27714864Y-23477299D01*
X27791289Y-23456821D01*
X27859811Y-23417260D01*
X27915760Y-23361311D01*
X29301496Y-21975573D01*
X29353822Y-21953900D01*
X29464594Y-21953900D01*
X29464594Y-21953899D01*
X29591886Y-21919792D01*
X29706014Y-21853900D01*
X29799200Y-21760714D01*
X29865092Y-21646586D01*
X29865091Y-21646586D01*
X29867517Y-21642386D01*
X29868876Y-21643171D01*
X29904872Y-21607166D01*
X29961509Y-21607158D01*
X30001563Y-21647201D01*
X30007200Y-21675529D01*
X30007200Y-25202364D01*
X30027677Y-25278785D01*
X30027679Y-25278790D01*
X30039820Y-25299819D01*
X30048175Y-25314289D01*
X30067240Y-25347311D01*
X30123961Y-25404032D01*
X30126162Y-25406686D01*
X30133581Y-25430701D01*
X30143200Y-25453923D01*
X30143200Y-25564694D01*
X30177306Y-25691981D01*
X30177311Y-25691992D01*
X30193308Y-25719699D01*
X30200702Y-25775852D01*
X30166224Y-25820785D01*
X30129223Y-25830700D01*
X26764623Y-25830700D01*
X26712297Y-25809026D01*
X23621874Y-22718603D01*
X23600200Y-22666277D01*
X23600200Y-22555506D01*
X23600199Y-22555505D01*
X23599074Y-22551308D01*
X23566092Y-22428214D01*
X23500200Y-22314086D01*
X23407014Y-22220900D01*
X23340202Y-22182326D01*
X23292890Y-22155010D01*
X23292881Y-22155006D01*
X23165594Y-22120900D01*
X23165592Y-22120900D01*
X23033808Y-22120900D01*
X23033806Y-22120900D01*
X22906518Y-22155006D01*
X22906509Y-22155010D01*
X22792385Y-22220900D01*
X22699200Y-22314085D01*
X22633310Y-22428209D01*
X22633306Y-22428218D01*
X22599200Y-22555505D01*
X22599200Y-22636400D01*
X22577526Y-22688726D01*
X22525200Y-22710400D01*
X20919902Y-22710400D01*
X20867576Y-22688726D01*
X20845902Y-22636400D01*
X20853656Y-22607460D01*
X20852234Y-22606871D01*
X20854088Y-22602392D01*
X20854092Y-22602386D01*
X20888199Y-22475094D01*
X20888200Y-22475094D01*
X20888200Y-22343306D01*
X20888199Y-22343305D01*
X20864641Y-22255386D01*
X20854092Y-22216014D01*
X20788200Y-22101886D01*
X20709874Y-22023560D01*
X20688200Y-21971234D01*
X20688200Y-21606338D01*
X20674615Y-21555637D01*
X20674615Y-21555636D01*
X20671857Y-21545347D01*
X20667722Y-21529912D01*
X20631306Y-21466838D01*
X20628162Y-21461392D01*
X20628161Y-21461391D01*
X20628160Y-21461389D01*
X17229674Y-18062903D01*
X17208000Y-18010577D01*
X17208000Y-17899806D01*
X17207999Y-17899805D01*
X17194578Y-17849718D01*
X17173892Y-17772514D01*
X17108000Y-17658386D01*
X17014814Y-17565200D01*
X16991967Y-17552009D01*
X16900690Y-17499310D01*
X16900681Y-17499306D01*
X16773394Y-17465200D01*
X16773392Y-17465200D01*
X16641608Y-17465200D01*
X16641606Y-17465200D01*
X16514318Y-17499306D01*
X16514309Y-17499310D01*
X16400185Y-17565200D01*
X16307000Y-17658385D01*
X16241110Y-17772509D01*
X16241107Y-17772517D01*
X16234441Y-17797394D01*
X16199962Y-17842327D01*
X16143809Y-17849718D01*
X16110637Y-17830566D01*
X15977974Y-17697903D01*
X15956300Y-17645577D01*
X15956300Y-15918329D01*
X15977974Y-15866003D01*
X16030300Y-15844329D01*
X16067300Y-15854243D01*
X16107914Y-15877692D01*
X16235205Y-15911799D01*
X16235206Y-15911800D01*
X16235208Y-15911800D01*
X16366994Y-15911800D01*
X16366994Y-15911799D01*
X16494286Y-15877692D01*
X16608414Y-15811800D01*
X16686740Y-15733474D01*
X16739066Y-15711800D01*
X18191164Y-15711800D01*
X18191164Y-15711799D01*
X18267589Y-15691321D01*
X18336111Y-15651760D01*
X18392060Y-15595811D01*
X21355774Y-12632095D01*
X21408100Y-12610422D01*
X21460426Y-12632096D01*
G37*
%TD.AperFunction*%
%TA.AperFunction,Conductor*%
G36*
X36895605Y-15803317D02*
G01*
X36914757Y-15836490D01*
X36943506Y-15943781D01*
X36943510Y-15943790D01*
X37009400Y-16057914D01*
X37087726Y-16136240D01*
X37109400Y-16188566D01*
X37109400Y-19429176D01*
X37087726Y-19481502D01*
X31233165Y-25336062D01*
X31180839Y-25357736D01*
X31128513Y-25336062D01*
X31113222Y-25309565D01*
X31111947Y-25310094D01*
X31110093Y-25305618D01*
X31110092Y-25305614D01*
X31044200Y-25191486D01*
X30951014Y-25098300D01*
X30836890Y-25032410D01*
X30836881Y-25032406D01*
X30709594Y-24998300D01*
X30709592Y-24998300D01*
X30682200Y-24998300D01*
X30629874Y-24976626D01*
X30608200Y-24924300D01*
X30608200Y-21792102D01*
X30629874Y-21739776D01*
X30682200Y-21718102D01*
X30711141Y-21725857D01*
X30711731Y-21724435D01*
X30716210Y-21726290D01*
X30716211Y-21726290D01*
X30716214Y-21726292D01*
X30843508Y-21760400D01*
X30843509Y-21760400D01*
X30975294Y-21760400D01*
X30975294Y-21760399D01*
X31102586Y-21726292D01*
X31216714Y-21660400D01*
X31309900Y-21567214D01*
X31375792Y-21453086D01*
X31409899Y-21325794D01*
X31409900Y-21325794D01*
X31409900Y-21215022D01*
X31431574Y-21162696D01*
X34130107Y-18464163D01*
X36790954Y-15803316D01*
X36843279Y-15781643D01*
X36895605Y-15803317D01*
G37*
%TD.AperFunction*%
%TA.AperFunction,Conductor*%
G36*
X33087703Y-8913274D02*
G01*
X36149726Y-11975297D01*
X36171400Y-12027623D01*
X36171400Y-12138394D01*
X36205506Y-12265681D01*
X36205510Y-12265690D01*
X36263375Y-12365914D01*
X36271400Y-12379814D01*
X36364586Y-12473000D01*
X36478714Y-12538892D01*
X36606005Y-12572999D01*
X36606006Y-12573000D01*
X36606008Y-12573000D01*
X36737791Y-12573000D01*
X36737792Y-12573000D01*
X36865086Y-12538892D01*
X36865090Y-12538889D01*
X36869569Y-12537035D01*
X36870205Y-12538572D01*
X36920438Y-12531949D01*
X36965378Y-12566418D01*
X36975300Y-12603431D01*
X36975300Y-14738376D01*
X36953626Y-14790702D01*
X31070526Y-20673802D01*
X31018200Y-20695476D01*
X30965874Y-20673802D01*
X30944200Y-20621476D01*
X30944200Y-18193536D01*
X30944199Y-18193535D01*
X30923722Y-18117114D01*
X30923720Y-18117109D01*
X30891164Y-18060721D01*
X30884160Y-18048589D01*
X30828211Y-17992640D01*
X28593974Y-15758403D01*
X28572300Y-15706077D01*
X28572300Y-15595306D01*
X28572299Y-15595305D01*
X28562147Y-15557418D01*
X28538192Y-15468014D01*
X28472300Y-15353886D01*
X28379114Y-15260700D01*
X28306820Y-15218961D01*
X28264990Y-15194810D01*
X28264981Y-15194806D01*
X28137694Y-15160700D01*
X28137692Y-15160700D01*
X28005908Y-15160700D01*
X28005906Y-15160700D01*
X27878618Y-15194806D01*
X27874129Y-15196666D01*
X27873112Y-15194211D01*
X27825407Y-15200465D01*
X27780493Y-15165961D01*
X27770600Y-15128997D01*
X27770600Y-14198742D01*
X27792274Y-14146416D01*
X27825447Y-14127264D01*
X27873107Y-14114493D01*
X27909686Y-14104692D01*
X28023814Y-14038800D01*
X28117000Y-13945614D01*
X28125166Y-13931470D01*
X33264200Y-13931470D01*
X33264200Y-14068529D01*
X33290937Y-14202950D01*
X33290940Y-14202961D01*
X33343387Y-14329580D01*
X33343389Y-14329583D01*
X33343390Y-14329585D01*
X33419537Y-14443547D01*
X33516453Y-14540463D01*
X33630415Y-14616610D01*
X33630420Y-14616612D01*
X33630419Y-14616612D01*
X33757038Y-14669059D01*
X33757043Y-14669061D01*
X33891470Y-14695800D01*
X33891471Y-14695800D01*
X34028529Y-14695800D01*
X34028530Y-14695800D01*
X34162957Y-14669061D01*
X34289585Y-14616610D01*
X34403547Y-14540463D01*
X34500463Y-14443547D01*
X34576610Y-14329585D01*
X34629061Y-14202957D01*
X34655800Y-14068530D01*
X34655800Y-13931470D01*
X34629061Y-13797043D01*
X34599941Y-13726741D01*
X34576612Y-13670419D01*
X34576611Y-13670417D01*
X34576610Y-13670415D01*
X34500463Y-13556453D01*
X34403547Y-13459537D01*
X34381967Y-13445118D01*
X34355672Y-13427548D01*
X34289585Y-13383390D01*
X34289581Y-13383388D01*
X34289579Y-13383387D01*
X34289580Y-13383387D01*
X34162961Y-13330940D01*
X34162950Y-13330937D01*
X34061680Y-13310793D01*
X34028530Y-13304200D01*
X33891470Y-13304200D01*
X33864877Y-13309489D01*
X33757049Y-13330937D01*
X33757038Y-13330940D01*
X33630419Y-13383387D01*
X33516453Y-13459536D01*
X33516452Y-13459538D01*
X33419538Y-13556452D01*
X33419536Y-13556453D01*
X33343387Y-13670419D01*
X33290940Y-13797038D01*
X33290937Y-13797049D01*
X33264200Y-13931470D01*
X28125166Y-13931470D01*
X28182892Y-13831486D01*
X28216999Y-13704194D01*
X28217000Y-13704194D01*
X28217000Y-13572406D01*
X28216999Y-13572405D01*
X28212724Y-13556452D01*
X28182892Y-13445114D01*
X28117000Y-13330986D01*
X28023814Y-13237800D01*
X27996474Y-13222015D01*
X27909690Y-13171910D01*
X27909687Y-13171909D01*
X27909686Y-13171908D01*
X27909684Y-13171907D01*
X27909683Y-13171907D01*
X27868874Y-13160972D01*
X27823942Y-13126493D01*
X27816550Y-13070340D01*
X27835700Y-13037170D01*
X28532597Y-12340274D01*
X28584923Y-12318600D01*
X33009834Y-12318600D01*
X33062160Y-12340274D01*
X33140486Y-12418600D01*
X33254614Y-12484492D01*
X33381905Y-12518599D01*
X33381906Y-12518600D01*
X33381908Y-12518600D01*
X33513694Y-12518600D01*
X33513694Y-12518599D01*
X33640986Y-12484492D01*
X33755114Y-12418600D01*
X33848300Y-12325414D01*
X33914192Y-12211286D01*
X33948299Y-12083994D01*
X33948300Y-12083994D01*
X33948300Y-11952206D01*
X33948299Y-11952205D01*
X33914193Y-11824918D01*
X33914192Y-11824914D01*
X33848300Y-11710786D01*
X33755114Y-11617600D01*
X33693001Y-11581739D01*
X33640990Y-11551710D01*
X33640981Y-11551706D01*
X33513694Y-11517600D01*
X33513692Y-11517600D01*
X33381908Y-11517600D01*
X33381906Y-11517600D01*
X33254618Y-11551706D01*
X33254609Y-11551710D01*
X33140485Y-11617600D01*
X33062160Y-11695926D01*
X33009834Y-11717600D01*
X28390236Y-11717600D01*
X28313814Y-11738077D01*
X28313809Y-11738079D01*
X28279939Y-11757635D01*
X28245288Y-11777640D01*
X27222203Y-12800726D01*
X27169877Y-12822400D01*
X26243444Y-12822400D01*
X26191118Y-12800726D01*
X26169444Y-12748400D01*
X26177231Y-12719349D01*
X26175834Y-12718771D01*
X26177688Y-12714292D01*
X26177692Y-12714286D01*
X26211799Y-12586994D01*
X26211800Y-12586994D01*
X26211800Y-12455206D01*
X26211799Y-12455205D01*
X26208672Y-12443536D01*
X26177692Y-12327914D01*
X26111800Y-12213786D01*
X26033474Y-12135460D01*
X26011800Y-12083134D01*
X26011800Y-11581739D01*
X26011800Y-11581738D01*
X26009191Y-11572000D01*
X26006026Y-11560189D01*
X25991323Y-11505315D01*
X25991321Y-11505310D01*
X25951762Y-11436792D01*
X25951761Y-11436791D01*
X25951760Y-11436789D01*
X25143111Y-10628140D01*
X25143110Y-10628139D01*
X25139968Y-10626325D01*
X25136825Y-10624511D01*
X25094371Y-10600000D01*
X25074590Y-10588579D01*
X25074585Y-10588577D01*
X24998164Y-10568100D01*
X24998162Y-10568100D01*
X22000138Y-10568100D01*
X22000136Y-10568100D01*
X21923714Y-10588577D01*
X21923709Y-10588579D01*
X21868829Y-10620264D01*
X21861475Y-10624511D01*
X21859606Y-10625589D01*
X21855189Y-10628139D01*
X21563772Y-10919556D01*
X21511446Y-10941230D01*
X21459120Y-10919556D01*
X21439968Y-10886383D01*
X21419800Y-10811117D01*
X21419798Y-10811112D01*
X21360491Y-10708390D01*
X21360490Y-10708389D01*
X21360489Y-10708387D01*
X21276613Y-10624511D01*
X21276610Y-10624509D01*
X21276609Y-10624508D01*
X21173887Y-10565201D01*
X21173882Y-10565199D01*
X21059311Y-10534500D01*
X21059309Y-10534500D01*
X20940691Y-10534500D01*
X20940689Y-10534500D01*
X20826117Y-10565199D01*
X20826112Y-10565201D01*
X20723390Y-10624508D01*
X20639508Y-10708390D01*
X20580201Y-10811112D01*
X20580199Y-10811117D01*
X20549500Y-10925688D01*
X20549500Y-11044311D01*
X20580199Y-11158882D01*
X20580201Y-11158887D01*
X20639508Y-11261609D01*
X20639509Y-11261610D01*
X20639511Y-11261613D01*
X20723387Y-11345489D01*
X20826114Y-11404799D01*
X20826115Y-11404799D01*
X20826117Y-11404800D01*
X20901383Y-11424968D01*
X20946316Y-11459446D01*
X20953708Y-11515599D01*
X20934556Y-11548772D01*
X20530445Y-11952883D01*
X20478119Y-11974557D01*
X20425793Y-11952883D01*
X20406641Y-11919710D01*
X20392093Y-11865418D01*
X20392092Y-11865414D01*
X20326200Y-11751286D01*
X20247874Y-11672960D01*
X20226200Y-11620634D01*
X20226200Y-10542922D01*
X20247873Y-10490597D01*
X21003396Y-9735073D01*
X21055722Y-9713400D01*
X21166494Y-9713400D01*
X21166494Y-9713399D01*
X21293786Y-9679292D01*
X21407914Y-9613400D01*
X21501100Y-9520214D01*
X21566992Y-9406086D01*
X21601099Y-9278794D01*
X21601100Y-9278794D01*
X21601100Y-9147006D01*
X21601099Y-9147005D01*
X21582542Y-9077750D01*
X21566992Y-9019714D01*
X21557112Y-9002601D01*
X21549718Y-8946448D01*
X21584196Y-8901515D01*
X21621197Y-8891600D01*
X33035377Y-8891600D01*
X33087703Y-8913274D01*
G37*
%TD.AperFunction*%
%TA.AperFunction,Conductor*%
G36*
X18277026Y-10775496D02*
G01*
X18298700Y-10827822D01*
X18298700Y-12901834D01*
X18277026Y-12954160D01*
X18198700Y-13032485D01*
X18132810Y-13146609D01*
X18132806Y-13146618D01*
X18098700Y-13273905D01*
X18098700Y-13405694D01*
X18132806Y-13532981D01*
X18132810Y-13532990D01*
X18155567Y-13572406D01*
X18198700Y-13647114D01*
X18291886Y-13740300D01*
X18406014Y-13806192D01*
X18406018Y-13806193D01*
X18496037Y-13830314D01*
X18540970Y-13864792D01*
X18548362Y-13920945D01*
X18529210Y-13954118D01*
X18051503Y-14431826D01*
X17999177Y-14453500D01*
X17215766Y-14453500D01*
X17163440Y-14431826D01*
X17085114Y-14353500D01*
X16970990Y-14287610D01*
X16970981Y-14287606D01*
X16843694Y-14253500D01*
X16843692Y-14253500D01*
X16711908Y-14253500D01*
X16711906Y-14253500D01*
X16584618Y-14287606D01*
X16584609Y-14287610D01*
X16470485Y-14353500D01*
X16377300Y-14446685D01*
X16311410Y-14560809D01*
X16311406Y-14560818D01*
X16277300Y-14688105D01*
X16277300Y-14819892D01*
X16278055Y-14822710D01*
X16277862Y-14824168D01*
X16277933Y-14824701D01*
X16277790Y-14824719D01*
X16270661Y-14878862D01*
X16225729Y-14913339D01*
X16107918Y-14944906D01*
X16107909Y-14944910D01*
X16067300Y-14968356D01*
X16011147Y-14975748D01*
X15966214Y-14941270D01*
X15956300Y-14904270D01*
X15956300Y-13022222D01*
X15977973Y-12969897D01*
X18172375Y-10775495D01*
X18224700Y-10753822D01*
X18277026Y-10775496D01*
G37*
%TD.AperFunction*%
%TA.AperFunction,Conductor*%
G36*
X40080236Y-522174D02*
G01*
X40101910Y-574500D01*
X40080236Y-626826D01*
X40060019Y-641170D01*
X40017461Y-661665D01*
X39949419Y-694433D01*
X39645043Y-885685D01*
X39363993Y-1109815D01*
X39109815Y-1363993D01*
X38885685Y-1645043D01*
X38694433Y-1949419D01*
X38538462Y-2273295D01*
X38419740Y-2612584D01*
X38419735Y-2612600D01*
X38339748Y-2963047D01*
X38339748Y-2963048D01*
X38299500Y-3320267D01*
X38299500Y-3679732D01*
X38339748Y-4036951D01*
X38339748Y-4036952D01*
X38419735Y-4387399D01*
X38419740Y-4387415D01*
X38538462Y-4726704D01*
X38538464Y-4726708D01*
X38694434Y-5050582D01*
X38885685Y-5354956D01*
X39109812Y-5636003D01*
X39363997Y-5890188D01*
X39645044Y-6114315D01*
X39949418Y-6305566D01*
X40273292Y-6461536D01*
X40612592Y-6580262D01*
X40612597Y-6580263D01*
X40612600Y-6580264D01*
X40963047Y-6660251D01*
X40963048Y-6660251D01*
X40963052Y-6660252D01*
X41320264Y-6700500D01*
X41320268Y-6700500D01*
X41679732Y-6700500D01*
X41679736Y-6700500D01*
X42036948Y-6660252D01*
X42387408Y-6580262D01*
X42726708Y-6461536D01*
X43050582Y-6305566D01*
X43354956Y-6114315D01*
X43636003Y-5890188D01*
X43890188Y-5636003D01*
X44114315Y-5354956D01*
X44305566Y-5050582D01*
X44358828Y-4939981D01*
X44401060Y-4902243D01*
X44457608Y-4905418D01*
X44495347Y-4947650D01*
X44499500Y-4972090D01*
X44499500Y-25027909D01*
X44477826Y-25080235D01*
X44425500Y-25101909D01*
X44373174Y-25080235D01*
X44358828Y-25060017D01*
X44329106Y-24998300D01*
X44305566Y-24949418D01*
X44114315Y-24645044D01*
X43890188Y-24363997D01*
X43636003Y-24109812D01*
X43354956Y-23885685D01*
X43050582Y-23694434D01*
X42726708Y-23538464D01*
X42726704Y-23538462D01*
X42387415Y-23419740D01*
X42387399Y-23419735D01*
X42036952Y-23339748D01*
X41858342Y-23319624D01*
X41679736Y-23299500D01*
X41320264Y-23299500D01*
X41141658Y-23319624D01*
X40963048Y-23339748D01*
X40963047Y-23339748D01*
X40612600Y-23419735D01*
X40612584Y-23419740D01*
X40273295Y-23538462D01*
X39949419Y-23694433D01*
X39645043Y-23885685D01*
X39363993Y-24109815D01*
X39109815Y-24363993D01*
X38885685Y-24645043D01*
X38694433Y-24949419D01*
X38538462Y-25273295D01*
X38419740Y-25612584D01*
X38419735Y-25612600D01*
X38339748Y-25963047D01*
X38339748Y-25963048D01*
X38299500Y-26320267D01*
X38299500Y-26679732D01*
X38339748Y-27036951D01*
X38339748Y-27036952D01*
X38419735Y-27387399D01*
X38419740Y-27387415D01*
X38538462Y-27726704D01*
X38538464Y-27726708D01*
X38694434Y-28050582D01*
X38885685Y-28354956D01*
X39109812Y-28636003D01*
X39363997Y-28890188D01*
X39645044Y-29114315D01*
X39949418Y-29305566D01*
X40060018Y-29358828D01*
X40097757Y-29401060D01*
X40094582Y-29457608D01*
X40052350Y-29495347D01*
X40027910Y-29499500D01*
X4972090Y-29499500D01*
X4919764Y-29477826D01*
X4898090Y-29425500D01*
X4919764Y-29373174D01*
X4939980Y-29358829D01*
X5050582Y-29305566D01*
X5354956Y-29114315D01*
X5636003Y-28890188D01*
X5890188Y-28636003D01*
X6114315Y-28354956D01*
X6305566Y-28050582D01*
X6461536Y-27726708D01*
X6580262Y-27387408D01*
X6660252Y-27036948D01*
X6700500Y-26679736D01*
X6700500Y-26320264D01*
X6660252Y-25963052D01*
X6617525Y-25775852D01*
X6580264Y-25612600D01*
X6580259Y-25612584D01*
X6515213Y-25426694D01*
X6461536Y-25273292D01*
X6305566Y-24949418D01*
X6114315Y-24645044D01*
X5890188Y-24363997D01*
X5636003Y-24109812D01*
X5354956Y-23885685D01*
X5050582Y-23694434D01*
X4726708Y-23538464D01*
X4726704Y-23538462D01*
X4387415Y-23419740D01*
X4387399Y-23419735D01*
X4036952Y-23339748D01*
X3858342Y-23319624D01*
X3679736Y-23299500D01*
X3320264Y-23299500D01*
X3141658Y-23319624D01*
X2963048Y-23339748D01*
X2963047Y-23339748D01*
X2612600Y-23419735D01*
X2612584Y-23419740D01*
X2273295Y-23538462D01*
X1949419Y-23694433D01*
X1645043Y-23885685D01*
X1363993Y-24109815D01*
X1109815Y-24363993D01*
X885685Y-24645043D01*
X694433Y-24949419D01*
X641172Y-25060017D01*
X598940Y-25097757D01*
X542392Y-25094581D01*
X504652Y-25052349D01*
X500500Y-25027909D01*
X500500Y-14933805D01*
X12112000Y-14933805D01*
X12112000Y-15065594D01*
X12146106Y-15192881D01*
X12146110Y-15192890D01*
X12212000Y-15307014D01*
X12290326Y-15385340D01*
X12312000Y-15437666D01*
X12312000Y-16101564D01*
X12332477Y-16177985D01*
X12332479Y-16177990D01*
X12372040Y-16246511D01*
X12431047Y-16305518D01*
X12431857Y-16306228D01*
X18153531Y-22027902D01*
X18175205Y-22080228D01*
X18153531Y-22132554D01*
X18127604Y-22147536D01*
X18128192Y-22148954D01*
X18123709Y-22150810D01*
X18009585Y-22216700D01*
X17916400Y-22309885D01*
X17850510Y-22424009D01*
X17850506Y-22424018D01*
X17816400Y-22551305D01*
X17816400Y-22683094D01*
X17850506Y-22810381D01*
X17850510Y-22810390D01*
X17916400Y-22924514D01*
X17994726Y-23002840D01*
X18016400Y-23055166D01*
X18016400Y-27993634D01*
X17994726Y-28045960D01*
X17979401Y-28057719D01*
X17955189Y-28071698D01*
X17955187Y-28071699D01*
X17862000Y-28164885D01*
X17796110Y-28279009D01*
X17796106Y-28279018D01*
X17762000Y-28406305D01*
X17762000Y-28538094D01*
X17796106Y-28665381D01*
X17796107Y-28665384D01*
X17796108Y-28665386D01*
X17862000Y-28779514D01*
X17955186Y-28872700D01*
X18069314Y-28938592D01*
X18196605Y-28972699D01*
X18196606Y-28972700D01*
X18196608Y-28972700D01*
X18328394Y-28972700D01*
X18328394Y-28972699D01*
X18455686Y-28938592D01*
X18569814Y-28872700D01*
X18663000Y-28779514D01*
X18728892Y-28665386D01*
X18762999Y-28538094D01*
X18763000Y-28538094D01*
X18763000Y-28406306D01*
X18762999Y-28406305D01*
X18728893Y-28279018D01*
X18728892Y-28279014D01*
X18663000Y-28164886D01*
X18639074Y-28140960D01*
X18617400Y-28088634D01*
X18617400Y-23055166D01*
X18639074Y-23002840D01*
X18717400Y-22924514D01*
X18783292Y-22810386D01*
X18783293Y-22810379D01*
X18785147Y-22805906D01*
X18787623Y-22806931D01*
X18816854Y-22768817D01*
X18873005Y-22761409D01*
X18906194Y-22780565D01*
X19376989Y-23251360D01*
X19445512Y-23290922D01*
X19521938Y-23311400D01*
X19521940Y-23311400D01*
X22749764Y-23311400D01*
X22749764Y-23311399D01*
X22826189Y-23290921D01*
X22894711Y-23251360D01*
X22950660Y-23195411D01*
X23002496Y-23143575D01*
X23002496Y-23143574D01*
X23039495Y-23128248D01*
X23054821Y-23121900D01*
X23144577Y-23121900D01*
X23196903Y-23143574D01*
X26424989Y-26371660D01*
X26493512Y-26411222D01*
X26569938Y-26431700D01*
X26569940Y-26431700D01*
X30902564Y-26431700D01*
X30902564Y-26431699D01*
X30978989Y-26411221D01*
X31047511Y-26371660D01*
X31103460Y-26315711D01*
X37650360Y-19768811D01*
X37689922Y-19700288D01*
X37710400Y-19623862D01*
X37710400Y-19544738D01*
X37710400Y-16188566D01*
X37732074Y-16136240D01*
X37766752Y-16101562D01*
X37810400Y-16057914D01*
X37876292Y-15943786D01*
X37910399Y-15816494D01*
X37910400Y-15816494D01*
X37910400Y-15684706D01*
X37910399Y-15684705D01*
X37896440Y-15632610D01*
X37876292Y-15557414D01*
X37810400Y-15443286D01*
X37717214Y-15350100D01*
X37642587Y-15307014D01*
X37603090Y-15284210D01*
X37603081Y-15284206D01*
X37495790Y-15255457D01*
X37450857Y-15220978D01*
X37443465Y-15164826D01*
X37462618Y-15131653D01*
X37516258Y-15078013D01*
X37516260Y-15078011D01*
X37529834Y-15054500D01*
X37555821Y-15009489D01*
X37566843Y-14968356D01*
X37572440Y-14947470D01*
X38344200Y-14947470D01*
X38344200Y-15084529D01*
X38370937Y-15218950D01*
X38370940Y-15218961D01*
X38423387Y-15345580D01*
X38423389Y-15345583D01*
X38423390Y-15345585D01*
X38459883Y-15400200D01*
X38484916Y-15437666D01*
X38499537Y-15459547D01*
X38596453Y-15556463D01*
X38710415Y-15632610D01*
X38710420Y-15632612D01*
X38710419Y-15632612D01*
X38836186Y-15684706D01*
X38837043Y-15685061D01*
X38971470Y-15711800D01*
X38971471Y-15711800D01*
X39108529Y-15711800D01*
X39108530Y-15711800D01*
X39242957Y-15685061D01*
X39369585Y-15632610D01*
X39483547Y-15556463D01*
X39580463Y-15459547D01*
X39656610Y-15345585D01*
X39709061Y-15218957D01*
X39735800Y-15084530D01*
X39735800Y-14947470D01*
X39709061Y-14813043D01*
X39678133Y-14738376D01*
X39656612Y-14686419D01*
X39656611Y-14686417D01*
X39656610Y-14686415D01*
X39580463Y-14572453D01*
X39483547Y-14475537D01*
X39369585Y-14399390D01*
X39369581Y-14399388D01*
X39369579Y-14399387D01*
X39369580Y-14399387D01*
X39242961Y-14346940D01*
X39242950Y-14346937D01*
X39141680Y-14326793D01*
X39108530Y-14320200D01*
X38971470Y-14320200D01*
X38944877Y-14325489D01*
X38837049Y-14346937D01*
X38837038Y-14346940D01*
X38710419Y-14399387D01*
X38596453Y-14475536D01*
X38596452Y-14475538D01*
X38499538Y-14572452D01*
X38499536Y-14572453D01*
X38423387Y-14686419D01*
X38370940Y-14813038D01*
X38370937Y-14813049D01*
X38344200Y-14947470D01*
X37572440Y-14947470D01*
X37576298Y-14933071D01*
X37576298Y-14933067D01*
X37576300Y-14933062D01*
X37576300Y-12915470D01*
X38344200Y-12915470D01*
X38344200Y-13052529D01*
X38370937Y-13186950D01*
X38370940Y-13186961D01*
X38423387Y-13313580D01*
X38423389Y-13313583D01*
X38423390Y-13313585D01*
X38499537Y-13427547D01*
X38596453Y-13524463D01*
X38710415Y-13600610D01*
X38710420Y-13600612D01*
X38710419Y-13600612D01*
X38837038Y-13653059D01*
X38837043Y-13653061D01*
X38971470Y-13679800D01*
X38971471Y-13679800D01*
X39108529Y-13679800D01*
X39108530Y-13679800D01*
X39242957Y-13653061D01*
X39369585Y-13600610D01*
X39483547Y-13524463D01*
X39580463Y-13427547D01*
X39656610Y-13313585D01*
X39709061Y-13186957D01*
X39735800Y-13052530D01*
X39735800Y-12915470D01*
X39709061Y-12781043D01*
X39683267Y-12718771D01*
X39656612Y-12654419D01*
X39656611Y-12654417D01*
X39656610Y-12654415D01*
X39580463Y-12540453D01*
X39483547Y-12443537D01*
X39369585Y-12367390D01*
X39369581Y-12367388D01*
X39369579Y-12367387D01*
X39369580Y-12367387D01*
X39242961Y-12314940D01*
X39242950Y-12314937D01*
X39141680Y-12294793D01*
X39108530Y-12288200D01*
X38971470Y-12288200D01*
X38944877Y-12293489D01*
X38837049Y-12314937D01*
X38837038Y-12314940D01*
X38710419Y-12367387D01*
X38596453Y-12443536D01*
X38596452Y-12443538D01*
X38499538Y-12540452D01*
X38499536Y-12540453D01*
X38423387Y-12654419D01*
X38370940Y-12781038D01*
X38370937Y-12781049D01*
X38344200Y-12915470D01*
X37576300Y-12915470D01*
X37576300Y-11705138D01*
X37576300Y-11705136D01*
X37576299Y-11705135D01*
X37573831Y-11695926D01*
X37555821Y-11628711D01*
X37516260Y-11560189D01*
X37460311Y-11504240D01*
X30516111Y-4560040D01*
X30481461Y-4540035D01*
X30447590Y-4520479D01*
X30447585Y-4520477D01*
X30371164Y-4500000D01*
X30371162Y-4500000D01*
X29472666Y-4500000D01*
X29420340Y-4478326D01*
X29342014Y-4400000D01*
X29227890Y-4334110D01*
X29227881Y-4334106D01*
X29100594Y-4300000D01*
X29100592Y-4300000D01*
X28968808Y-4300000D01*
X28968806Y-4300000D01*
X28841518Y-4334106D01*
X28841509Y-4334110D01*
X28727385Y-4400000D01*
X28634200Y-4493185D01*
X28568310Y-4607309D01*
X28568306Y-4607318D01*
X28534200Y-4734605D01*
X28534200Y-4866394D01*
X28568306Y-4993681D01*
X28568307Y-4993684D01*
X28568308Y-4993686D01*
X28634200Y-5107814D01*
X28727386Y-5201000D01*
X28841514Y-5266892D01*
X28968805Y-5300999D01*
X28968806Y-5301000D01*
X28968808Y-5301000D01*
X29100594Y-5301000D01*
X29100594Y-5300999D01*
X29227886Y-5266892D01*
X29342014Y-5201000D01*
X29420340Y-5122674D01*
X29472666Y-5101000D01*
X30176477Y-5101000D01*
X30228803Y-5122674D01*
X33270403Y-8164274D01*
X33292077Y-8216600D01*
X33270403Y-8268926D01*
X33218077Y-8290600D01*
X20835922Y-8290600D01*
X20783596Y-8268926D01*
X20761922Y-8216600D01*
X20783596Y-8164274D01*
X22515196Y-6432674D01*
X22567522Y-6411000D01*
X22678294Y-6411000D01*
X22678294Y-6410999D01*
X22805586Y-6376892D01*
X22919714Y-6311000D01*
X23012900Y-6217814D01*
X23078792Y-6103686D01*
X23112899Y-5976394D01*
X23112900Y-5976394D01*
X23112900Y-5844606D01*
X23112899Y-5844605D01*
X23078793Y-5717318D01*
X23078792Y-5717314D01*
X23012900Y-5603186D01*
X22919714Y-5510000D01*
X22805590Y-5444110D01*
X22805581Y-5444106D01*
X22678294Y-5410000D01*
X22678292Y-5410000D01*
X22546508Y-5410000D01*
X22546506Y-5410000D01*
X22419218Y-5444106D01*
X22419209Y-5444110D01*
X22305085Y-5510000D01*
X22211900Y-5603185D01*
X22146010Y-5717309D01*
X22146006Y-5717318D01*
X22111900Y-5844605D01*
X22111900Y-5955376D01*
X22090226Y-6007702D01*
X15471289Y-12626640D01*
X15415340Y-12682588D01*
X15375779Y-12751109D01*
X15375777Y-12751114D01*
X15355300Y-12827535D01*
X15355300Y-17840264D01*
X15375777Y-17916685D01*
X15375780Y-17916691D01*
X15388303Y-17938382D01*
X15388306Y-17938386D01*
X15415340Y-17985211D01*
X18251026Y-20820897D01*
X18272700Y-20873223D01*
X18272700Y-20983994D01*
X18306806Y-21111281D01*
X18306810Y-21111290D01*
X18326223Y-21144914D01*
X18333616Y-21201067D01*
X18299137Y-21246000D01*
X18242984Y-21253393D01*
X18209811Y-21234240D01*
X12934674Y-15959103D01*
X12913000Y-15906777D01*
X12913000Y-15437666D01*
X12934674Y-15385340D01*
X12969914Y-15350100D01*
X13013000Y-15307014D01*
X13078892Y-15192886D01*
X13112999Y-15065594D01*
X13113000Y-15065594D01*
X13113000Y-14933806D01*
X13112999Y-14933805D01*
X13112802Y-14933071D01*
X13078892Y-14806514D01*
X13013000Y-14692386D01*
X12919814Y-14599200D01*
X12818079Y-14540463D01*
X12805690Y-14533310D01*
X12805681Y-14533306D01*
X12678394Y-14499200D01*
X12678392Y-14499200D01*
X12546608Y-14499200D01*
X12546606Y-14499200D01*
X12419318Y-14533306D01*
X12419309Y-14533310D01*
X12305185Y-14599200D01*
X12212000Y-14692385D01*
X12146110Y-14806509D01*
X12146106Y-14806518D01*
X12112000Y-14933805D01*
X500500Y-14933805D01*
X500500Y-8630253D01*
X4949500Y-8630253D01*
X4949500Y-10369746D01*
X4961133Y-10428232D01*
X4990608Y-10472343D01*
X5005448Y-10494552D01*
X5031966Y-10512271D01*
X5071767Y-10538866D01*
X5071768Y-10538866D01*
X5071769Y-10538867D01*
X5130252Y-10550500D01*
X5130254Y-10550500D01*
X6869746Y-10550500D01*
X6869748Y-10550500D01*
X6928231Y-10538867D01*
X6994552Y-10494552D01*
X7038867Y-10428231D01*
X7050500Y-10369748D01*
X7050500Y-9413426D01*
X7440000Y-9413426D01*
X7440000Y-9586573D01*
X7467085Y-9757581D01*
X7467088Y-9757594D01*
X7520588Y-9922249D01*
X7599197Y-10076526D01*
X7599197Y-10076527D01*
X7663220Y-10164646D01*
X8096328Y-9731537D01*
X8139901Y-9807007D01*
X8232993Y-9900099D01*
X8308461Y-9943670D01*
X7875352Y-10376779D01*
X7963472Y-10440802D01*
X8117750Y-10519411D01*
X8117749Y-10519411D01*
X8282405Y-10572911D01*
X8282418Y-10572914D01*
X8453426Y-10600000D01*
X8626574Y-10600000D01*
X8797581Y-10572914D01*
X8797594Y-10572911D01*
X8962249Y-10519411D01*
X9116526Y-10440802D01*
X9116527Y-10440802D01*
X9204646Y-10376779D01*
X8771538Y-9943670D01*
X8847007Y-9900099D01*
X8940099Y-9807007D01*
X8983671Y-9731538D01*
X9416779Y-10164646D01*
X9480802Y-10076527D01*
X9480802Y-10076526D01*
X9559411Y-9922249D01*
X9612911Y-9757594D01*
X9612914Y-9757581D01*
X9640000Y-9586573D01*
X9640000Y-9413426D01*
X9612914Y-9242418D01*
X9612911Y-9242405D01*
X9559411Y-9077750D01*
X9480802Y-8923473D01*
X9480802Y-8923472D01*
X9416779Y-8835352D01*
X8983670Y-9268460D01*
X8940099Y-9192993D01*
X8847007Y-9099901D01*
X8771537Y-9056328D01*
X9204646Y-8623220D01*
X9116527Y-8559197D01*
X8962249Y-8480588D01*
X8962250Y-8480588D01*
X8797594Y-8427088D01*
X8797581Y-8427085D01*
X8626574Y-8400000D01*
X8453426Y-8400000D01*
X8282418Y-8427085D01*
X8282405Y-8427088D01*
X8117752Y-8480587D01*
X7963479Y-8559193D01*
X7875352Y-8623220D01*
X8308461Y-9056329D01*
X8232993Y-9099901D01*
X8139901Y-9192993D01*
X8096329Y-9268461D01*
X7663220Y-8835352D01*
X7599193Y-8923479D01*
X7520587Y-9077752D01*
X7467088Y-9242405D01*
X7467085Y-9242418D01*
X7440000Y-9413426D01*
X7050500Y-9413426D01*
X7050500Y-8630252D01*
X7038867Y-8571769D01*
X6994552Y-8505448D01*
X6957347Y-8480588D01*
X6928232Y-8461133D01*
X6928233Y-8461133D01*
X6898989Y-8455316D01*
X6869748Y-8449500D01*
X5130252Y-8449500D01*
X5101010Y-8455316D01*
X5071767Y-8461133D01*
X5005449Y-8505447D01*
X5005447Y-8505449D01*
X4961133Y-8571767D01*
X4949500Y-8630253D01*
X500500Y-8630253D01*
X500500Y-4972090D01*
X522174Y-4919764D01*
X574500Y-4898090D01*
X626826Y-4919764D01*
X641170Y-4939980D01*
X694434Y-5050582D01*
X885685Y-5354956D01*
X1109812Y-5636003D01*
X1363997Y-5890188D01*
X1645044Y-6114315D01*
X1949418Y-6305566D01*
X2273292Y-6461536D01*
X2612592Y-6580262D01*
X2612597Y-6580263D01*
X2612600Y-6580264D01*
X2963047Y-6660251D01*
X2963048Y-6660251D01*
X2963052Y-6660252D01*
X3320264Y-6700500D01*
X3320268Y-6700500D01*
X3679732Y-6700500D01*
X3679736Y-6700500D01*
X4036948Y-6660252D01*
X4387408Y-6580262D01*
X4726708Y-6461536D01*
X5050582Y-6305566D01*
X5354956Y-6114315D01*
X5636003Y-5890188D01*
X5890188Y-5636003D01*
X6114315Y-5354956D01*
X6305566Y-5050582D01*
X6461536Y-4726708D01*
X6580262Y-4387408D01*
X6660252Y-4036948D01*
X6700500Y-3679736D01*
X6700500Y-3320264D01*
X6660252Y-2963052D01*
X6580262Y-2612592D01*
X6461536Y-2273292D01*
X6305566Y-1949418D01*
X6114315Y-1645044D01*
X5890188Y-1363997D01*
X5636003Y-1109812D01*
X5354956Y-885685D01*
X5050582Y-694434D01*
X4939981Y-641171D01*
X4902243Y-598940D01*
X4905418Y-542392D01*
X4947650Y-504653D01*
X4972090Y-500500D01*
X40027910Y-500500D01*
X40080236Y-522174D01*
G37*
%TD.AperFunction*%
%TD*%
M02*
