%TF.GenerationSoftware,KiCad,Pcbnew,10.0.1*%
%TF.CreationDate,2026-09-04T22:04:05-05:00*%
%TF.ProjectId,CHIPDOWNARM,43484950-444f-4574-9e41-524d2e6b6963,rev?*%
%TF.SameCoordinates,Original*%
%TF.FileFunction,Copper,L1,Top*%
%TF.FilePolarity,Positive*%
%FSLAX46Y46*%
G04 Gerber Fmt 4.6, Leading zero omitted, Abs format (unit mm)*
G04 Created by KiCad (PCBNEW 10.0.1) date 2026-09-04 22:04:05*
%MOMM*%
%LPD*%
G01*
G04 APERTURE LIST*
G04 Aperture macros list*
%AMRoundRect*
0 Rectangle with rounded corners*
0 $1 Rounding radius*
0 $2 $3 $4 $5 $6 $7 $8 $9 X,Y pos of 4 corners*
0 Add a 4 corners polygon primitive as box body*
4,1,4,$2,$3,$4,$5,$6,$7,$8,$9,$2,$3,0*
0 Add four circle primitives for the rounded corners*
1,1,$1+$1,$2,$3*
1,1,$1+$1,$4,$5*
1,1,$1+$1,$6,$7*
1,1,$1+$1,$8,$9*
0 Add four rect primitives between the rounded corners*
20,1,$1+$1,$2,$3,$4,$5,0*
20,1,$1+$1,$4,$5,$6,$7,0*
20,1,$1+$1,$6,$7,$8,$9,0*
20,1,$1+$1,$8,$9,$2,$3,0*%
G04 Aperture macros list end*
%TA.AperFunction,SMDPad,CuDef*%
%ADD10RoundRect,0.218750X-0.218750X-0.256250X0.218750X-0.256250X0.218750X0.256250X-0.218750X0.256250X0*%
%TD*%
%TA.AperFunction,SMDPad,CuDef*%
%ADD11RoundRect,0.140000X0.170000X-0.140000X0.170000X0.140000X-0.170000X0.140000X-0.170000X-0.140000X0*%
%TD*%
%TA.AperFunction,SMDPad,CuDef*%
%ADD12RoundRect,0.140000X-0.140000X-0.170000X0.140000X-0.170000X0.140000X0.170000X-0.140000X0.170000X0*%
%TD*%
%TA.AperFunction,SMDPad,CuDef*%
%ADD13C,0.787400*%
%TD*%
%TA.AperFunction,ComponentPad*%
%ADD14C,6.000000*%
%TD*%
%TA.AperFunction,SMDPad,CuDef*%
%ADD15RoundRect,0.062500X-0.337500X-0.062500X0.337500X-0.062500X0.337500X0.062500X-0.337500X0.062500X0*%
%TD*%
%TA.AperFunction,SMDPad,CuDef*%
%ADD16RoundRect,0.225000X-0.225000X-0.250000X0.225000X-0.250000X0.225000X0.250000X-0.225000X0.250000X0*%
%TD*%
%TA.AperFunction,SMDPad,CuDef*%
%ADD17RoundRect,0.147500X-0.147500X-0.172500X0.147500X-0.172500X0.147500X0.172500X-0.147500X0.172500X0*%
%TD*%
%TA.AperFunction,SMDPad,CuDef*%
%ADD18RoundRect,0.135000X-0.135000X-0.185000X0.135000X-0.185000X0.135000X0.185000X-0.135000X0.185000X0*%
%TD*%
%TA.AperFunction,SMDPad,CuDef*%
%ADD19RoundRect,0.135000X0.185000X-0.135000X0.185000X0.135000X-0.185000X0.135000X-0.185000X-0.135000X0*%
%TD*%
%TA.AperFunction,SMDPad,CuDef*%
%ADD20R,1.000000X1.800000*%
%TD*%
%TA.AperFunction,SMDPad,CuDef*%
%ADD21RoundRect,0.147500X0.172500X-0.147500X0.172500X0.147500X-0.172500X0.147500X-0.172500X-0.147500X0*%
%TD*%
%TA.AperFunction,SMDPad,CuDef*%
%ADD22RoundRect,0.243750X-0.243750X-0.456250X0.243750X-0.456250X0.243750X0.456250X-0.243750X0.456250X0*%
%TD*%
%TA.AperFunction,SMDPad,CuDef*%
%ADD23RoundRect,0.218750X0.381250X-0.218750X0.381250X0.218750X-0.381250X0.218750X-0.381250X-0.218750X0*%
%TD*%
%TA.AperFunction,SMDPad,CuDef*%
%ADD24RoundRect,0.250000X-0.275000X-0.250000X0.275000X-0.250000X0.275000X0.250000X-0.275000X0.250000X0*%
%TD*%
%TA.AperFunction,SMDPad,CuDef*%
%ADD25RoundRect,0.250000X-0.850000X-0.275000X0.850000X-0.275000X0.850000X0.275000X-0.850000X0.275000X0*%
%TD*%
%TA.AperFunction,SMDPad,CuDef*%
%ADD26RoundRect,0.200000X-0.250000X-0.200000X0.250000X-0.200000X0.250000X0.200000X-0.250000X0.200000X0*%
%TD*%
%TA.AperFunction,SMDPad,CuDef*%
%ADD27RoundRect,0.225000X0.250000X-0.225000X0.250000X0.225000X-0.250000X0.225000X-0.250000X-0.225000X0*%
%TD*%
%TA.AperFunction,SMDPad,CuDef*%
%ADD28RoundRect,0.218750X-0.218750X-0.381250X0.218750X-0.381250X0.218750X0.381250X-0.218750X0.381250X0*%
%TD*%
%TA.AperFunction,SMDPad,CuDef*%
%ADD29RoundRect,0.087500X-0.187500X-0.087500X0.187500X-0.087500X0.187500X0.087500X-0.187500X0.087500X0*%
%TD*%
%TA.AperFunction,SMDPad,CuDef*%
%ADD30RoundRect,0.175000X-0.175000X-0.625000X0.175000X-0.625000X0.175000X0.625000X-0.175000X0.625000X0*%
%TD*%
%TA.AperFunction,ComponentPad*%
%ADD31R,1.700000X1.700000*%
%TD*%
%TA.AperFunction,ComponentPad*%
%ADD32C,1.700000*%
%TD*%
%TA.AperFunction,SMDPad,CuDef*%
%ADD33RoundRect,0.062500X-0.375000X-0.062500X0.375000X-0.062500X0.375000X0.062500X-0.375000X0.062500X0*%
%TD*%
%TA.AperFunction,SMDPad,CuDef*%
%ADD34RoundRect,0.062500X-0.062500X-0.375000X0.062500X-0.375000X0.062500X0.375000X-0.062500X0.375000X0*%
%TD*%
%TA.AperFunction,HeatsinkPad*%
%ADD35R,5.600000X5.600000*%
%TD*%
%TA.AperFunction,ViaPad*%
%ADD36C,0.500000*%
%TD*%
%TA.AperFunction,ViaPad*%
%ADD37C,0.450000*%
%TD*%
%TA.AperFunction,ViaPad*%
%ADD38C,0.600000*%
%TD*%
%TA.AperFunction,Conductor*%
%ADD39C,0.150000*%
%TD*%
%TA.AperFunction,Conductor*%
%ADD40C,0.200000*%
%TD*%
G04 APERTURE END LIST*
D10*
%TO.P,D1,1*%
%TO.N,VBAT_PROT*%
X9712500Y-6800000D03*
%TO.P,D1,2*%
%TO.N,GND*%
X11287500Y-6800000D03*
%TD*%
D11*
%TO.P,C24,1*%
%TO.N,+3V0*%
X34500000Y-9480000D03*
%TO.P,C24,2*%
%TO.N,GND*%
X34500000Y-8520000D03*
%TD*%
D12*
%TO.P,C19,1*%
%TO.N,OSC32_OUT*%
X5020000Y-15500000D03*
%TO.P,C19,2*%
%TO.N,GND*%
X5980000Y-15500000D03*
%TD*%
D13*
%TO.P,J3,1*%
%TO.N,+3V0*%
X35230000Y-14635000D03*
%TO.P,J3,2*%
%TO.N,SWDIO*%
X35230000Y-13365000D03*
%TO.P,J3,3*%
%TO.N,NRST*%
X36500000Y-14635000D03*
%TO.P,J3,4*%
%TO.N,SWCLK*%
X36500000Y-13365000D03*
%TO.P,J3,5*%
%TO.N,GND*%
X37770000Y-14635000D03*
%TO.P,J3,6*%
%TO.N,SWO*%
X37770000Y-13365000D03*
%TD*%
D14*
%TO.P,MH4,1*%
%TO.N,N/C*%
X41500000Y-26500000D03*
%TD*%
D15*
%TO.P,U2,1*%
%TO.N,GND*%
X16275000Y-4750000D03*
%TO.P,U2,2*%
%TO.N,VBAT_PROT*%
X16275000Y-5250000D03*
%TO.P,U2,3*%
%TO.N,GND*%
X16275000Y-5750000D03*
%TO.P,U2,4*%
%TO.N,VBAT_PROT*%
X16275000Y-6250000D03*
%TO.P,U2,5*%
%TO.N,TPS_VSET*%
X17725000Y-6250000D03*
%TO.P,U2,6*%
%TO.N,MCU_STOP*%
X17725000Y-5750000D03*
%TO.P,U2,7*%
%TO.N,TPS_SW*%
X17725000Y-5250000D03*
%TO.P,U2,8*%
%TO.N,+3V0*%
X17725000Y-4750000D03*
%TD*%
D11*
%TO.P,C8,1*%
%TO.N,VR_PA*%
X24800000Y-24480000D03*
%TO.P,C8,2*%
%TO.N,GND*%
X24800000Y-23520000D03*
%TD*%
D16*
%TO.P,C9,1*%
%TO.N,VDDPA_RAIL*%
X11725000Y-17500000D03*
%TO.P,C9,2*%
%TO.N,GND*%
X13275000Y-17500000D03*
%TD*%
D17*
%TO.P,L_M2,1*%
%TO.N,RF_MATCH_2*%
X32315000Y-3800000D03*
%TO.P,L_M2,2*%
%TO.N,RF_ANT_50R*%
X33285000Y-3800000D03*
%TD*%
D18*
%TO.P,R_STOP,1*%
%TO.N,MCU_STOP*%
X14990000Y-8500000D03*
%TO.P,R_STOP,2*%
%TO.N,GND*%
X16010000Y-8500000D03*
%TD*%
D12*
%TO.P,C26,1*%
%TO.N,+3V0*%
X35020000Y-24500000D03*
%TO.P,C26,2*%
%TO.N,GND*%
X35980000Y-24500000D03*
%TD*%
D19*
%TO.P,R_BOOT0,1*%
%TO.N,BOOT0*%
X26500000Y-24510000D03*
%TO.P,R_BOOT0,2*%
%TO.N,GND*%
X26500000Y-23490000D03*
%TD*%
D20*
%TO.P,Y2,1*%
%TO.N,OSC32_IN*%
X9750000Y-14500000D03*
%TO.P,Y2,2*%
%TO.N,OSC32_OUT*%
X7250000Y-14500000D03*
%TD*%
D18*
%TO.P,R_VDDPA,1*%
%TO.N,+3V0*%
X14490000Y-17500000D03*
%TO.P,R_VDDPA,2*%
%TO.N,VDDPA_RAIL*%
X15510000Y-17500000D03*
%TD*%
D11*
%TO.P,C13,1*%
%TO.N,VDDRF_RAIL*%
X20000000Y-24480000D03*
%TO.P,C13,2*%
%TO.N,GND*%
X20000000Y-23520000D03*
%TD*%
D21*
%TO.P,D3,1*%
%TO.N,RF_ANT_50R*%
X36000000Y-7985000D03*
%TO.P,D3,2*%
%TO.N,GND*%
X36000000Y-7015000D03*
%TD*%
D18*
%TO.P,R_PULL_SDA,1*%
%TO.N,+3V0*%
X29490000Y-26500000D03*
%TO.P,R_PULL_SDA,2*%
%TO.N,I2C1_SDA*%
X30510000Y-26500000D03*
%TD*%
D22*
%TO.P,F1,1*%
%TO.N,VBAT_RAW*%
X9562500Y-3800000D03*
%TO.P,F1,2*%
%TO.N,VBAT_PROT*%
X11437500Y-3800000D03*
%TD*%
D16*
%TO.P,C3,1*%
%TO.N,+3V0*%
X22725000Y-4000000D03*
%TO.P,C3,2*%
%TO.N,GND*%
X24275000Y-4000000D03*
%TD*%
D14*
%TO.P,MH3,1*%
%TO.N,N/C*%
X3500000Y-26500000D03*
%TD*%
D23*
%TO.P,L1,1*%
%TO.N,TPS_SW*%
X20500000Y-6562500D03*
%TO.P,L1,2*%
%TO.N,+3V0*%
X20500000Y-4437500D03*
%TD*%
D16*
%TO.P,C2,1*%
%TO.N,VBAT_PROT*%
X13225000Y-6800000D03*
%TO.P,C2,2*%
%TO.N,GND*%
X14775000Y-6800000D03*
%TD*%
D21*
%TO.P,FB1,1*%
%TO.N,+3V0*%
X21000000Y-10985000D03*
%TO.P,FB1,2*%
%TO.N,VDDA*%
X21000000Y-10015000D03*
%TD*%
%TO.P,L_CHOKE,1*%
%TO.N,VR_PA*%
X27000000Y-4285000D03*
%TO.P,L_CHOKE,2*%
%TO.N,RF_PA_OUT*%
X27000000Y-3315000D03*
%TD*%
D16*
%TO.P,C4,1*%
%TO.N,+3V0*%
X22725000Y-7000000D03*
%TO.P,C4,2*%
%TO.N,GND*%
X24275000Y-7000000D03*
%TD*%
D11*
%TO.P,C20,1*%
%TO.N,VDDA*%
X22500000Y-10980000D03*
%TO.P,C20,2*%
%TO.N,GND*%
X22500000Y-10020000D03*
%TD*%
D12*
%TO.P,C25,1*%
%TO.N,VDD_TCXO*%
X38020000Y-19500000D03*
%TO.P,C25,2*%
%TO.N,GND*%
X38980000Y-19500000D03*
%TD*%
%TO.P,C18,1*%
%TO.N,OSC32_IN*%
X5020000Y-13500000D03*
%TO.P,C18,2*%
%TO.N,GND*%
X5980000Y-13500000D03*
%TD*%
D24*
%TO.P,J2,1*%
%TO.N,RF_ANT_50R*%
X34975000Y-3800000D03*
D25*
%TO.P,J2,2*%
%TO.N,GND*%
X36500000Y-2325000D03*
X36500000Y-5275000D03*
%TD*%
D26*
%TO.P,Y1,1*%
%TO.N,GND*%
X34750000Y-20100000D03*
%TO.P,Y1,2*%
X36250000Y-20100000D03*
%TO.P,Y1,3*%
%TO.N,TCXO_OUT_NODE*%
X36250000Y-18900000D03*
%TO.P,Y1,4*%
%TO.N,VDD_TCXO*%
X34750000Y-18900000D03*
%TD*%
D12*
%TO.P,C11,1*%
%TO.N,VDDPA_RAIL*%
X12020000Y-19500000D03*
%TO.P,C11,2*%
%TO.N,GND*%
X12980000Y-19500000D03*
%TD*%
D11*
%TO.P,C_M2,1*%
%TO.N,RF_ANT_50R*%
X32800000Y-6680000D03*
%TO.P,C_M2,2*%
%TO.N,GND*%
X32800000Y-5720000D03*
%TD*%
%TO.P,C17,1*%
%TO.N,+3V0*%
X19500000Y-10980000D03*
%TO.P,C17,2*%
%TO.N,GND*%
X19500000Y-10020000D03*
%TD*%
D12*
%TO.P,C5,1*%
%TO.N,+3V0*%
X14520000Y-13500000D03*
%TO.P,C5,2*%
%TO.N,GND*%
X15480000Y-13500000D03*
%TD*%
D18*
%TO.P,R_SET,1*%
%TO.N,TPS_VSET*%
X16990000Y-8500000D03*
%TO.P,R_SET,2*%
%TO.N,GND*%
X18010000Y-8500000D03*
%TD*%
D10*
%TO.P,D2,1*%
%TO.N,LED_CATHODE_NODE*%
X16712500Y-26500000D03*
%TO.P,D2,2*%
%TO.N,LED_STATUS*%
X18287500Y-26500000D03*
%TD*%
D11*
%TO.P,C16,1*%
%TO.N,V1V55_SMPS*%
X31000000Y-10980000D03*
%TO.P,C16,2*%
%TO.N,GND*%
X31000000Y-10020000D03*
%TD*%
D19*
%TO.P,R_VDDRF,1*%
%TO.N,+3V0*%
X18500000Y-24510000D03*
%TO.P,R_VDDRF,2*%
%TO.N,VDDRF_RAIL*%
X18500000Y-23490000D03*
%TD*%
D11*
%TO.P,C14,1*%
%TO.N,VDDRF_RAIL*%
X21500000Y-24480000D03*
%TO.P,C14,2*%
%TO.N,GND*%
X21500000Y-23520000D03*
%TD*%
D18*
%TO.P,R_PULL_SCL,1*%
%TO.N,+3V0*%
X29490000Y-24500000D03*
%TO.P,R_PULL_SCL,2*%
%TO.N,I2C1_SCL*%
X30510000Y-24500000D03*
%TD*%
D11*
%TO.P,C_M1,1*%
%TO.N,RF_MATCH_2*%
X30800000Y-6680000D03*
%TO.P,C_M1,2*%
%TO.N,GND*%
X30800000Y-5720000D03*
%TD*%
%TO.P,C22,1*%
%TO.N,+3V0*%
X18000000Y-10980000D03*
%TO.P,C22,2*%
%TO.N,GND*%
X18000000Y-10020000D03*
%TD*%
D18*
%TO.P,R_LED,1*%
%TO.N,LED_CATHODE_NODE*%
X19690000Y-26500000D03*
%TO.P,R_LED,2*%
%TO.N,GND*%
X20710000Y-26500000D03*
%TD*%
D16*
%TO.P,C1,1*%
%TO.N,VBAT_PROT*%
X13225000Y-3800000D03*
%TO.P,C1,2*%
%TO.N,GND*%
X14775000Y-3800000D03*
%TD*%
D14*
%TO.P,MH1,1*%
%TO.N,N/C*%
X3500000Y-3500000D03*
%TD*%
%TO.P,MH2,1*%
%TO.N,N/C*%
X41500000Y-3500000D03*
%TD*%
D27*
%TO.P,C15,1*%
%TO.N,V1V55_SMPS*%
X29500000Y-11275000D03*
%TO.P,C15,2*%
%TO.N,GND*%
X29500000Y-9725000D03*
%TD*%
D28*
%TO.P,L_SMPS,1*%
%TO.N,VLX_SMPS*%
X25437500Y-10500000D03*
%TO.P,L_SMPS,2*%
%TO.N,V1V55_SMPS*%
X27562500Y-10500000D03*
%TD*%
D29*
%TO.P,U3,1*%
%TO.N,+3V0*%
X32075000Y-24000000D03*
%TO.P,U3,2*%
%TO.N,I2C1_SCL*%
X32075000Y-25000000D03*
%TO.P,U3,3*%
%TO.N,I2C1_SDA*%
X33925000Y-25000000D03*
%TO.P,U3,4*%
%TO.N,GND*%
X33925000Y-24000000D03*
D30*
%TO.P,U3,5*%
%TO.N,N/C*%
X33000000Y-24500000D03*
%TD*%
D12*
%TO.P,C12,1*%
%TO.N,TCXO_OUT_NODE*%
X31520000Y-20500000D03*
%TO.P,C12,2*%
%TO.N,HSE_IN*%
X32480000Y-20500000D03*
%TD*%
D11*
%TO.P,C21,1*%
%TO.N,VDDA*%
X24000000Y-10980000D03*
%TO.P,C21,2*%
%TO.N,GND*%
X24000000Y-10020000D03*
%TD*%
D18*
%TO.P,R_TCXO,1*%
%TO.N,VDD_TCXO_CTRL*%
X31490000Y-18500000D03*
%TO.P,R_TCXO,2*%
%TO.N,VDD_TCXO*%
X32510000Y-18500000D03*
%TD*%
D12*
%TO.P,C10,1*%
%TO.N,VDDPA_RAIL*%
X14520000Y-19500000D03*
%TO.P,C10,2*%
%TO.N,GND*%
X15480000Y-19500000D03*
%TD*%
D27*
%TO.P,C23,1*%
%TO.N,+3V0*%
X33000000Y-9775000D03*
%TO.P,C23,2*%
%TO.N,GND*%
X33000000Y-8225000D03*
%TD*%
D11*
%TO.P,C7,1*%
%TO.N,VR_PA*%
X23200000Y-24480000D03*
%TO.P,C7,2*%
%TO.N,GND*%
X23200000Y-23520000D03*
%TD*%
D12*
%TO.P,C6,1*%
%TO.N,NRST*%
X14520000Y-15500000D03*
%TO.P,C6,2*%
%TO.N,GND*%
X15480000Y-15500000D03*
%TD*%
%TO.P,C_DC,1*%
%TO.N,RF_PA_OUT*%
X28320000Y-3800000D03*
%TO.P,C_DC,2*%
%TO.N,RF_MATCH_1*%
X29280000Y-3800000D03*
%TD*%
D31*
%TO.P,J1,1*%
%TO.N,VBAT_RAW*%
X6000000Y-9500000D03*
D32*
%TO.P,J1,2*%
%TO.N,GND*%
X8540000Y-9500000D03*
%TD*%
D33*
%TO.P,U1,1*%
%TO.N,SWO*%
X19062500Y-14250000D03*
%TO.P,U1,2*%
%TO.N,N/C*%
X19062500Y-14750000D03*
%TO.P,U1,3*%
X19062500Y-15250000D03*
%TO.P,U1,4*%
X19062500Y-15750000D03*
%TO.P,U1,5*%
X19062500Y-16250000D03*
%TO.P,U1,6*%
X19062500Y-16750000D03*
%TO.P,U1,7*%
%TO.N,MCU_STOP*%
X19062500Y-17250000D03*
%TO.P,U1,8*%
%TO.N,LED_STATUS*%
X19062500Y-17750000D03*
%TO.P,U1,9*%
%TO.N,N/C*%
X19062500Y-18250000D03*
%TO.P,U1,10*%
X19062500Y-18750000D03*
%TO.P,U1,11*%
%TO.N,+3V0*%
X19062500Y-19250000D03*
%TO.P,U1,12*%
%TO.N,N/C*%
X19062500Y-19750000D03*
D34*
%TO.P,U1,13*%
X19750000Y-20437500D03*
%TO.P,U1,14*%
X20250000Y-20437500D03*
%TO.P,U1,15*%
X20750000Y-20437500D03*
%TO.P,U1,16*%
X21250000Y-20437500D03*
%TO.P,U1,17*%
X21750000Y-20437500D03*
%TO.P,U1,18*%
%TO.N,NRST*%
X22250000Y-20437500D03*
%TO.P,U1,19*%
%TO.N,N/C*%
X22750000Y-20437500D03*
%TO.P,U1,20*%
X23250000Y-20437500D03*
%TO.P,U1,21*%
X23750000Y-20437500D03*
%TO.P,U1,22*%
X24250000Y-20437500D03*
%TO.P,U1,23*%
%TO.N,RF_PA_OUT*%
X24750000Y-20437500D03*
%TO.P,U1,24*%
%TO.N,VR_PA*%
X25250000Y-20437500D03*
D33*
%TO.P,U1,25*%
%TO.N,VDDPA_RAIL*%
X25937500Y-19750000D03*
%TO.P,U1,26*%
%TO.N,HSE_IN*%
X25937500Y-19250000D03*
%TO.P,U1,27*%
%TO.N,N/C*%
X25937500Y-18750000D03*
%TO.P,U1,28*%
%TO.N,VDDRF_RAIL*%
X25937500Y-18250000D03*
%TO.P,U1,29*%
%TO.N,V1V55_SMPS*%
X25937500Y-17750000D03*
%TO.P,U1,30*%
%TO.N,VDD_TCXO_CTRL*%
X25937500Y-17250000D03*
%TO.P,U1,31*%
%TO.N,BOOT0*%
X25937500Y-16750000D03*
%TO.P,U1,32*%
%TO.N,N/C*%
X25937500Y-16250000D03*
%TO.P,U1,33*%
X25937500Y-15750000D03*
%TO.P,U1,34*%
%TO.N,I2C1_SCL*%
X25937500Y-15250000D03*
%TO.P,U1,35*%
%TO.N,I2C1_SDA*%
X25937500Y-14750000D03*
%TO.P,U1,36*%
%TO.N,SWDIO*%
X25937500Y-14250000D03*
D34*
%TO.P,U1,37*%
%TO.N,+3V0*%
X25250000Y-13562500D03*
%TO.P,U1,38*%
%TO.N,N/C*%
X24750000Y-13562500D03*
%TO.P,U1,39*%
%TO.N,OSC32_IN*%
X24250000Y-13562500D03*
%TO.P,U1,40*%
%TO.N,OSC32_OUT*%
X23750000Y-13562500D03*
%TO.P,U1,41*%
%TO.N,VDDA*%
X23250000Y-13562500D03*
%TO.P,U1,42*%
%TO.N,SWCLK*%
X22750000Y-13562500D03*
%TO.P,U1,43*%
%TO.N,N/C*%
X22250000Y-13562500D03*
%TO.P,U1,44*%
%TO.N,+3V0*%
X21750000Y-13562500D03*
%TO.P,U1,45*%
%TO.N,V1V55_SMPS*%
X21250000Y-13562500D03*
%TO.P,U1,46*%
%TO.N,+3V0*%
X20750000Y-13562500D03*
%TO.P,U1,47*%
%TO.N,VLX_SMPS*%
X20250000Y-13562500D03*
%TO.P,U1,48*%
%TO.N,GND*%
X19750000Y-13562500D03*
D35*
%TO.P,U1,49*%
X22500000Y-17000000D03*
%TD*%
D17*
%TO.P,L_M1,1*%
%TO.N,RF_MATCH_1*%
X30315000Y-3800000D03*
%TO.P,L_M1,2*%
%TO.N,RF_MATCH_2*%
X31285000Y-3800000D03*
%TD*%
D36*
%TO.N,GND*%
X4950000Y-20950000D03*
D37*
X37870000Y-14630000D03*
D36*
X950000Y-20950000D03*
D38*
X23800000Y-18300000D03*
D36*
X12950000Y-20950000D03*
X16950000Y-16950000D03*
D37*
X29500000Y-9720000D03*
D36*
X12950000Y-12950000D03*
X24950000Y-4950000D03*
D38*
X21200000Y-18300000D03*
D36*
X16950000Y-24950000D03*
D37*
X15180000Y-13500000D03*
D36*
X8950000Y-28950000D03*
X32950000Y-28950000D03*
D37*
X20000000Y-23520000D03*
D38*
X22500000Y-15700000D03*
D37*
X18010000Y-8500000D03*
X24000000Y-10020000D03*
D36*
X40950000Y-16950000D03*
D37*
X36650000Y-16750000D03*
X22500000Y-10020000D03*
D36*
X40950000Y-8950000D03*
X8950000Y-12950000D03*
D38*
X23800000Y-17000000D03*
D36*
X36950000Y-950000D03*
X8950000Y-24950000D03*
X12950000Y-8950000D03*
X4950000Y-16950000D03*
X8950000Y-20950000D03*
D37*
X15180000Y-15500000D03*
X21500000Y-23520000D03*
D38*
X22500000Y-17000000D03*
D36*
X8950000Y-16950000D03*
D37*
X27000000Y-9450000D03*
X23200000Y-23520000D03*
X16270000Y-4750000D03*
D36*
X40950000Y-12950000D03*
X24950000Y-950000D03*
X28950000Y-28950000D03*
X950000Y-16950000D03*
D37*
X26500000Y-23710000D03*
D36*
X24950000Y-28950000D03*
D37*
X31000000Y-10020000D03*
D36*
X40950000Y-20950000D03*
D37*
X19100000Y-5800000D03*
D36*
X12950000Y-28950000D03*
X36950000Y-4950000D03*
X8950000Y-8950000D03*
X950000Y-12950000D03*
X32950000Y-950000D03*
D37*
X36200000Y-20110000D03*
D36*
X16950000Y-12950000D03*
D38*
X21200000Y-17000000D03*
D36*
X950000Y-8950000D03*
X12950000Y-950000D03*
D37*
X24960000Y-23720000D03*
D38*
X21200000Y-15700000D03*
X23800000Y-15700000D03*
D37*
X14780000Y-3800000D03*
D36*
X36950000Y-28950000D03*
X16950000Y-950000D03*
X36950000Y-24950000D03*
X28950000Y-950000D03*
X16950000Y-28950000D03*
X12950000Y-24950000D03*
X20950000Y-28950000D03*
D38*
X22500000Y-18300000D03*
D36*
X8950000Y-950000D03*
D37*
X12600000Y-17500000D03*
D36*
X20950000Y-950000D03*
X32950000Y-16950000D03*
%TO.N,+3V0*%
X21000000Y-10985000D03*
D37*
X21750000Y-13562500D03*
D38*
%TO.N,OSC32_OUT*%
X24738200Y-11499300D03*
X16301100Y-15411300D03*
%TO.N,NRST*%
X23099700Y-22621400D03*
X37409900Y-15750600D03*
X12612500Y-14999700D03*
%TO.N,SWCLK*%
X33447800Y-12018100D03*
X22784400Y-12594700D03*
%TO.N,SWO*%
X36671900Y-12072500D03*
X18599200Y-13339800D03*
%TO.N,VR_PA*%
X18773200Y-20918100D03*
X22612400Y-5910500D03*
%TO.N,VDDPA_RAIL*%
X27747900Y-20490700D03*
X26324500Y-22491500D03*
%TO.N,BOOT0*%
X25160400Y-22562700D03*
X27123600Y-16754700D03*
%TO.N,OSC32_IN*%
X25711300Y-12521100D03*
X16777800Y-14754000D03*
%TO.N,RF_PA_OUT*%
X29398700Y-21453400D03*
X30909400Y-21259900D03*
X24018400Y-21420000D03*
X29034700Y-4800500D03*
%TO.N,LED_STATUS*%
X20387700Y-22409200D03*
X18316900Y-22617200D03*
X18262500Y-28472200D03*
X16707500Y-17965700D03*
%TO.N,V1V55_SMPS*%
X27336300Y-18333400D03*
X21982600Y-12615600D03*
X27716500Y-13638300D03*
%TO.N,I2C1_SCL*%
X28071800Y-15661200D03*
X30643700Y-25498800D03*
%TO.N,VLX_SMPS*%
X21100600Y-9212900D03*
X19925700Y-12058600D03*
%TO.N,HSE_IN*%
X29614800Y-20490700D03*
X26837800Y-21755500D03*
%TO.N,VDD_TCXO_CTRL*%
X28318700Y-17745200D03*
X29769900Y-19544600D03*
%TD*%
%TO.N,VBAT_PROT*%
D39*
X16970500Y-5853300D02*
X16970500Y-6029500D01*
D40*
X16970500Y-6029500D02*
X16970500Y-6175400D01*
X12483800Y-5991200D02*
X13225000Y-6732500D01*
X9712500Y-6800000D02*
X10521300Y-5991200D01*
X12483800Y-5991200D02*
X13225000Y-5250000D01*
X13225000Y-6732500D02*
X13225000Y-6800000D01*
X12483700Y-5991200D02*
X12483800Y-5991200D01*
D39*
X16970500Y-6175400D02*
X16349600Y-6175400D01*
X17000000Y-5823800D02*
X16970500Y-5853300D01*
D40*
X11437500Y-3800000D02*
X13225000Y-3800000D01*
X13225000Y-3800000D02*
X13225000Y-5250000D01*
X17000000Y-5549200D02*
X17000000Y-5823800D01*
D39*
X16349600Y-6175400D02*
X16275000Y-6250000D01*
D40*
X16700800Y-5250000D02*
X17000000Y-5549200D01*
X16275000Y-5250000D02*
X16700800Y-5250000D01*
X10521300Y-5991200D02*
X12483700Y-5991200D01*
X13225000Y-5250000D02*
X16275000Y-5250000D01*
%TO.N,GND*%
D39*
X26500000Y-23490000D02*
X26500000Y-23710000D01*
X15480000Y-13500000D02*
X15180000Y-13500000D01*
X37770000Y-14630000D02*
X37870000Y-14630000D01*
X15480000Y-15500000D02*
X15180000Y-15500000D01*
X24800000Y-23520000D02*
X24960000Y-23720000D01*
X36250000Y-20100000D02*
X36200000Y-20110000D01*
%TO.N,+3V0*%
D40*
X35020000Y-23381100D02*
X35020000Y-24500000D01*
X39617300Y-19828800D02*
X39617300Y-19022300D01*
X16082200Y-16744900D02*
X16082200Y-18252100D01*
X18037500Y-4437500D02*
X17725000Y-4750000D01*
X14520000Y-10980000D02*
X14520000Y-12867600D01*
X16082200Y-18252100D02*
X17005500Y-19175400D01*
X33000000Y-9775000D02*
X34205000Y-9775000D01*
X26495200Y-8931200D02*
X25410300Y-7846300D01*
X20750000Y-11235000D02*
X21000000Y-10985000D01*
X10500000Y-3241800D02*
X10953400Y-2788400D01*
X15122000Y-18132000D02*
X14490000Y-17500000D01*
X20247200Y-10985000D02*
X21000000Y-10985000D01*
X8920700Y-6330000D02*
X10500000Y-4750700D01*
X40097000Y-15533400D02*
X40097000Y-12490700D01*
X20500000Y-4437500D02*
X18037500Y-4437500D01*
X17005500Y-19175400D02*
X17208300Y-19175400D01*
X22641900Y-7388300D02*
X22641900Y-7083100D01*
X22010700Y-4437500D02*
X22010700Y-6285700D01*
X10500000Y-4750700D02*
X10500000Y-3241800D01*
X19062500Y-19250000D02*
X17822300Y-19250000D01*
X12642000Y-10980000D02*
X8920700Y-7258700D01*
X25410300Y-7846300D02*
X23099900Y-7846300D01*
X15763400Y-2788400D02*
X17725000Y-4750000D01*
X17822300Y-19175400D02*
X17822300Y-19250000D01*
X17379500Y-14383900D02*
X17379500Y-15447600D01*
X14520000Y-12867600D02*
X14520000Y-13500000D01*
X22074400Y-7388300D02*
X20242200Y-9220500D01*
X18000000Y-10980000D02*
X14520000Y-10980000D01*
X22010700Y-6285700D02*
X22725000Y-7000000D01*
X16082200Y-18132000D02*
X15122000Y-18132000D01*
X22641900Y-7388300D02*
X22074400Y-7388300D01*
X32156200Y-8931200D02*
X26495200Y-8931200D01*
X32075000Y-23814500D02*
X32508400Y-23381100D01*
X38112700Y-17517700D02*
X35230000Y-14635000D01*
X14520000Y-10980000D02*
X12642000Y-10980000D01*
X20242200Y-10980000D02*
X19500000Y-10980000D01*
X22641900Y-7083100D02*
X22725000Y-7000000D01*
X20750000Y-13562500D02*
X20750000Y-11235000D01*
X36065000Y-23381100D02*
X39617300Y-19828800D01*
X25250000Y-13562500D02*
X25522400Y-13562500D01*
X35020000Y-23381100D02*
X36065000Y-23381100D01*
X29490000Y-24500000D02*
X29490000Y-26500000D01*
X20242200Y-10980000D02*
X20247200Y-10985000D01*
X15863200Y-12867600D02*
X17379500Y-14383900D01*
X10953400Y-2788400D02*
X15763400Y-2788400D01*
X20500000Y-4437500D02*
X22010700Y-4437500D01*
X33000000Y-9775000D02*
X32156200Y-8931200D01*
X8920700Y-7258700D02*
X8920700Y-6330000D01*
X22287500Y-4437500D02*
X22725000Y-4000000D01*
X17715200Y-19357100D02*
X17715200Y-23725200D01*
X25522400Y-13562500D02*
X26495200Y-12589700D01*
X38112700Y-17517700D02*
X40097000Y-15533400D01*
X32508400Y-23381100D02*
X35020000Y-23381100D01*
X17379500Y-15447600D02*
X16082200Y-16744900D01*
X39617300Y-19022300D02*
X38112700Y-17517700D01*
X32075000Y-24000000D02*
X32075000Y-23814500D01*
X17822300Y-19250000D02*
X17715200Y-19357100D01*
X29490000Y-24500000D02*
X30175500Y-23814500D01*
X37086300Y-9480000D02*
X34500000Y-9480000D01*
X26495200Y-12589700D02*
X26495200Y-8931200D01*
X34205000Y-9775000D02*
X34500000Y-9480000D01*
X20242200Y-9220500D02*
X20242200Y-10980000D01*
X23099900Y-7846300D02*
X22641900Y-7388300D01*
X22010700Y-4437500D02*
X22287500Y-4437500D01*
D39*
X17208300Y-19175400D02*
X17822300Y-19175400D01*
D40*
X30175500Y-23814500D02*
X32075000Y-23814500D01*
X14520000Y-12867600D02*
X15863200Y-12867600D01*
X40097000Y-12490700D02*
X37086300Y-9480000D01*
X17715200Y-23725200D02*
X18500000Y-24510000D01*
%TO.N,OSC32_OUT*%
X23750000Y-13562500D02*
X23787800Y-13524700D01*
X7250000Y-14500000D02*
X6020000Y-14500000D01*
X16301100Y-15625100D02*
X15813900Y-16112300D01*
X15813900Y-16112300D02*
X9463600Y-16112300D01*
X23787800Y-12449700D02*
X24738200Y-11499300D01*
X16301100Y-15411300D02*
X16301100Y-15625100D01*
X8051700Y-14700400D02*
X8051700Y-14500000D01*
X7250000Y-14500000D02*
X8051700Y-14500000D01*
X23787800Y-13524700D02*
X23787800Y-12449700D01*
X9463600Y-16112300D02*
X8051700Y-14700400D01*
X6020000Y-14500000D02*
X5020000Y-15500000D01*
%TO.N,SWDIO*%
X35230000Y-13365000D02*
X34815200Y-12950200D01*
X34815200Y-12950200D02*
X29673700Y-12950200D01*
X28373900Y-14250000D02*
X25937500Y-14250000D01*
X29673700Y-12950200D02*
X28373900Y-14250000D01*
%TO.N,NRST*%
X36500000Y-14840700D02*
X36500000Y-14635000D01*
X37409900Y-15750600D02*
X36500000Y-14840700D01*
X23099700Y-22621400D02*
X22250000Y-21771700D01*
X22250000Y-21771700D02*
X22250000Y-20437500D01*
X14019700Y-14999700D02*
X14520000Y-15500000D01*
X12612500Y-14999700D02*
X14019700Y-14999700D01*
%TO.N,SWCLK*%
X22750000Y-13562500D02*
X22750000Y-12629100D01*
X35153100Y-12018100D02*
X36500000Y-13365000D01*
X22750000Y-12629100D02*
X22784400Y-12594700D01*
X33447800Y-12018100D02*
X35153100Y-12018100D01*
%TO.N,SWO*%
X36671900Y-12072500D02*
X37770000Y-13170600D01*
X19062500Y-13803100D02*
X18599200Y-13339800D01*
X19062500Y-14250000D02*
X19062500Y-13803100D01*
X37770000Y-13170600D02*
X37770000Y-13365000D01*
%TO.N,TPS_VSET*%
X16990000Y-8500000D02*
X16990000Y-6985000D01*
X16990000Y-6985000D02*
X17725000Y-6250000D01*
%TO.N,MCU_STOP*%
X17638000Y-9122200D02*
X17639500Y-9120700D01*
X14990000Y-8500000D02*
X15612200Y-9122200D01*
X18586700Y-8906000D02*
X18586700Y-5824600D01*
D39*
X17839700Y-9120700D02*
X17999000Y-9280000D01*
X18586700Y-5824600D02*
X17799600Y-5824600D01*
D40*
X17999000Y-9280000D02*
X18212700Y-9280000D01*
X18601300Y-17250000D02*
X19062500Y-17250000D01*
X17997500Y-13090700D02*
X17997500Y-16646200D01*
D39*
X17799600Y-5824600D02*
X17725000Y-5750000D01*
D40*
X15612200Y-9122200D02*
X17638000Y-9122200D01*
D39*
X17639500Y-9120700D02*
X17839700Y-9120700D01*
D40*
X18655500Y-12432700D02*
X17997500Y-13090700D01*
X18655500Y-9722800D02*
X18655500Y-12432700D01*
X18212700Y-9280000D02*
X18655500Y-9722800D01*
X18212700Y-9280000D02*
X18586700Y-8906000D01*
X17997500Y-16646200D02*
X18601300Y-17250000D01*
%TO.N,TPS_SW*%
X20500000Y-6562500D02*
X20052100Y-6114600D01*
D39*
X20052100Y-5324600D02*
X17799600Y-5324600D01*
X17799600Y-5324600D02*
X17725000Y-5250000D01*
D40*
X20052100Y-6114600D02*
X20052100Y-5324600D01*
%TO.N,VR_PA*%
X25374500Y-5910500D02*
X22612400Y-5910500D01*
X23200000Y-24480000D02*
X24800000Y-24480000D01*
X24137200Y-22499800D02*
X25250000Y-21387000D01*
X22499500Y-23779500D02*
X22499500Y-23529500D01*
X22499500Y-23529500D02*
X20777500Y-21807500D01*
X27000000Y-4285000D02*
X25374500Y-5910500D01*
X23200000Y-24480000D02*
X22499500Y-23779500D01*
X25250000Y-21387000D02*
X25250000Y-20437500D01*
X24800000Y-24480000D02*
X24137200Y-23817200D01*
X19662600Y-21807500D02*
X18773200Y-20918100D01*
X20777500Y-21807500D02*
X19662600Y-21807500D01*
X24137200Y-23817200D02*
X24137200Y-22499800D01*
%TO.N,VDDPA_RAIL*%
X27045300Y-25532200D02*
X27841200Y-24736300D01*
X18328900Y-25290900D02*
X21080600Y-25290900D01*
X27841200Y-20584000D02*
X27747900Y-20490700D01*
D39*
X14860500Y-16879300D02*
X14740800Y-16879300D01*
D40*
X14575900Y-16714400D02*
X14660300Y-16798800D01*
X14889300Y-16879300D02*
X14860500Y-16879300D01*
X25937500Y-22104500D02*
X26324500Y-22491500D01*
X14520000Y-19500000D02*
X14520000Y-21482000D01*
D39*
X12689400Y-18276100D02*
X13560700Y-18276100D01*
D40*
X27841200Y-24736300D02*
X27841200Y-20584000D01*
X12020000Y-18276100D02*
X12020000Y-19500000D01*
X12020000Y-18276100D02*
X12689400Y-18276100D01*
D39*
X14740800Y-16879300D02*
X14660300Y-16798800D01*
D40*
X14520000Y-19235400D02*
X14520000Y-19500000D01*
X15510000Y-17500000D02*
X14889300Y-16879300D01*
X12020000Y-17795000D02*
X12020000Y-18276100D01*
X11725000Y-17500000D02*
X12510600Y-16714400D01*
X21080600Y-25290900D02*
X21321900Y-25532200D01*
X21321900Y-25532200D02*
X27045300Y-25532200D01*
X11725000Y-17500000D02*
X12020000Y-17795000D01*
X12510600Y-16714400D02*
X14575900Y-16714400D01*
X25937500Y-19750000D02*
X25937500Y-22104500D01*
D39*
X13560700Y-18276100D02*
X14520000Y-19235400D01*
D40*
X14520000Y-21482000D02*
X18328900Y-25290900D01*
%TO.N,RF_MATCH_2*%
X32315000Y-3800000D02*
X31650400Y-3800000D01*
X31467700Y-3982700D02*
X31467700Y-6012300D01*
X31285000Y-3800000D02*
X31467700Y-3982700D01*
X31467700Y-6012300D02*
X30800000Y-6680000D01*
X31650400Y-3800000D02*
X31467700Y-3982700D01*
%TO.N,RF_ANT_50R*%
X33419100Y-3934100D02*
X33419100Y-6060900D01*
D39*
X33010300Y-7473900D02*
X32800000Y-7263600D01*
D40*
X33285000Y-3800000D02*
X33419100Y-3934100D01*
X36000000Y-7985000D02*
X35488900Y-7473900D01*
X35488900Y-7473900D02*
X35098900Y-7473900D01*
X33285000Y-3800000D02*
X34975000Y-3800000D01*
X32800000Y-7263600D02*
X32800000Y-6680000D01*
D39*
X35098900Y-7473900D02*
X33010300Y-7473900D01*
D40*
X33419100Y-6060900D02*
X32800000Y-6680000D01*
%TO.N,BOOT0*%
X25666500Y-23068800D02*
X25160400Y-22562700D01*
X25937500Y-16750000D02*
X27118900Y-16750000D01*
X26500000Y-24510000D02*
X25666500Y-23676500D01*
X27118900Y-16750000D02*
X27123600Y-16754700D01*
X25666500Y-23676500D02*
X25666500Y-23068800D01*
%TO.N,OSC32_IN*%
X8948300Y-14500000D02*
X8948300Y-14367300D01*
X24250000Y-13101300D02*
X24830200Y-12521100D01*
X16329100Y-14305300D02*
X16777800Y-14754000D01*
X9750000Y-14500000D02*
X8948300Y-14500000D01*
X10746400Y-14305300D02*
X16329100Y-14305300D01*
X5633900Y-12886100D02*
X5020000Y-13500000D01*
X24830200Y-12521100D02*
X25711300Y-12521100D01*
X24250000Y-13562500D02*
X24250000Y-13101300D01*
X7467100Y-12886100D02*
X5633900Y-12886100D01*
X10551700Y-14500000D02*
X10746400Y-14305300D01*
X8948300Y-14367300D02*
X7467100Y-12886100D01*
X9750000Y-14500000D02*
X10551700Y-14500000D01*
%TO.N,VDDRF_RAIL*%
X26395900Y-18250000D02*
X25937500Y-18250000D01*
X19010000Y-23490000D02*
X20000000Y-24480000D01*
X21500000Y-24480000D02*
X20000000Y-24480000D01*
X27439500Y-22004700D02*
X27439500Y-21506300D01*
X21500000Y-24480000D02*
X22110900Y-25090900D01*
X27145800Y-24863700D02*
X27145800Y-22298400D01*
X27439500Y-21506300D02*
X27145800Y-21212600D01*
X22110900Y-25090900D02*
X26918600Y-25090900D01*
X27145800Y-21212600D02*
X27145800Y-18999900D01*
X27145800Y-18999900D02*
X26395900Y-18250000D01*
X26918600Y-25090900D02*
X27145800Y-24863700D01*
X18500000Y-23490000D02*
X19010000Y-23490000D01*
X27145800Y-22298400D02*
X27439500Y-22004700D01*
%TO.N,I2C1_SDA*%
X30510000Y-26500000D02*
X32498200Y-26500000D01*
X28687400Y-26704300D02*
X28687400Y-18227400D01*
X28022600Y-14750000D02*
X25937500Y-14750000D01*
X28687400Y-18227400D02*
X28920400Y-17994400D01*
X32498200Y-26500000D02*
X33925000Y-25073200D01*
X29108400Y-27125300D02*
X28687400Y-26704300D01*
X28920400Y-17994400D02*
X28920400Y-15647800D01*
X28920400Y-15647800D02*
X28022600Y-14750000D01*
X29884700Y-27125300D02*
X29108400Y-27125300D01*
X30510000Y-26500000D02*
X29884700Y-27125300D01*
X33925000Y-25073200D02*
X33925000Y-25000000D01*
%TO.N,VBAT_RAW*%
X6000000Y-9500000D02*
X6000000Y-7362500D01*
X6000000Y-7362500D02*
X9562500Y-3800000D01*
%TO.N,VDDA*%
X21000000Y-10015000D02*
X21535000Y-10015000D01*
X21535000Y-10015000D02*
X22500000Y-10980000D01*
X23250000Y-13562500D02*
X23250000Y-12980000D01*
X22500000Y-10980000D02*
X23386100Y-10980000D01*
X23386100Y-10980000D02*
X24000000Y-10980000D01*
X23250000Y-12980000D02*
X23386100Y-12843900D01*
X23386100Y-12843900D02*
X23386100Y-10980000D01*
%TO.N,RF_PA_OUT*%
X27835000Y-3315000D02*
X28320000Y-3800000D01*
X29398700Y-21453400D02*
X30715900Y-21453400D01*
X30715900Y-21453400D02*
X30909400Y-21259900D01*
X24220500Y-21420000D02*
X24018400Y-21420000D01*
X24750000Y-20890500D02*
X24220500Y-21420000D01*
X24750000Y-20437500D02*
X24750000Y-20890500D01*
X28320000Y-4085800D02*
X28320000Y-3800000D01*
X29034700Y-4800500D02*
X28320000Y-4085800D01*
X27000000Y-3315000D02*
X27835000Y-3315000D01*
%TO.N,VDD_TCXO*%
X34750000Y-18900000D02*
X35497800Y-18152200D01*
X34350000Y-18500000D02*
X34750000Y-18900000D01*
X35497800Y-18152200D02*
X36672200Y-18152200D01*
X36672200Y-18152200D02*
X38020000Y-19500000D01*
X32510000Y-18500000D02*
X34350000Y-18500000D01*
%TO.N,TCXO_OUT_NODE*%
X36398800Y-21123300D02*
X32143300Y-21123300D01*
X37079700Y-19729700D02*
X37079700Y-20442400D01*
X32143300Y-21123300D02*
X31520000Y-20500000D01*
X36250000Y-18900000D02*
X37079700Y-19729700D01*
X37079700Y-20442400D02*
X36398800Y-21123300D01*
%TO.N,LED_CATHODE_NODE*%
X17513100Y-25699400D02*
X18889400Y-25699400D01*
X18889400Y-25699400D02*
X19690000Y-26500000D01*
X16712500Y-26500000D02*
X17513100Y-25699400D01*
%TO.N,LED_STATUS*%
X18262500Y-28472200D02*
X18287500Y-28447200D01*
X18287500Y-28447200D02*
X18287500Y-26500000D01*
X16923200Y-17750000D02*
X16707500Y-17965700D01*
X19062500Y-17750000D02*
X16923200Y-17750000D01*
X20387700Y-22409200D02*
X20179700Y-22617200D01*
X20179700Y-22617200D02*
X18316900Y-22617200D01*
%TO.N,V1V55_SMPS*%
X28337500Y-11275000D02*
X29500000Y-11275000D01*
X21250000Y-13562500D02*
X21250000Y-13036600D01*
X27283200Y-18333400D02*
X27336300Y-18333400D01*
X29500000Y-11854800D02*
X27716500Y-13638300D01*
X29500000Y-11275000D02*
X30705000Y-11275000D01*
X30705000Y-11275000D02*
X31000000Y-10980000D01*
X29500000Y-11275000D02*
X29500000Y-11854800D01*
X27562500Y-10500000D02*
X28337500Y-11275000D01*
X21250000Y-13036600D02*
X21671000Y-12615600D01*
X21671000Y-12615600D02*
X21982600Y-12615600D01*
X25937500Y-17750000D02*
X26699800Y-17750000D01*
X26699800Y-17750000D02*
X27283200Y-18333400D01*
%TO.N,I2C1_SCL*%
X27660600Y-15250000D02*
X28071800Y-15661200D01*
X25937500Y-15250000D02*
X27660600Y-15250000D01*
X30510000Y-24500000D02*
X31575000Y-24500000D01*
X31575000Y-24500000D02*
X32075000Y-25000000D01*
X32075000Y-25000000D02*
X31576200Y-25498800D01*
X31576200Y-25498800D02*
X30643700Y-25498800D01*
%TO.N,VLX_SMPS*%
X24150400Y-9212900D02*
X21100600Y-9212900D01*
X25437500Y-10500000D02*
X24150400Y-9212900D01*
X20250000Y-13562500D02*
X20250000Y-12382900D01*
X20250000Y-12382900D02*
X19925700Y-12058600D01*
%TO.N,HSE_IN*%
X29614800Y-20490700D02*
X29674700Y-20490700D01*
X26429600Y-19250000D02*
X26724700Y-19545100D01*
X29674700Y-20490700D02*
X30352700Y-19812700D01*
X26724700Y-19545100D02*
X26724700Y-21642400D01*
X30352700Y-19812700D02*
X31792700Y-19812700D01*
X26724700Y-21642400D02*
X26837800Y-21755500D01*
X25937500Y-19250000D02*
X26429600Y-19250000D01*
X31792700Y-19812700D02*
X32480000Y-20500000D01*
%TO.N,VDD_TCXO_CTRL*%
X28318700Y-17745200D02*
X28123500Y-17550000D01*
X26767800Y-17250000D02*
X25937500Y-17250000D01*
X30814500Y-18500000D02*
X29769900Y-19544600D01*
X31490000Y-18500000D02*
X30814500Y-18500000D01*
X28123500Y-17550000D02*
X27067800Y-17550000D01*
X27067800Y-17550000D02*
X26767800Y-17250000D01*
%TO.N,RF_MATCH_1*%
X30315000Y-3800000D02*
X29280000Y-3800000D01*
%TD*%
%TA.AperFunction,Conductor*%
%TO.N,GND*%
G36*
X21006709Y-22461680D02*
G01*
X22177326Y-23632297D01*
X22199000Y-23684623D01*
X22199000Y-23819064D01*
X22219477Y-23895485D01*
X22219479Y-23895490D01*
X22254716Y-23956521D01*
X22254717Y-23956524D01*
X22259035Y-23964004D01*
X22259041Y-23964012D01*
X22667826Y-24372797D01*
X22689500Y-24425123D01*
X22689500Y-24659899D01*
X22695667Y-24706743D01*
X22681007Y-24761450D01*
X22631957Y-24789767D01*
X22622300Y-24790400D01*
X22266023Y-24790400D01*
X22213697Y-24768726D01*
X22032173Y-24587202D01*
X22010499Y-24534876D01*
X22010499Y-24300100D01*
X22003972Y-24250514D01*
X22003972Y-24250513D01*
X21953224Y-24141684D01*
X21868316Y-24056776D01*
X21759487Y-24006028D01*
X21759485Y-24006027D01*
X21722955Y-24001218D01*
X21709901Y-23999500D01*
X21709899Y-23999500D01*
X21290100Y-23999500D01*
X21240514Y-24006027D01*
X21240512Y-24006028D01*
X21131683Y-24056776D01*
X21046776Y-24141683D01*
X21043063Y-24146987D01*
X21040144Y-24144943D01*
X21007324Y-24175032D01*
X20981999Y-24179500D01*
X20518001Y-24179500D01*
X20465675Y-24157826D01*
X20457708Y-24146446D01*
X20456937Y-24146987D01*
X20453223Y-24141683D01*
X20368316Y-24056776D01*
X20259487Y-24006028D01*
X20259485Y-24006027D01*
X20222955Y-24001218D01*
X20209901Y-23999500D01*
X20209899Y-23999500D01*
X19975123Y-23999500D01*
X19922797Y-23977826D01*
X19194511Y-23249540D01*
X19194405Y-23249479D01*
X19194315Y-23249427D01*
X19125990Y-23209979D01*
X19125985Y-23209977D01*
X19049564Y-23189500D01*
X19049562Y-23189500D01*
X19023526Y-23189500D01*
X18971200Y-23167826D01*
X18965493Y-23161024D01*
X18880404Y-23075935D01*
X18853094Y-23063200D01*
X18843586Y-23058766D01*
X18805324Y-23017009D01*
X18807794Y-22960426D01*
X18849552Y-22922163D01*
X18874861Y-22917700D01*
X20219263Y-22917700D01*
X20235267Y-22913411D01*
X20266310Y-22905093D01*
X20304615Y-22905093D01*
X20321808Y-22909700D01*
X20453594Y-22909700D01*
X20453594Y-22909699D01*
X20580886Y-22875592D01*
X20695014Y-22809700D01*
X20788200Y-22716514D01*
X20854092Y-22602386D01*
X20882905Y-22494852D01*
X20917383Y-22449920D01*
X20973535Y-22442527D01*
X21006709Y-22461680D01*
G37*
%TD.AperFunction*%
%TA.AperFunction,Conductor*%
G36*
X24638226Y-22528396D02*
G01*
X24659900Y-22580722D01*
X24659900Y-22628594D01*
X24694006Y-22755881D01*
X24694010Y-22755890D01*
X24727901Y-22814590D01*
X24759900Y-22870014D01*
X24853086Y-22963200D01*
X24967214Y-23029092D01*
X25094505Y-23063199D01*
X25094506Y-23063200D01*
X25205277Y-23063200D01*
X25257603Y-23084874D01*
X25344326Y-23171597D01*
X25366000Y-23223923D01*
X25366000Y-23716064D01*
X25386477Y-23792485D01*
X25386479Y-23792490D01*
X25396313Y-23809522D01*
X25426040Y-23861011D01*
X25957826Y-24392797D01*
X25979500Y-24445123D01*
X25979500Y-24684316D01*
X25982452Y-24706743D01*
X25967792Y-24761450D01*
X25918742Y-24789767D01*
X25909085Y-24790400D01*
X25377700Y-24790400D01*
X25325374Y-24768726D01*
X25303700Y-24716400D01*
X25304333Y-24706743D01*
X25310500Y-24659901D01*
X25310499Y-24300100D01*
X25303972Y-24250513D01*
X25253224Y-24141684D01*
X25168316Y-24056776D01*
X25059487Y-24006028D01*
X25059485Y-24006027D01*
X25022955Y-24001218D01*
X25009901Y-23999500D01*
X25009899Y-23999500D01*
X24775123Y-23999500D01*
X24722797Y-23977826D01*
X24459374Y-23714403D01*
X24437700Y-23662077D01*
X24437700Y-22654922D01*
X24459373Y-22602597D01*
X24533575Y-22528395D01*
X24585900Y-22506722D01*
X24638226Y-22528396D01*
G37*
%TD.AperFunction*%
%TA.AperFunction,Conductor*%
G36*
X18408756Y-19572174D02*
G01*
X18430430Y-19624500D01*
X18429008Y-19638936D01*
X18424500Y-19661599D01*
X18424500Y-19838399D01*
X18439760Y-19915117D01*
X18493605Y-19995703D01*
X18497888Y-20002112D01*
X18584883Y-20060240D01*
X18661599Y-20075500D01*
X19350500Y-20075499D01*
X19402826Y-20097173D01*
X19424500Y-20149499D01*
X19424500Y-20838399D01*
X19439760Y-20915117D01*
X19490858Y-20991592D01*
X19497888Y-21002112D01*
X19584883Y-21060240D01*
X19661599Y-21075500D01*
X19838400Y-21075499D01*
X19915117Y-21060240D01*
X19958888Y-21030992D01*
X20014437Y-21019944D01*
X20041111Y-21030992D01*
X20084883Y-21060240D01*
X20161599Y-21075500D01*
X20338400Y-21075499D01*
X20415117Y-21060240D01*
X20458888Y-21030992D01*
X20514437Y-21019944D01*
X20541111Y-21030992D01*
X20584883Y-21060240D01*
X20661599Y-21075500D01*
X20838400Y-21075499D01*
X20915117Y-21060240D01*
X20958888Y-21030992D01*
X21014437Y-21019944D01*
X21041111Y-21030992D01*
X21084883Y-21060240D01*
X21161599Y-21075500D01*
X21338400Y-21075499D01*
X21415117Y-21060240D01*
X21458888Y-21030992D01*
X21514437Y-21019944D01*
X21541111Y-21030992D01*
X21584883Y-21060240D01*
X21661599Y-21075500D01*
X21838400Y-21075499D01*
X21861064Y-21070991D01*
X21916613Y-21082041D01*
X21948078Y-21129133D01*
X21949500Y-21143569D01*
X21949500Y-21811264D01*
X21969977Y-21887685D01*
X21969979Y-21887690D01*
X22008203Y-21953894D01*
X22008204Y-21953897D01*
X22009539Y-21956210D01*
X22577526Y-22524197D01*
X22599200Y-22576523D01*
X22599200Y-22687294D01*
X22633306Y-22814581D01*
X22633310Y-22814590D01*
X22678003Y-22892000D01*
X22699200Y-22928714D01*
X22792386Y-23021900D01*
X22906514Y-23087792D01*
X23033805Y-23121899D01*
X23033806Y-23121900D01*
X23033808Y-23121900D01*
X23165594Y-23121900D01*
X23165594Y-23121899D01*
X23292886Y-23087792D01*
X23407014Y-23021900D01*
X23500200Y-22928714D01*
X23566092Y-22814586D01*
X23600199Y-22687294D01*
X23600200Y-22687294D01*
X23600200Y-22555506D01*
X23600199Y-22555505D01*
X23584471Y-22496808D01*
X23566092Y-22428214D01*
X23500200Y-22314086D01*
X23407014Y-22220900D01*
X23391826Y-22212131D01*
X23292890Y-22155010D01*
X23292881Y-22155006D01*
X23165594Y-22120900D01*
X23165592Y-22120900D01*
X23054823Y-22120900D01*
X23002497Y-22099226D01*
X22572174Y-21668903D01*
X22550500Y-21616577D01*
X22550500Y-21143569D01*
X22572174Y-21091243D01*
X22624500Y-21069569D01*
X22638923Y-21070989D01*
X22661599Y-21075500D01*
X22838400Y-21075499D01*
X22915117Y-21060240D01*
X22958888Y-21030992D01*
X23014437Y-21019944D01*
X23041111Y-21030992D01*
X23084883Y-21060240D01*
X23161599Y-21075500D01*
X23338400Y-21075499D01*
X23415117Y-21060240D01*
X23458888Y-21030992D01*
X23473324Y-21028121D01*
X23485563Y-21019944D01*
X23500000Y-21022815D01*
X23514437Y-21019944D01*
X23541111Y-21030992D01*
X23567404Y-21048561D01*
X23572930Y-21052253D01*
X23604396Y-21099345D01*
X23595904Y-21150781D01*
X23552011Y-21226805D01*
X23552006Y-21226818D01*
X23517900Y-21354105D01*
X23517900Y-21485894D01*
X23552006Y-21613181D01*
X23552010Y-21613190D01*
X23579267Y-21660400D01*
X23617900Y-21727314D01*
X23711086Y-21820500D01*
X23825214Y-21886392D01*
X23952505Y-21920499D01*
X23952506Y-21920500D01*
X23952508Y-21920500D01*
X24084293Y-21920500D01*
X24092988Y-21918169D01*
X24100619Y-21916125D01*
X24156771Y-21923516D01*
X24191251Y-21968449D01*
X24183860Y-22024601D01*
X24172099Y-22039929D01*
X23952689Y-22259340D01*
X23896740Y-22315288D01*
X23857179Y-22383809D01*
X23857177Y-22383814D01*
X23836700Y-22460235D01*
X23836700Y-23856764D01*
X23857177Y-23933185D01*
X23857180Y-23933191D01*
X23895459Y-23999493D01*
X23896739Y-24001710D01*
X23948203Y-24053174D01*
X23969877Y-24105500D01*
X23948203Y-24157826D01*
X23895877Y-24179500D01*
X23718001Y-24179500D01*
X23665675Y-24157826D01*
X23657708Y-24146446D01*
X23656937Y-24146987D01*
X23653223Y-24141683D01*
X23568316Y-24056776D01*
X23459487Y-24006028D01*
X23459485Y-24006027D01*
X23422955Y-24001218D01*
X23409901Y-23999500D01*
X23409899Y-23999500D01*
X23175123Y-23999500D01*
X23122797Y-23977826D01*
X22821674Y-23676703D01*
X22800000Y-23624377D01*
X22800000Y-23489936D01*
X22792779Y-23462989D01*
X22785558Y-23436040D01*
X22785558Y-23436038D01*
X22779523Y-23413516D01*
X22779522Y-23413512D01*
X22739960Y-23344989D01*
X20962011Y-21567040D01*
X20924941Y-21545638D01*
X20908880Y-21536365D01*
X20893490Y-21527479D01*
X20893485Y-21527477D01*
X20817064Y-21507000D01*
X20817062Y-21507000D01*
X19817723Y-21507000D01*
X19765397Y-21485326D01*
X19295374Y-21015303D01*
X19273700Y-20962977D01*
X19273700Y-20852206D01*
X19273699Y-20852205D01*
X19257971Y-20793508D01*
X19239592Y-20724914D01*
X19173700Y-20610786D01*
X19080514Y-20517600D01*
X18966390Y-20451710D01*
X18966381Y-20451706D01*
X18839094Y-20417600D01*
X18839092Y-20417600D01*
X18707308Y-20417600D01*
X18707306Y-20417600D01*
X18580018Y-20451706D01*
X18580009Y-20451710D01*
X18465885Y-20517600D01*
X18372700Y-20610785D01*
X18306810Y-20724909D01*
X18306806Y-20724918D01*
X18272700Y-20852205D01*
X18272700Y-20983994D01*
X18306806Y-21111281D01*
X18306810Y-21111290D01*
X18330834Y-21152900D01*
X18372700Y-21225414D01*
X18465886Y-21318600D01*
X18580014Y-21384492D01*
X18707305Y-21418599D01*
X18707306Y-21418600D01*
X18818077Y-21418600D01*
X18870403Y-21440274D01*
X19478089Y-22047960D01*
X19546612Y-22087522D01*
X19623038Y-22108000D01*
X19855498Y-22108000D01*
X19907824Y-22129674D01*
X19929498Y-22182000D01*
X19926460Y-22202986D01*
X19923971Y-22211400D01*
X19921308Y-22216014D01*
X19908782Y-22262762D01*
X19908509Y-22263686D01*
X19891250Y-22285017D01*
X19874547Y-22306786D01*
X19873386Y-22307096D01*
X19872885Y-22307717D01*
X19869894Y-22308032D01*
X19837547Y-22316700D01*
X18754866Y-22316700D01*
X18702540Y-22295026D01*
X18624214Y-22216700D01*
X18510090Y-22150810D01*
X18510081Y-22150806D01*
X18382794Y-22116700D01*
X18382792Y-22116700D01*
X18251008Y-22116700D01*
X18251006Y-22116700D01*
X18123718Y-22150806D01*
X18119229Y-22152666D01*
X18118212Y-22150211D01*
X18070507Y-22156465D01*
X18025593Y-22121961D01*
X18015700Y-22084997D01*
X18015700Y-19624500D01*
X18037374Y-19572174D01*
X18089700Y-19550500D01*
X18356430Y-19550500D01*
X18408756Y-19572174D01*
G37*
%TD.AperFunction*%
%TA.AperFunction,Conductor*%
G36*
X33592057Y-13253600D02*
G01*
X33599492Y-13252122D01*
X33617438Y-13264113D01*
X33637381Y-13272374D01*
X33640281Y-13279376D01*
X33646584Y-13283588D01*
X33650794Y-13304758D01*
X33659055Y-13324700D01*
X33656154Y-13331702D01*
X33657633Y-13339137D01*
X33645641Y-13357083D01*
X33637381Y-13377026D01*
X33626170Y-13386225D01*
X33606305Y-13399500D01*
X33516453Y-13459536D01*
X33516452Y-13459538D01*
X33419538Y-13556452D01*
X33419536Y-13556453D01*
X33343387Y-13670419D01*
X33290940Y-13797038D01*
X33290937Y-13797049D01*
X33268475Y-13909978D01*
X33264200Y-13931470D01*
X33264200Y-14068530D01*
X33268658Y-14090943D01*
X33290937Y-14202950D01*
X33290940Y-14202961D01*
X33343387Y-14329580D01*
X33343389Y-14329583D01*
X33343390Y-14329585D01*
X33349280Y-14338400D01*
X33419533Y-14443542D01*
X33419537Y-14443547D01*
X33516453Y-14540463D01*
X33630415Y-14616610D01*
X33630420Y-14616612D01*
X33630419Y-14616612D01*
X33757038Y-14669059D01*
X33757043Y-14669061D01*
X33891470Y-14695800D01*
X33891471Y-14695800D01*
X34028529Y-14695800D01*
X34028530Y-14695800D01*
X34162957Y-14669061D01*
X34289585Y-14616610D01*
X34403547Y-14540463D01*
X34500463Y-14443547D01*
X34528043Y-14402269D01*
X34575134Y-14370803D01*
X34630683Y-14381852D01*
X34662150Y-14428943D01*
X34661051Y-14462533D01*
X34635800Y-14556772D01*
X34635800Y-14713230D01*
X34676292Y-14864349D01*
X34676294Y-14864354D01*
X34754519Y-14999843D01*
X34754520Y-14999844D01*
X34754522Y-14999847D01*
X34865153Y-15110478D01*
X34865155Y-15110479D01*
X34865156Y-15110480D01*
X35000645Y-15188705D01*
X35000647Y-15188706D01*
X35000648Y-15188706D01*
X35000650Y-15188707D01*
X35053332Y-15202823D01*
X35151769Y-15229199D01*
X35151770Y-15229200D01*
X35151772Y-15229200D01*
X35308229Y-15229200D01*
X35319973Y-15226052D01*
X35338729Y-15221027D01*
X35394880Y-15228418D01*
X35410208Y-15240179D01*
X39295126Y-19125097D01*
X39316800Y-19177423D01*
X39316800Y-19673677D01*
X39295126Y-19726003D01*
X35962203Y-23058926D01*
X35909877Y-23080600D01*
X32468836Y-23080600D01*
X32392414Y-23101077D01*
X32392409Y-23101079D01*
X32356348Y-23121900D01*
X32323888Y-23140640D01*
X31972203Y-23492326D01*
X31919877Y-23514000D01*
X30135936Y-23514000D01*
X30059514Y-23534477D01*
X30059509Y-23534479D01*
X30005589Y-23565611D01*
X29990988Y-23574040D01*
X29607203Y-23957826D01*
X29554877Y-23979500D01*
X29315684Y-23979500D01*
X29304318Y-23980996D01*
X29266828Y-23985931D01*
X29159595Y-24035935D01*
X29114226Y-24081305D01*
X29061900Y-24102979D01*
X29009574Y-24081305D01*
X28987900Y-24028979D01*
X28987900Y-21922324D01*
X29009574Y-21869998D01*
X29061900Y-21848324D01*
X29098899Y-21858237D01*
X29205514Y-21919792D01*
X29332805Y-21953899D01*
X29332806Y-21953900D01*
X29332808Y-21953900D01*
X29464594Y-21953900D01*
X29464594Y-21953899D01*
X29591886Y-21919792D01*
X29706014Y-21853900D01*
X29784340Y-21775574D01*
X29836666Y-21753900D01*
X30755463Y-21753900D01*
X30759641Y-21752780D01*
X30768199Y-21750486D01*
X30806507Y-21750486D01*
X30819249Y-21753900D01*
X30843505Y-21760399D01*
X30843506Y-21760400D01*
X30843508Y-21760400D01*
X30975294Y-21760400D01*
X30975294Y-21760399D01*
X31102586Y-21726292D01*
X31216714Y-21660400D01*
X31309900Y-21567214D01*
X31375792Y-21453086D01*
X31409899Y-21325794D01*
X31409900Y-21325794D01*
X31409900Y-21194008D01*
X31387735Y-21111286D01*
X31385689Y-21103650D01*
X31386994Y-21093736D01*
X31383168Y-21084499D01*
X31390560Y-21066652D01*
X31393082Y-21047499D01*
X31401015Y-21041411D01*
X31404842Y-21032173D01*
X31422689Y-21024780D01*
X31438016Y-21013020D01*
X31457168Y-21010499D01*
X31574876Y-21010499D01*
X31627202Y-21032173D01*
X31902840Y-21307811D01*
X31958789Y-21363760D01*
X32027311Y-21403321D01*
X32027312Y-21403321D01*
X32027314Y-21403322D01*
X32065524Y-21413560D01*
X32103735Y-21423799D01*
X32103736Y-21423800D01*
X32103738Y-21423800D01*
X36438364Y-21423800D01*
X36438364Y-21423799D01*
X36514789Y-21403321D01*
X36583311Y-21363760D01*
X36639260Y-21307811D01*
X37320160Y-20626911D01*
X37341470Y-20590000D01*
X37359721Y-20558389D01*
X37380199Y-20481964D01*
X37380200Y-20481964D01*
X37380200Y-19690136D01*
X37380199Y-19690135D01*
X37359722Y-19613714D01*
X37359720Y-19613709D01*
X37328850Y-19560241D01*
X37320160Y-19545189D01*
X37264211Y-19489240D01*
X36922173Y-19147202D01*
X36900499Y-19094876D01*
X36900499Y-18984122D01*
X36922173Y-18931796D01*
X36974499Y-18910122D01*
X37026825Y-18931796D01*
X37517826Y-19422797D01*
X37539500Y-19475123D01*
X37539500Y-19709899D01*
X37546027Y-19759485D01*
X37546028Y-19759487D01*
X37596776Y-19868316D01*
X37681684Y-19953224D01*
X37790513Y-20003972D01*
X37840099Y-20010500D01*
X38199900Y-20010499D01*
X38249487Y-20003972D01*
X38358316Y-19953224D01*
X38443224Y-19868316D01*
X38493972Y-19759487D01*
X38500500Y-19709901D01*
X38500499Y-19290100D01*
X38493972Y-19240513D01*
X38443224Y-19131684D01*
X38358316Y-19046776D01*
X38249487Y-18996028D01*
X38249485Y-18996027D01*
X38208256Y-18990600D01*
X38199901Y-18989500D01*
X38199899Y-18989500D01*
X37965123Y-18989500D01*
X37912797Y-18967826D01*
X36856711Y-17911740D01*
X36821723Y-17891540D01*
X36788190Y-17872179D01*
X36788185Y-17872177D01*
X36711764Y-17851700D01*
X36711762Y-17851700D01*
X35458238Y-17851700D01*
X35458236Y-17851700D01*
X35381814Y-17872177D01*
X35381809Y-17872179D01*
X35348277Y-17891540D01*
X35313288Y-17911740D01*
X34947202Y-18277826D01*
X34894876Y-18299500D01*
X34605123Y-18299500D01*
X34559764Y-18283969D01*
X34556089Y-18281118D01*
X34534511Y-18259540D01*
X34514502Y-18247988D01*
X34494054Y-18236182D01*
X34465990Y-18219979D01*
X34465985Y-18219977D01*
X34389564Y-18199500D01*
X34389562Y-18199500D01*
X33008468Y-18199500D01*
X32956142Y-18177826D01*
X32941401Y-18156773D01*
X32924066Y-18119597D01*
X32840404Y-18035935D01*
X32793510Y-18014068D01*
X32733173Y-17985932D01*
X32733171Y-17985931D01*
X32697178Y-17981193D01*
X32684316Y-17979500D01*
X32335684Y-17979500D01*
X32324318Y-17980996D01*
X32286828Y-17985931D01*
X32179595Y-18035935D01*
X32095935Y-18119595D01*
X32083763Y-18145699D01*
X32069867Y-18175500D01*
X32067067Y-18181504D01*
X32025309Y-18219767D01*
X31968726Y-18217297D01*
X31932933Y-18181504D01*
X31931218Y-18177826D01*
X31904065Y-18119596D01*
X31820404Y-18035935D01*
X31713173Y-17985932D01*
X31713171Y-17985931D01*
X31677178Y-17981193D01*
X31664316Y-17979500D01*
X31315684Y-17979500D01*
X31304318Y-17980996D01*
X31266828Y-17985931D01*
X31159595Y-18035935D01*
X31075933Y-18119597D01*
X31058599Y-18156773D01*
X31016842Y-18195037D01*
X30991532Y-18199500D01*
X30774936Y-18199500D01*
X30698514Y-18219977D01*
X30698509Y-18219979D01*
X30649998Y-18247988D01*
X30629988Y-18259540D01*
X29867102Y-19022426D01*
X29814776Y-19044100D01*
X29704006Y-19044100D01*
X29576718Y-19078206D01*
X29576709Y-19078210D01*
X29462585Y-19144100D01*
X29369400Y-19237285D01*
X29303510Y-19351409D01*
X29303506Y-19351418D01*
X29269400Y-19478705D01*
X29269400Y-19610494D01*
X29303506Y-19737781D01*
X29303510Y-19737790D01*
X29369400Y-19851914D01*
X29429612Y-19912126D01*
X29451286Y-19964452D01*
X29429612Y-20016778D01*
X29414286Y-20028538D01*
X29307485Y-20090200D01*
X29214300Y-20183385D01*
X29148410Y-20297509D01*
X29148406Y-20297518D01*
X29133378Y-20353606D01*
X29098900Y-20398539D01*
X29042747Y-20405931D01*
X28997814Y-20371453D01*
X28987900Y-20334453D01*
X28987900Y-18382522D01*
X29009573Y-18330197D01*
X29160860Y-18178911D01*
X29200422Y-18110388D01*
X29220900Y-18033962D01*
X29220900Y-17954838D01*
X29220900Y-15608238D01*
X29220900Y-15608236D01*
X29220899Y-15608235D01*
X29219894Y-15604486D01*
X29207283Y-15557418D01*
X29200422Y-15531814D01*
X29200420Y-15531809D01*
X29169487Y-15478232D01*
X29160860Y-15463289D01*
X29104911Y-15407340D01*
X28373418Y-14675847D01*
X28351744Y-14623521D01*
X28373418Y-14571195D01*
X28409252Y-14553531D01*
X28408777Y-14551756D01*
X28489885Y-14530022D01*
X28489884Y-14530022D01*
X28489889Y-14530021D01*
X28558411Y-14490460D01*
X28614360Y-14434511D01*
X29776497Y-13272374D01*
X29828823Y-13250700D01*
X33585055Y-13250700D01*
X33592057Y-13253600D01*
G37*
%TD.AperFunction*%
%TA.AperFunction,Conductor*%
G36*
X26823626Y-22804840D02*
G01*
X26845300Y-22857166D01*
X26845300Y-23971046D01*
X26823626Y-24023372D01*
X26771300Y-24045046D01*
X26761643Y-24044413D01*
X26724317Y-24039500D01*
X26724316Y-24039500D01*
X26485123Y-24039500D01*
X26432797Y-24017826D01*
X25988674Y-23573703D01*
X25967000Y-23521377D01*
X25967000Y-23029238D01*
X25964854Y-23021229D01*
X25960551Y-23005171D01*
X25967942Y-22949020D01*
X26012874Y-22914540D01*
X26069027Y-22921931D01*
X26069029Y-22921932D01*
X26080776Y-22928714D01*
X26131314Y-22957892D01*
X26258605Y-22991999D01*
X26258606Y-22992000D01*
X26258608Y-22992000D01*
X26390394Y-22992000D01*
X26390394Y-22991999D01*
X26517686Y-22957892D01*
X26631814Y-22892000D01*
X26718974Y-22804840D01*
X26771300Y-22783166D01*
X26823626Y-22804840D01*
G37*
%TD.AperFunction*%
%TA.AperFunction,Conductor*%
G36*
X14060925Y-17036574D02*
G01*
X14082599Y-17088900D01*
X14075666Y-17120171D01*
X14056349Y-17161599D01*
X14025931Y-17226828D01*
X14019500Y-17275685D01*
X14019500Y-17724314D01*
X14025931Y-17773171D01*
X14025932Y-17773173D01*
X14075935Y-17880404D01*
X14159596Y-17964065D01*
X14266827Y-18014068D01*
X14315684Y-18020500D01*
X14554877Y-18020500D01*
X14607203Y-18042174D01*
X14881540Y-18316511D01*
X14937489Y-18372460D01*
X15006011Y-18412021D01*
X15006012Y-18412021D01*
X15006014Y-18412022D01*
X15017565Y-18415117D01*
X15082435Y-18432499D01*
X15082436Y-18432500D01*
X15082438Y-18432500D01*
X15806977Y-18432500D01*
X15859303Y-18454174D01*
X16765040Y-19359911D01*
X16820989Y-19415860D01*
X16889511Y-19455421D01*
X16889512Y-19455421D01*
X16889514Y-19455422D01*
X16902453Y-19458889D01*
X16965935Y-19475899D01*
X16965936Y-19475900D01*
X16965938Y-19475900D01*
X17247863Y-19475900D01*
X17265749Y-19471107D01*
X17321548Y-19456155D01*
X17377699Y-19463546D01*
X17412178Y-19508479D01*
X17414700Y-19527633D01*
X17414700Y-23769612D01*
X17413075Y-23769612D01*
X17399930Y-23818655D01*
X17350879Y-23846970D01*
X17296172Y-23832307D01*
X17288899Y-23825928D01*
X14842174Y-21379203D01*
X14820500Y-21326877D01*
X14820500Y-20018000D01*
X14842174Y-19965674D01*
X14853556Y-19957710D01*
X14853014Y-19956936D01*
X14858311Y-19953225D01*
X14858316Y-19953224D01*
X14943224Y-19868316D01*
X14993972Y-19759487D01*
X15000500Y-19709901D01*
X15000499Y-19290100D01*
X14993972Y-19240513D01*
X14943224Y-19131684D01*
X14858316Y-19046776D01*
X14749487Y-18996028D01*
X14749485Y-18996027D01*
X14708259Y-18990600D01*
X14681196Y-18981478D01*
X14680951Y-18981338D01*
X14635989Y-18955379D01*
X14635136Y-18955150D01*
X14630270Y-18952369D01*
X14627879Y-18949282D01*
X14614666Y-18940450D01*
X13716759Y-18042544D01*
X13716757Y-18042542D01*
X13648014Y-18014068D01*
X13615500Y-18000600D01*
X13615499Y-18000600D01*
X12831022Y-18000600D01*
X12810302Y-17996478D01*
X12810073Y-17997334D01*
X12728964Y-17975600D01*
X12728962Y-17975600D01*
X12431525Y-17975600D01*
X12379199Y-17953926D01*
X12357525Y-17901600D01*
X12359520Y-17888990D01*
X12358808Y-17888878D01*
X12375500Y-17783488D01*
X12375500Y-17305123D01*
X12397174Y-17252797D01*
X12613397Y-17036574D01*
X12665723Y-17014900D01*
X14008599Y-17014900D01*
X14060925Y-17036574D01*
G37*
%TD.AperFunction*%
%TA.AperFunction,Conductor*%
G36*
X35532739Y-18580850D02*
G01*
X35538671Y-18579425D01*
X35558236Y-18591411D01*
X35579430Y-18600190D01*
X35581764Y-18605825D01*
X35586966Y-18609012D01*
X35592325Y-18631320D01*
X35601105Y-18652515D01*
X35600196Y-18664082D01*
X35599500Y-18668480D01*
X35599500Y-19131519D01*
X35614353Y-19225304D01*
X35614354Y-19225306D01*
X35647369Y-19290100D01*
X35671950Y-19338342D01*
X35761658Y-19428050D01*
X35874696Y-19485646D01*
X35968481Y-19500500D01*
X36394876Y-19500499D01*
X36447202Y-19522173D01*
X36757526Y-19832497D01*
X36779200Y-19884823D01*
X36779200Y-20287277D01*
X36757526Y-20339603D01*
X36296003Y-20801126D01*
X36243677Y-20822800D01*
X33030017Y-20822800D01*
X32977691Y-20801126D01*
X32956017Y-20748800D01*
X32956649Y-20739150D01*
X32960500Y-20709901D01*
X32960499Y-20290100D01*
X32953972Y-20240513D01*
X32903224Y-20131684D01*
X32818316Y-20046776D01*
X32709487Y-19996028D01*
X32709485Y-19996027D01*
X32672955Y-19991218D01*
X32659901Y-19989500D01*
X32659899Y-19989500D01*
X32425123Y-19989500D01*
X32372797Y-19967826D01*
X31977212Y-19572241D01*
X31977211Y-19572240D01*
X31956426Y-19560240D01*
X31930357Y-19545189D01*
X31908690Y-19532679D01*
X31908685Y-19532677D01*
X31832264Y-19512200D01*
X31832262Y-19512200D01*
X30405922Y-19512200D01*
X30353596Y-19490526D01*
X30331922Y-19438200D01*
X30353596Y-19385874D01*
X30607787Y-19131684D01*
X30917297Y-18822174D01*
X30969623Y-18800500D01*
X30991532Y-18800500D01*
X31043858Y-18822174D01*
X31058599Y-18843227D01*
X31075933Y-18880402D01*
X31075935Y-18880404D01*
X31159596Y-18964065D01*
X31266827Y-19014068D01*
X31315684Y-19020500D01*
X31315686Y-19020500D01*
X31664314Y-19020500D01*
X31664316Y-19020500D01*
X31713173Y-19014068D01*
X31820404Y-18964065D01*
X31904065Y-18880404D01*
X31932933Y-18818495D01*
X31974690Y-18780232D01*
X32031273Y-18782702D01*
X32067067Y-18818496D01*
X32095933Y-18880402D01*
X32095935Y-18880404D01*
X32179596Y-18964065D01*
X32286827Y-19014068D01*
X32335684Y-19020500D01*
X32335686Y-19020500D01*
X32684314Y-19020500D01*
X32684316Y-19020500D01*
X32733173Y-19014068D01*
X32840404Y-18964065D01*
X32924065Y-18880404D01*
X32941401Y-18843227D01*
X32983158Y-18804963D01*
X33008468Y-18800500D01*
X34025500Y-18800500D01*
X34077826Y-18822174D01*
X34099500Y-18874500D01*
X34099500Y-19131519D01*
X34114353Y-19225304D01*
X34114354Y-19225306D01*
X34147369Y-19290100D01*
X34171950Y-19338342D01*
X34261658Y-19428050D01*
X34374696Y-19485646D01*
X34468481Y-19500500D01*
X35031518Y-19500499D01*
X35031519Y-19500499D01*
X35125304Y-19485646D01*
X35125306Y-19485645D01*
X35127419Y-19484568D01*
X35238342Y-19428050D01*
X35328050Y-19338342D01*
X35385646Y-19225304D01*
X35400500Y-19131519D01*
X35400499Y-18705122D01*
X35422173Y-18652798D01*
X35474779Y-18600191D01*
X35480414Y-18597856D01*
X35483601Y-18592655D01*
X35505909Y-18587295D01*
X35527104Y-18578516D01*
X35532739Y-18580850D01*
G37*
%TD.AperFunction*%
%TA.AperFunction,Conductor*%
G36*
X19082326Y-11353866D02*
G01*
X19131684Y-11403224D01*
X19240513Y-11453972D01*
X19290099Y-11460500D01*
X19684468Y-11460499D01*
X19736794Y-11482173D01*
X19758468Y-11534499D01*
X19736794Y-11586825D01*
X19721468Y-11598585D01*
X19618385Y-11658100D01*
X19525200Y-11751285D01*
X19459310Y-11865409D01*
X19459306Y-11865418D01*
X19425200Y-11992705D01*
X19425200Y-12124494D01*
X19459306Y-12251781D01*
X19459310Y-12251790D01*
X19487804Y-12301143D01*
X19525200Y-12365914D01*
X19618386Y-12459100D01*
X19732514Y-12524992D01*
X19859805Y-12559099D01*
X19859806Y-12559100D01*
X19859808Y-12559100D01*
X19875500Y-12559100D01*
X19927826Y-12580774D01*
X19949500Y-12633100D01*
X19949500Y-13047858D01*
X19940562Y-13077326D01*
X19942549Y-13078149D01*
X19939760Y-13084881D01*
X19924500Y-13161600D01*
X19924500Y-13963399D01*
X19939760Y-14040117D01*
X19969671Y-14084883D01*
X19997888Y-14127112D01*
X20084883Y-14185240D01*
X20161599Y-14200500D01*
X20338400Y-14200499D01*
X20415117Y-14185240D01*
X20458888Y-14155992D01*
X20514437Y-14144944D01*
X20541111Y-14155992D01*
X20584883Y-14185240D01*
X20661599Y-14200500D01*
X20838400Y-14200499D01*
X20915117Y-14185240D01*
X20958888Y-14155992D01*
X21014437Y-14144944D01*
X21041111Y-14155992D01*
X21084883Y-14185240D01*
X21161599Y-14200500D01*
X21338400Y-14200499D01*
X21415117Y-14185240D01*
X21458888Y-14155992D01*
X21514437Y-14144944D01*
X21541111Y-14155992D01*
X21584883Y-14185240D01*
X21661599Y-14200500D01*
X21838400Y-14200499D01*
X21915117Y-14185240D01*
X21958888Y-14155992D01*
X22014437Y-14144944D01*
X22041111Y-14155992D01*
X22084883Y-14185240D01*
X22161599Y-14200500D01*
X22338400Y-14200499D01*
X22415117Y-14185240D01*
X22458888Y-14155992D01*
X22514437Y-14144944D01*
X22541111Y-14155992D01*
X22584883Y-14185240D01*
X22661599Y-14200500D01*
X22838400Y-14200499D01*
X22915117Y-14185240D01*
X22958888Y-14155992D01*
X23014437Y-14144944D01*
X23041111Y-14155992D01*
X23084883Y-14185240D01*
X23161599Y-14200500D01*
X23338400Y-14200499D01*
X23415117Y-14185240D01*
X23458888Y-14155992D01*
X23514437Y-14144944D01*
X23541111Y-14155992D01*
X23584883Y-14185240D01*
X23661599Y-14200500D01*
X23838400Y-14200499D01*
X23915117Y-14185240D01*
X23958888Y-14155992D01*
X24014437Y-14144944D01*
X24041111Y-14155992D01*
X24084883Y-14185240D01*
X24161599Y-14200500D01*
X24338400Y-14200499D01*
X24415117Y-14185240D01*
X24458888Y-14155992D01*
X24514437Y-14144944D01*
X24541111Y-14155992D01*
X24584883Y-14185240D01*
X24661599Y-14200500D01*
X24838400Y-14200499D01*
X24915117Y-14185240D01*
X24958888Y-14155992D01*
X25014437Y-14144944D01*
X25041111Y-14155992D01*
X25084883Y-14185240D01*
X25161599Y-14200500D01*
X25225500Y-14200499D01*
X25277825Y-14222172D01*
X25299500Y-14274498D01*
X25299500Y-14338399D01*
X25314760Y-14415117D01*
X25314761Y-14415120D01*
X25344006Y-14458889D01*
X25355055Y-14514438D01*
X25344006Y-14541111D01*
X25314760Y-14584881D01*
X25299500Y-14661600D01*
X25299500Y-14838399D01*
X25314760Y-14915117D01*
X25314761Y-14915120D01*
X25344006Y-14958889D01*
X25355055Y-15014438D01*
X25344006Y-15041111D01*
X25314760Y-15084881D01*
X25299500Y-15161600D01*
X25299500Y-15338399D01*
X25314760Y-15415117D01*
X25314761Y-15415120D01*
X25344006Y-15458889D01*
X25355055Y-15514438D01*
X25344006Y-15541111D01*
X25314760Y-15584881D01*
X25299500Y-15661600D01*
X25299500Y-15838399D01*
X25314760Y-15915117D01*
X25314761Y-15915120D01*
X25344006Y-15958889D01*
X25355055Y-16014438D01*
X25344006Y-16041111D01*
X25314760Y-16084881D01*
X25306264Y-16127593D01*
X25301589Y-16151100D01*
X25299500Y-16161600D01*
X25299500Y-16338399D01*
X25314760Y-16415117D01*
X25314761Y-16415120D01*
X25344006Y-16458889D01*
X25355055Y-16514438D01*
X25344006Y-16541111D01*
X25314760Y-16584881D01*
X25299500Y-16661600D01*
X25299500Y-16838399D01*
X25314760Y-16915117D01*
X25314761Y-16915120D01*
X25344006Y-16958889D01*
X25355055Y-17014438D01*
X25344006Y-17041111D01*
X25314760Y-17084881D01*
X25299500Y-17161600D01*
X25299500Y-17338399D01*
X25314760Y-17415117D01*
X25314761Y-17415120D01*
X25344006Y-17458889D01*
X25355055Y-17514438D01*
X25344006Y-17541111D01*
X25314760Y-17584881D01*
X25299500Y-17661600D01*
X25299500Y-17838399D01*
X25314760Y-17915117D01*
X25314761Y-17915120D01*
X25344006Y-17958889D01*
X25355055Y-18014438D01*
X25344006Y-18041111D01*
X25314760Y-18084881D01*
X25299500Y-18161600D01*
X25299500Y-18338399D01*
X25314760Y-18415117D01*
X25314761Y-18415120D01*
X25344006Y-18458889D01*
X25355055Y-18514438D01*
X25344006Y-18541111D01*
X25314760Y-18584881D01*
X25299500Y-18661600D01*
X25299500Y-18838399D01*
X25314760Y-18915117D01*
X25314761Y-18915120D01*
X25344006Y-18958889D01*
X25355055Y-19014438D01*
X25344006Y-19041111D01*
X25314760Y-19084881D01*
X25299500Y-19161600D01*
X25299500Y-19338399D01*
X25314760Y-19415117D01*
X25314761Y-19415120D01*
X25344006Y-19458889D01*
X25355055Y-19514438D01*
X25344006Y-19541111D01*
X25314760Y-19584881D01*
X25299500Y-19661600D01*
X25299500Y-19725500D01*
X25277826Y-19777826D01*
X25225501Y-19799500D01*
X25161600Y-19799500D01*
X25084882Y-19814760D01*
X25084879Y-19814761D01*
X25041111Y-19844006D01*
X24985562Y-19855055D01*
X24958889Y-19844006D01*
X24915118Y-19814760D01*
X24889545Y-19809673D01*
X24838401Y-19799500D01*
X24838399Y-19799500D01*
X24661600Y-19799500D01*
X24584882Y-19814760D01*
X24584879Y-19814761D01*
X24541111Y-19844006D01*
X24485562Y-19855055D01*
X24458889Y-19844006D01*
X24415118Y-19814760D01*
X24389545Y-19809673D01*
X24338401Y-19799500D01*
X24338399Y-19799500D01*
X24161600Y-19799500D01*
X24084882Y-19814760D01*
X24084879Y-19814761D01*
X24041111Y-19844006D01*
X23985562Y-19855055D01*
X23958889Y-19844006D01*
X23915118Y-19814760D01*
X23889545Y-19809673D01*
X23838401Y-19799500D01*
X23838399Y-19799500D01*
X23661600Y-19799500D01*
X23584882Y-19814760D01*
X23584879Y-19814761D01*
X23541111Y-19844006D01*
X23485562Y-19855055D01*
X23458889Y-19844006D01*
X23415118Y-19814760D01*
X23389545Y-19809673D01*
X23338401Y-19799500D01*
X23338399Y-19799500D01*
X23161600Y-19799500D01*
X23084882Y-19814760D01*
X23084879Y-19814761D01*
X23041111Y-19844006D01*
X22985562Y-19855055D01*
X22958889Y-19844006D01*
X22915118Y-19814760D01*
X22889545Y-19809673D01*
X22838401Y-19799500D01*
X22838399Y-19799500D01*
X22661600Y-19799500D01*
X22584882Y-19814760D01*
X22584879Y-19814761D01*
X22541111Y-19844006D01*
X22485562Y-19855055D01*
X22458889Y-19844006D01*
X22415118Y-19814760D01*
X22389545Y-19809673D01*
X22338401Y-19799500D01*
X22338399Y-19799500D01*
X22161600Y-19799500D01*
X22084882Y-19814760D01*
X22084879Y-19814761D01*
X22041111Y-19844006D01*
X21985562Y-19855055D01*
X21958889Y-19844006D01*
X21915118Y-19814760D01*
X21889545Y-19809673D01*
X21838401Y-19799500D01*
X21838399Y-19799500D01*
X21661600Y-19799500D01*
X21584882Y-19814760D01*
X21584879Y-19814761D01*
X21541111Y-19844006D01*
X21485562Y-19855055D01*
X21458889Y-19844006D01*
X21415118Y-19814760D01*
X21389545Y-19809673D01*
X21338401Y-19799500D01*
X21338399Y-19799500D01*
X21161600Y-19799500D01*
X21084882Y-19814760D01*
X21084879Y-19814761D01*
X21041111Y-19844006D01*
X20985562Y-19855055D01*
X20958889Y-19844006D01*
X20915118Y-19814760D01*
X20889545Y-19809673D01*
X20838401Y-19799500D01*
X20838399Y-19799500D01*
X20661600Y-19799500D01*
X20584882Y-19814760D01*
X20584879Y-19814761D01*
X20541111Y-19844006D01*
X20485562Y-19855055D01*
X20458889Y-19844006D01*
X20415118Y-19814760D01*
X20389545Y-19809673D01*
X20338401Y-19799500D01*
X20338399Y-19799500D01*
X20161600Y-19799500D01*
X20084882Y-19814760D01*
X20084879Y-19814761D01*
X20041111Y-19844006D01*
X19985562Y-19855055D01*
X19958889Y-19844006D01*
X19915118Y-19814760D01*
X19889545Y-19809673D01*
X19838401Y-19799500D01*
X19838399Y-19799500D01*
X19774499Y-19799500D01*
X19722173Y-19777826D01*
X19700499Y-19725500D01*
X19700499Y-19661601D01*
X19695991Y-19638936D01*
X19685240Y-19584883D01*
X19655992Y-19541111D01*
X19644944Y-19485563D01*
X19655993Y-19458888D01*
X19658310Y-19455420D01*
X19685240Y-19415117D01*
X19700500Y-19338401D01*
X19700499Y-19161600D01*
X19685240Y-19084883D01*
X19655992Y-19041111D01*
X19644944Y-18985563D01*
X19655993Y-18958888D01*
X19662266Y-18949500D01*
X19685240Y-18915117D01*
X19700500Y-18838401D01*
X19700499Y-18661600D01*
X19685240Y-18584883D01*
X19655992Y-18541111D01*
X19644944Y-18485563D01*
X19655993Y-18458888D01*
X19670878Y-18436611D01*
X19685240Y-18415117D01*
X19700500Y-18338401D01*
X19700499Y-18161600D01*
X19685240Y-18084883D01*
X19655992Y-18041111D01*
X19644944Y-17985563D01*
X19655993Y-17958888D01*
X19658699Y-17954838D01*
X19685240Y-17915117D01*
X19700500Y-17838401D01*
X19700499Y-17661600D01*
X19685240Y-17584883D01*
X19655992Y-17541111D01*
X19644944Y-17485563D01*
X19655993Y-17458888D01*
X19685240Y-17415117D01*
X19700500Y-17338401D01*
X19700499Y-17161600D01*
X19685240Y-17084883D01*
X19655992Y-17041111D01*
X19644944Y-16985563D01*
X19655993Y-16958888D01*
X19656703Y-16957826D01*
X19685240Y-16915117D01*
X19700500Y-16838401D01*
X19700499Y-16661600D01*
X19685240Y-16584883D01*
X19655992Y-16541111D01*
X19644944Y-16485563D01*
X19655993Y-16458888D01*
X19662266Y-16449500D01*
X19685240Y-16415117D01*
X19700500Y-16338401D01*
X19700499Y-16161600D01*
X19685240Y-16084883D01*
X19655992Y-16041111D01*
X19644944Y-15985563D01*
X19655993Y-15958888D01*
X19685240Y-15915117D01*
X19700500Y-15838401D01*
X19700499Y-15661600D01*
X19685240Y-15584883D01*
X19655992Y-15541111D01*
X19644944Y-15485563D01*
X19655993Y-15458888D01*
X19666418Y-15443286D01*
X19685240Y-15415117D01*
X19700500Y-15338401D01*
X19700499Y-15161600D01*
X19685240Y-15084883D01*
X19655992Y-15041111D01*
X19644944Y-14985563D01*
X19655993Y-14958888D01*
X19665334Y-14944908D01*
X19685240Y-14915117D01*
X19700500Y-14838401D01*
X19700499Y-14661600D01*
X19685240Y-14584883D01*
X19655992Y-14541111D01*
X19644944Y-14485563D01*
X19655993Y-14458888D01*
X19666243Y-14443548D01*
X19685240Y-14415117D01*
X19700500Y-14338401D01*
X19700499Y-14161600D01*
X19685240Y-14084883D01*
X19627112Y-13997888D01*
X19615082Y-13989850D01*
X19540117Y-13939760D01*
X19520782Y-13935914D01*
X19463401Y-13924500D01*
X19463399Y-13924500D01*
X19437000Y-13924500D01*
X19384674Y-13902826D01*
X19363000Y-13850500D01*
X19363000Y-13763536D01*
X19362999Y-13763535D01*
X19361914Y-13759487D01*
X19348628Y-13709901D01*
X19342522Y-13687114D01*
X19342520Y-13687109D01*
X19308449Y-13628097D01*
X19302960Y-13618589D01*
X19247011Y-13562640D01*
X19121374Y-13437003D01*
X19099700Y-13384677D01*
X19099700Y-13273906D01*
X19099699Y-13273905D01*
X19094258Y-13253600D01*
X19065592Y-13146614D01*
X18999700Y-13032486D01*
X18906514Y-12939300D01*
X18884385Y-12926524D01*
X18792390Y-12873410D01*
X18792388Y-12873409D01*
X18792386Y-12873408D01*
X18792383Y-12873407D01*
X18787908Y-12871554D01*
X18788939Y-12869063D01*
X18750864Y-12839811D01*
X18743505Y-12783654D01*
X18762644Y-12750526D01*
X18895960Y-12617211D01*
X18935522Y-12548688D01*
X18956000Y-12472262D01*
X18956000Y-12393138D01*
X18956000Y-11406192D01*
X18977674Y-11353866D01*
X19030000Y-11332192D01*
X19082326Y-11353866D01*
G37*
%TD.AperFunction*%
%TA.AperFunction,Conductor*%
G36*
X17675326Y-15681397D02*
G01*
X17697000Y-15733723D01*
X17697000Y-16685764D01*
X17717477Y-16762185D01*
X17717479Y-16762190D01*
X17751197Y-16820590D01*
X17751199Y-16820593D01*
X17757040Y-16830711D01*
X18249503Y-17323174D01*
X18271177Y-17375500D01*
X18249503Y-17427826D01*
X18197177Y-17449500D01*
X16883638Y-17449500D01*
X16848599Y-17458889D01*
X16818373Y-17466988D01*
X16780073Y-17466989D01*
X16773394Y-17465200D01*
X16773392Y-17465200D01*
X16641608Y-17465200D01*
X16641606Y-17465200D01*
X16514318Y-17499306D01*
X16514305Y-17499311D01*
X16493699Y-17511209D01*
X16437547Y-17518601D01*
X16392614Y-17484122D01*
X16382700Y-17447123D01*
X16382700Y-16900023D01*
X16404374Y-16847697D01*
X17570674Y-15681397D01*
X17623000Y-15659723D01*
X17675326Y-15681397D01*
G37*
%TD.AperFunction*%
%TA.AperFunction,Conductor*%
G36*
X39757387Y-13282033D02*
G01*
X39793315Y-13325816D01*
X39796500Y-13347293D01*
X39796500Y-14652706D01*
X39774826Y-14705032D01*
X39722500Y-14726706D01*
X39670174Y-14705032D01*
X39657243Y-14687599D01*
X39656613Y-14686420D01*
X39655337Y-14684511D01*
X39580463Y-14572453D01*
X39483547Y-14475537D01*
X39475405Y-14470097D01*
X39435672Y-14443548D01*
X39369585Y-14399390D01*
X39369581Y-14399388D01*
X39369579Y-14399387D01*
X39369580Y-14399387D01*
X39242961Y-14346940D01*
X39242950Y-14346937D01*
X39141680Y-14326793D01*
X39108530Y-14320200D01*
X38971470Y-14320200D01*
X38944877Y-14325489D01*
X38837049Y-14346937D01*
X38837038Y-14346940D01*
X38710419Y-14399387D01*
X38596453Y-14475536D01*
X38596452Y-14475538D01*
X38499538Y-14572452D01*
X38499536Y-14572453D01*
X38423387Y-14686419D01*
X38370940Y-14813038D01*
X38370937Y-14813049D01*
X38344710Y-14944906D01*
X38344200Y-14947470D01*
X38344200Y-15084530D01*
X38348070Y-15103985D01*
X38370937Y-15218950D01*
X38370940Y-15218961D01*
X38423387Y-15345580D01*
X38423389Y-15345583D01*
X38423390Y-15345585D01*
X38459882Y-15400199D01*
X38499096Y-15458888D01*
X38499537Y-15459547D01*
X38596453Y-15556463D01*
X38710415Y-15632610D01*
X38710420Y-15632612D01*
X38710419Y-15632612D01*
X38836186Y-15684706D01*
X38837043Y-15685061D01*
X38971470Y-15711800D01*
X38971471Y-15711800D01*
X39108529Y-15711800D01*
X39108530Y-15711800D01*
X39242957Y-15685061D01*
X39369585Y-15632610D01*
X39369587Y-15632608D01*
X39372821Y-15631269D01*
X39429458Y-15631269D01*
X39469507Y-15671317D01*
X39469507Y-15727954D01*
X39453466Y-15751962D01*
X38165026Y-17040403D01*
X38112700Y-17062077D01*
X38060374Y-17040403D01*
X37397397Y-16377426D01*
X37375723Y-16325100D01*
X37397397Y-16272774D01*
X37449723Y-16251100D01*
X37475794Y-16251100D01*
X37475794Y-16251099D01*
X37603086Y-16216992D01*
X37717214Y-16151100D01*
X37810400Y-16057914D01*
X37876292Y-15943786D01*
X37910399Y-15816494D01*
X37910400Y-15816494D01*
X37910400Y-15684706D01*
X37910399Y-15684705D01*
X37908019Y-15675824D01*
X37876292Y-15557414D01*
X37810400Y-15443286D01*
X37717214Y-15350100D01*
X37630785Y-15300200D01*
X37603090Y-15284210D01*
X37603081Y-15284206D01*
X37475794Y-15250100D01*
X37475792Y-15250100D01*
X37365023Y-15250100D01*
X37312697Y-15228426D01*
X37055394Y-14971123D01*
X37033720Y-14918797D01*
X37043634Y-14881797D01*
X37053706Y-14864353D01*
X37094199Y-14713230D01*
X37094200Y-14713230D01*
X37094200Y-14556770D01*
X37094199Y-14556769D01*
X37093331Y-14553531D01*
X37068387Y-14460436D01*
X37053707Y-14405650D01*
X37053705Y-14405645D01*
X36975480Y-14270156D01*
X36975479Y-14270155D01*
X36975478Y-14270153D01*
X36864847Y-14159522D01*
X36864844Y-14159520D01*
X36864843Y-14159519D01*
X36729354Y-14081294D01*
X36717470Y-14078110D01*
X36692719Y-14071478D01*
X36647787Y-14037000D01*
X36640394Y-13980848D01*
X36674873Y-13935914D01*
X36692717Y-13928522D01*
X36729353Y-13918706D01*
X36864847Y-13840478D01*
X36975478Y-13729847D01*
X37053706Y-13594353D01*
X37063521Y-13557719D01*
X37098000Y-13512787D01*
X37154152Y-13505394D01*
X37199086Y-13539873D01*
X37206477Y-13557717D01*
X37208671Y-13565903D01*
X37216294Y-13594354D01*
X37294519Y-13729843D01*
X37294520Y-13729844D01*
X37294522Y-13729847D01*
X37405153Y-13840478D01*
X37405155Y-13840479D01*
X37405156Y-13840480D01*
X37540645Y-13918705D01*
X37540647Y-13918706D01*
X37540648Y-13918706D01*
X37540650Y-13918707D01*
X37604868Y-13935914D01*
X37691769Y-13959199D01*
X37691770Y-13959200D01*
X37691772Y-13959200D01*
X37848230Y-13959200D01*
X37848230Y-13959199D01*
X37999353Y-13918706D01*
X38134847Y-13840478D01*
X38245478Y-13729847D01*
X38323706Y-13594353D01*
X38363666Y-13445219D01*
X38398144Y-13400287D01*
X38454296Y-13392894D01*
X38496671Y-13423258D01*
X38499537Y-13427547D01*
X38596453Y-13524463D01*
X38710415Y-13600610D01*
X38710420Y-13600612D01*
X38710419Y-13600612D01*
X38837038Y-13653059D01*
X38837043Y-13653061D01*
X38971470Y-13679800D01*
X38971471Y-13679800D01*
X39108529Y-13679800D01*
X39108530Y-13679800D01*
X39242957Y-13653061D01*
X39369585Y-13600610D01*
X39483547Y-13524463D01*
X39580463Y-13427547D01*
X39656610Y-13313585D01*
X39656612Y-13313579D01*
X39657240Y-13312406D01*
X39657587Y-13312120D01*
X39658629Y-13310562D01*
X39659102Y-13310878D01*
X39701023Y-13276478D01*
X39757387Y-13282033D01*
G37*
%TD.AperFunction*%
%TA.AperFunction,Conductor*%
G36*
X16226303Y-14627474D02*
G01*
X16255626Y-14656797D01*
X16266143Y-14682188D01*
X16277277Y-14707297D01*
X16277300Y-14708228D01*
X16277300Y-14819892D01*
X16280335Y-14831220D01*
X16280553Y-14840035D01*
X16260177Y-14892880D01*
X16225729Y-14913339D01*
X16107918Y-14944906D01*
X16107909Y-14944910D01*
X15993785Y-15010800D01*
X15900600Y-15103985D01*
X15834710Y-15218109D01*
X15834706Y-15218118D01*
X15800600Y-15345405D01*
X15800600Y-15477194D01*
X15835963Y-15609170D01*
X15833958Y-15609707D01*
X15833951Y-15659316D01*
X15817914Y-15683312D01*
X15711103Y-15790125D01*
X15658778Y-15811800D01*
X15071466Y-15811800D01*
X15019140Y-15790126D01*
X14997466Y-15737800D01*
X14998099Y-15728143D01*
X14999445Y-15717911D01*
X15000500Y-15709901D01*
X15000499Y-15290100D01*
X14993972Y-15240513D01*
X14943224Y-15131684D01*
X14858316Y-15046776D01*
X14749487Y-14996028D01*
X14749485Y-14996027D01*
X14712955Y-14991218D01*
X14699901Y-14989500D01*
X14699899Y-14989500D01*
X14465123Y-14989500D01*
X14412797Y-14967826D01*
X14204211Y-14759240D01*
X14189918Y-14750988D01*
X14177617Y-14743886D01*
X14143138Y-14698953D01*
X14150531Y-14642800D01*
X14195464Y-14608321D01*
X14214617Y-14605800D01*
X16173977Y-14605800D01*
X16226303Y-14627474D01*
G37*
%TD.AperFunction*%
%TA.AperFunction,Conductor*%
G36*
X17494165Y-11285539D02*
G01*
X17507324Y-11284968D01*
X17519307Y-11295953D01*
X17534325Y-11302174D01*
X17542291Y-11313553D01*
X17543063Y-11313013D01*
X17546776Y-11318316D01*
X17631684Y-11403224D01*
X17740513Y-11453972D01*
X17790099Y-11460500D01*
X18209900Y-11460499D01*
X18259487Y-11453972D01*
X18259492Y-11453969D01*
X18260297Y-11453736D01*
X18260833Y-11453794D01*
X18265101Y-11453233D01*
X18265238Y-11454277D01*
X18316597Y-11459905D01*
X18352045Y-11504078D01*
X18355000Y-11524781D01*
X18355000Y-12277577D01*
X18333326Y-12329903D01*
X17757040Y-12906188D01*
X17717479Y-12974709D01*
X17717477Y-12974714D01*
X17697000Y-13051135D01*
X17697000Y-14097777D01*
X17675326Y-14150103D01*
X17623000Y-14171777D01*
X17570674Y-14150103D01*
X16047711Y-12627140D01*
X16030513Y-12617211D01*
X16011232Y-12606079D01*
X15979190Y-12587579D01*
X15979185Y-12587577D01*
X15902764Y-12567100D01*
X15902762Y-12567100D01*
X14894500Y-12567100D01*
X14842174Y-12545426D01*
X14820500Y-12493100D01*
X14820500Y-11354500D01*
X14842174Y-11302174D01*
X14894500Y-11280500D01*
X17481999Y-11280500D01*
X17494165Y-11285539D01*
G37*
%TD.AperFunction*%
%TA.AperFunction,Conductor*%
G36*
X15760403Y-13189774D02*
G01*
X16455827Y-13885198D01*
X16477501Y-13937524D01*
X16455827Y-13989850D01*
X16403501Y-14011524D01*
X16384350Y-14009003D01*
X16368663Y-14004800D01*
X16368662Y-14004800D01*
X14985392Y-14004800D01*
X14933066Y-13983126D01*
X14911392Y-13930800D01*
X14933066Y-13878474D01*
X14943224Y-13868316D01*
X14993972Y-13759487D01*
X15000500Y-13709901D01*
X15000499Y-13290100D01*
X14995452Y-13251756D01*
X15010112Y-13197050D01*
X15059162Y-13168733D01*
X15068819Y-13168100D01*
X15708077Y-13168100D01*
X15760403Y-13189774D01*
G37*
%TD.AperFunction*%
%TA.AperFunction,Conductor*%
G36*
X32053403Y-9253374D02*
G01*
X32302826Y-9502797D01*
X32324500Y-9555123D01*
X32324500Y-10033488D01*
X32340280Y-10133125D01*
X32340281Y-10133126D01*
X32401472Y-10253220D01*
X32496780Y-10348528D01*
X32616874Y-10409719D01*
X32716511Y-10425500D01*
X32716512Y-10425500D01*
X33283489Y-10425500D01*
X33333307Y-10417609D01*
X33383126Y-10409719D01*
X33503220Y-10348528D01*
X33598528Y-10253220D01*
X33659719Y-10133126D01*
X33659719Y-10133120D01*
X33661520Y-10127584D01*
X33664670Y-10128607D01*
X33688546Y-10089637D01*
X33732048Y-10075500D01*
X34244564Y-10075500D01*
X34244564Y-10075499D01*
X34320989Y-10055021D01*
X34389511Y-10015460D01*
X34422796Y-9982173D01*
X34475122Y-9960499D01*
X34709900Y-9960499D01*
X34759487Y-9953972D01*
X34868316Y-9903224D01*
X34953224Y-9818316D01*
X34953225Y-9818311D01*
X34956937Y-9813013D01*
X34959855Y-9815056D01*
X34992676Y-9784968D01*
X35018001Y-9780500D01*
X36931177Y-9780500D01*
X36983503Y-9802174D01*
X39412325Y-12230996D01*
X39433999Y-12283322D01*
X39412325Y-12335648D01*
X39359999Y-12357322D01*
X39331681Y-12351689D01*
X39242961Y-12314940D01*
X39242950Y-12314937D01*
X39141680Y-12294793D01*
X39108530Y-12288200D01*
X38971470Y-12288200D01*
X38944877Y-12293489D01*
X38837049Y-12314937D01*
X38837038Y-12314940D01*
X38710419Y-12367387D01*
X38596453Y-12443536D01*
X38596452Y-12443538D01*
X38499538Y-12540452D01*
X38499536Y-12540453D01*
X38423387Y-12654419D01*
X38370940Y-12781038D01*
X38370937Y-12781049D01*
X38344200Y-12915470D01*
X38344200Y-12920224D01*
X38322526Y-12972550D01*
X38270200Y-12994224D01*
X38217875Y-12972550D01*
X38134847Y-12889522D01*
X38134844Y-12889520D01*
X38134843Y-12889519D01*
X37999354Y-12811294D01*
X37999349Y-12811292D01*
X37848230Y-12770800D01*
X37848228Y-12770800D01*
X37825823Y-12770800D01*
X37773497Y-12749126D01*
X37194074Y-12169703D01*
X37172400Y-12117377D01*
X37172400Y-12006606D01*
X37172399Y-12006605D01*
X37170575Y-11999799D01*
X37138292Y-11879314D01*
X37072400Y-11765186D01*
X36979214Y-11672000D01*
X36955139Y-11658100D01*
X36865090Y-11606110D01*
X36865081Y-11606106D01*
X36737794Y-11572000D01*
X36737792Y-11572000D01*
X36606008Y-11572000D01*
X36606006Y-11572000D01*
X36478718Y-11606106D01*
X36478709Y-11606110D01*
X36364585Y-11672000D01*
X36271400Y-11765185D01*
X36205510Y-11879309D01*
X36205506Y-11879318D01*
X36171400Y-12006605D01*
X36171400Y-12138394D01*
X36205506Y-12265681D01*
X36205510Y-12265690D01*
X36268457Y-12374716D01*
X36271400Y-12379814D01*
X36364586Y-12473000D01*
X36478714Y-12538892D01*
X36606005Y-12572999D01*
X36606006Y-12573000D01*
X36716777Y-12573000D01*
X36769103Y-12594674D01*
X36938475Y-12764046D01*
X36960149Y-12816372D01*
X36938475Y-12868698D01*
X36886149Y-12890372D01*
X36849149Y-12880458D01*
X36729354Y-12811294D01*
X36729349Y-12811292D01*
X36578230Y-12770800D01*
X36578228Y-12770800D01*
X36421772Y-12770800D01*
X36421767Y-12770800D01*
X36391265Y-12778972D01*
X36335113Y-12771577D01*
X36319790Y-12759819D01*
X35337612Y-11777641D01*
X35337611Y-11777640D01*
X35306650Y-11759765D01*
X35291964Y-11751286D01*
X35269090Y-11738079D01*
X35269085Y-11738077D01*
X35192664Y-11717600D01*
X35192662Y-11717600D01*
X33885766Y-11717600D01*
X33833440Y-11695926D01*
X33755114Y-11617600D01*
X33640990Y-11551710D01*
X33640981Y-11551706D01*
X33513694Y-11517600D01*
X33513692Y-11517600D01*
X33381908Y-11517600D01*
X33381906Y-11517600D01*
X33254618Y-11551706D01*
X33254609Y-11551710D01*
X33140485Y-11617600D01*
X33047300Y-11710785D01*
X32981410Y-11824909D01*
X32981406Y-11824918D01*
X32947300Y-11952205D01*
X32947300Y-12083994D01*
X32981406Y-12211281D01*
X32981410Y-12211290D01*
X33001398Y-12245910D01*
X33047300Y-12325414D01*
X33140486Y-12418600D01*
X33254614Y-12484492D01*
X33328248Y-12504222D01*
X33373180Y-12538700D01*
X33380573Y-12594853D01*
X33346094Y-12639786D01*
X33309094Y-12649700D01*
X29713262Y-12649700D01*
X29634138Y-12649700D01*
X29557712Y-12670178D01*
X29557711Y-12670178D01*
X29557709Y-12670179D01*
X29557707Y-12670180D01*
X29489192Y-12709737D01*
X28310624Y-13888304D01*
X28258298Y-13909978D01*
X28205972Y-13888304D01*
X28184298Y-13835978D01*
X28186820Y-13816825D01*
X28190909Y-13801566D01*
X28216999Y-13704194D01*
X28217000Y-13704194D01*
X28217000Y-13593422D01*
X28238674Y-13541096D01*
X28968641Y-12811129D01*
X29740460Y-12039311D01*
X29745276Y-12030969D01*
X29751263Y-12020601D01*
X29767368Y-11992705D01*
X29780021Y-11970789D01*
X29780100Y-11970493D01*
X29780192Y-11970372D01*
X29781876Y-11966309D01*
X29782964Y-11966759D01*
X29814570Y-11925557D01*
X29840002Y-11916548D01*
X29883126Y-11909719D01*
X30003220Y-11848528D01*
X30098528Y-11753220D01*
X30159719Y-11633126D01*
X30159719Y-11633120D01*
X30161520Y-11627584D01*
X30164670Y-11628607D01*
X30188546Y-11589637D01*
X30232048Y-11575500D01*
X30744564Y-11575500D01*
X30744564Y-11575499D01*
X30820989Y-11555021D01*
X30889511Y-11515460D01*
X30922796Y-11482173D01*
X30975122Y-11460499D01*
X31209900Y-11460499D01*
X31259487Y-11453972D01*
X31368316Y-11403224D01*
X31453224Y-11318316D01*
X31503972Y-11209487D01*
X31510500Y-11159901D01*
X31510499Y-10800100D01*
X31503972Y-10750513D01*
X31453224Y-10641684D01*
X31368316Y-10556776D01*
X31259487Y-10506028D01*
X31259485Y-10506027D01*
X31222955Y-10501218D01*
X31209901Y-10499500D01*
X31209899Y-10499500D01*
X30790100Y-10499500D01*
X30740514Y-10506027D01*
X30740512Y-10506028D01*
X30631683Y-10556776D01*
X30546776Y-10641683D01*
X30496027Y-10750514D01*
X30489500Y-10800100D01*
X30489500Y-10900500D01*
X30467826Y-10952826D01*
X30415500Y-10974500D01*
X30232048Y-10974500D01*
X30179722Y-10952826D01*
X30163844Y-10921660D01*
X30161520Y-10922416D01*
X30159719Y-10916878D01*
X30159719Y-10916874D01*
X30098528Y-10796780D01*
X30003220Y-10701472D01*
X30003219Y-10701471D01*
X29883126Y-10640281D01*
X29883125Y-10640280D01*
X29783489Y-10624500D01*
X29783488Y-10624500D01*
X29216512Y-10624500D01*
X29216511Y-10624500D01*
X29116874Y-10640280D01*
X29116873Y-10640281D01*
X28996780Y-10701471D01*
X28901471Y-10796780D01*
X28840281Y-10916873D01*
X28838480Y-10922416D01*
X28835329Y-10921392D01*
X28811454Y-10960363D01*
X28767952Y-10974500D01*
X28492623Y-10974500D01*
X28440297Y-10952826D01*
X28222174Y-10734703D01*
X28200500Y-10682377D01*
X28200500Y-10085753D01*
X28198037Y-10070204D01*
X28184951Y-9987580D01*
X28124658Y-9869249D01*
X28030751Y-9775342D01*
X28030749Y-9775340D01*
X27912420Y-9715049D01*
X27912420Y-9715048D01*
X27814247Y-9699500D01*
X27814246Y-9699500D01*
X27310754Y-9699500D01*
X27310753Y-9699500D01*
X27212579Y-9715048D01*
X27212579Y-9715049D01*
X27094250Y-9775340D01*
X27000340Y-9869250D01*
X26937405Y-9992769D01*
X26936127Y-9992118D01*
X26903290Y-10030560D01*
X26846827Y-10034999D01*
X26803763Y-9998213D01*
X26795700Y-9964623D01*
X26795700Y-9305700D01*
X26817374Y-9253374D01*
X26869700Y-9231700D01*
X32001077Y-9231700D01*
X32053403Y-9253374D01*
G37*
%TD.AperFunction*%
%TA.AperFunction,Conductor*%
G36*
X24047603Y-9535074D02*
G01*
X24777826Y-10265297D01*
X24799500Y-10317623D01*
X24799500Y-10914248D01*
X24799728Y-10917147D01*
X24798370Y-10917253D01*
X24786116Y-10968296D01*
X24737825Y-10997889D01*
X24737052Y-10998007D01*
X24731678Y-10998800D01*
X24672308Y-10998800D01*
X24599534Y-11018299D01*
X24595302Y-11018924D01*
X24571668Y-11012985D01*
X24547498Y-11009803D01*
X24544749Y-11006220D01*
X24540372Y-11005121D01*
X24527858Y-10984208D01*
X24513020Y-10964869D01*
X24512098Y-10957867D01*
X24511292Y-10956520D01*
X24511704Y-10954877D01*
X24510499Y-10945717D01*
X24510499Y-10800100D01*
X24503972Y-10750514D01*
X24503972Y-10750513D01*
X24453224Y-10641684D01*
X24368316Y-10556776D01*
X24259487Y-10506028D01*
X24259485Y-10506027D01*
X24222955Y-10501218D01*
X24209901Y-10499500D01*
X24209899Y-10499500D01*
X23790100Y-10499500D01*
X23740514Y-10506027D01*
X23740512Y-10506028D01*
X23631683Y-10556776D01*
X23546776Y-10641683D01*
X23543063Y-10646987D01*
X23540144Y-10644943D01*
X23507324Y-10675032D01*
X23481999Y-10679500D01*
X23018001Y-10679500D01*
X22965675Y-10657826D01*
X22957708Y-10646446D01*
X22956937Y-10646987D01*
X22953223Y-10641683D01*
X22868316Y-10556776D01*
X22804813Y-10527164D01*
X22759487Y-10506028D01*
X22759485Y-10506027D01*
X22722955Y-10501218D01*
X22709901Y-10499500D01*
X22709899Y-10499500D01*
X22475123Y-10499500D01*
X22422797Y-10477826D01*
X21719511Y-9774540D01*
X21660482Y-9740460D01*
X21660482Y-9740458D01*
X21660477Y-9740457D01*
X21656795Y-9738331D01*
X21650992Y-9734980D01*
X21650985Y-9734977D01*
X21574564Y-9714500D01*
X21574562Y-9714500D01*
X21531256Y-9714500D01*
X21522872Y-9711027D01*
X21513907Y-9712438D01*
X21500716Y-9701850D01*
X21478930Y-9692826D01*
X21468121Y-9679100D01*
X21466303Y-9676126D01*
X21459636Y-9662489D01*
X21455336Y-9658189D01*
X21450747Y-9650683D01*
X21447608Y-9630737D01*
X21439882Y-9612083D01*
X21443354Y-9603699D01*
X21441944Y-9594734D01*
X21453829Y-9578410D01*
X21461555Y-9559757D01*
X21486240Y-9535073D01*
X21538565Y-9513400D01*
X23995277Y-9513400D01*
X24047603Y-9535074D01*
G37*
%TD.AperFunction*%
%TA.AperFunction,Conductor*%
G36*
X15827326Y-5559437D02*
G01*
X15828149Y-5557451D01*
X15834881Y-5560239D01*
X15834883Y-5560240D01*
X15911599Y-5575500D01*
X16570676Y-5575499D01*
X16623002Y-5597173D01*
X16677826Y-5651997D01*
X16699500Y-5704323D01*
X16699500Y-5772917D01*
X16695855Y-5791239D01*
X16696422Y-5791352D01*
X16695000Y-5798500D01*
X16695000Y-5825900D01*
X16673326Y-5878226D01*
X16621000Y-5899900D01*
X16294800Y-5899900D01*
X16249008Y-5918867D01*
X16220690Y-5924500D01*
X15911600Y-5924500D01*
X15834882Y-5939760D01*
X15747888Y-5997887D01*
X15747887Y-5997888D01*
X15689760Y-6084882D01*
X15682162Y-6123080D01*
X15675480Y-6156675D01*
X15674500Y-6161600D01*
X15674500Y-6338399D01*
X15689760Y-6415117D01*
X15746543Y-6500100D01*
X15747888Y-6502112D01*
X15834883Y-6560240D01*
X15911599Y-6575500D01*
X16638400Y-6575499D01*
X16715117Y-6560240D01*
X16802112Y-6502112D01*
X16807069Y-6494692D01*
X16854159Y-6463227D01*
X16887747Y-6464326D01*
X16920066Y-6472986D01*
X16964997Y-6507465D01*
X16972389Y-6563618D01*
X16953237Y-6596790D01*
X16805489Y-6744540D01*
X16749540Y-6800488D01*
X16709979Y-6869009D01*
X16709977Y-6869014D01*
X16689500Y-6945435D01*
X16689500Y-7976473D01*
X16667826Y-8028799D01*
X16661020Y-8034510D01*
X16575935Y-8119595D01*
X16525931Y-8226828D01*
X16519500Y-8275685D01*
X16519500Y-8724315D01*
X16521307Y-8738042D01*
X16506648Y-8792749D01*
X16457598Y-8821067D01*
X16447940Y-8821700D01*
X15767323Y-8821700D01*
X15714997Y-8800026D01*
X15482174Y-8567203D01*
X15460500Y-8514877D01*
X15460500Y-8275685D01*
X15454068Y-8226828D01*
X15425485Y-8165532D01*
X15404065Y-8119596D01*
X15320404Y-8035935D01*
X15213173Y-7985932D01*
X15213171Y-7985931D01*
X15177178Y-7981193D01*
X15164316Y-7979500D01*
X14815684Y-7979500D01*
X14804318Y-7980996D01*
X14766828Y-7985931D01*
X14659595Y-8035935D01*
X14575935Y-8119595D01*
X14525931Y-8226828D01*
X14519500Y-8275685D01*
X14519500Y-8724314D01*
X14525931Y-8773171D01*
X14548561Y-8821700D01*
X14575935Y-8880404D01*
X14659596Y-8964065D01*
X14766827Y-9014068D01*
X14815684Y-9020500D01*
X15054877Y-9020500D01*
X15107203Y-9042174D01*
X15427689Y-9362660D01*
X15496212Y-9402222D01*
X15572638Y-9422700D01*
X15572640Y-9422700D01*
X17677561Y-9422700D01*
X17677562Y-9422700D01*
X17677562Y-9422699D01*
X17681357Y-9422200D01*
X17736065Y-9436855D01*
X17755106Y-9458565D01*
X17758536Y-9464506D01*
X17758540Y-9464511D01*
X17814486Y-9520458D01*
X17814488Y-9520459D01*
X17814489Y-9520460D01*
X17845370Y-9538289D01*
X17882553Y-9559757D01*
X17883011Y-9560021D01*
X17883012Y-9560021D01*
X17883014Y-9560022D01*
X17904675Y-9565826D01*
X17959435Y-9580499D01*
X17959436Y-9580500D01*
X17959438Y-9580500D01*
X18057577Y-9580500D01*
X18109903Y-9602174D01*
X18333326Y-9825597D01*
X18355000Y-9877923D01*
X18355000Y-10435218D01*
X18333326Y-10487544D01*
X18281000Y-10509218D01*
X18260304Y-10506265D01*
X18259493Y-10506028D01*
X18222297Y-10501132D01*
X18209901Y-10499500D01*
X18209899Y-10499500D01*
X17790100Y-10499500D01*
X17740514Y-10506027D01*
X17740512Y-10506028D01*
X17631683Y-10556776D01*
X17546776Y-10641683D01*
X17543063Y-10646987D01*
X17540144Y-10644943D01*
X17507324Y-10675032D01*
X17481999Y-10679500D01*
X12797123Y-10679500D01*
X12744797Y-10657826D01*
X9688797Y-7601826D01*
X9667123Y-7549500D01*
X9688797Y-7497174D01*
X9741123Y-7475500D01*
X9964247Y-7475500D01*
X10062420Y-7459951D01*
X10180751Y-7399658D01*
X10274658Y-7305751D01*
X10334951Y-7187420D01*
X10350500Y-7089246D01*
X10350500Y-6617623D01*
X10372174Y-6565297D01*
X10624097Y-6313374D01*
X10676423Y-6291700D01*
X12328662Y-6291700D01*
X12380986Y-6313373D01*
X12552830Y-6485240D01*
X12574500Y-6537560D01*
X12574500Y-7083488D01*
X12590280Y-7183125D01*
X12590281Y-7183126D01*
X12648946Y-7298264D01*
X12651472Y-7303220D01*
X12746780Y-7398528D01*
X12866874Y-7459719D01*
X12966511Y-7475500D01*
X12966512Y-7475500D01*
X13483489Y-7475500D01*
X13547914Y-7465296D01*
X13583126Y-7459719D01*
X13703220Y-7398528D01*
X13798528Y-7303220D01*
X13859719Y-7183126D01*
X13875500Y-7083488D01*
X13875500Y-6516512D01*
X13874187Y-6508225D01*
X13859719Y-6416874D01*
X13859718Y-6416873D01*
X13858823Y-6415117D01*
X13798528Y-6296780D01*
X13703220Y-6201472D01*
X13703219Y-6201471D01*
X13583126Y-6140281D01*
X13583125Y-6140280D01*
X13483489Y-6124500D01*
X13483488Y-6124500D01*
X13072680Y-6124500D01*
X13020354Y-6102826D01*
X13020351Y-6102823D01*
X12961075Y-6043540D01*
X12939404Y-5991213D01*
X12961077Y-5938892D01*
X13327797Y-5572174D01*
X13380123Y-5550500D01*
X15797858Y-5550500D01*
X15827326Y-5559437D01*
G37*
%TD.AperFunction*%
%TA.AperFunction,Conductor*%
G36*
X21688526Y-4759674D02*
G01*
X21710200Y-4812000D01*
X21710200Y-6325264D01*
X21730677Y-6401685D01*
X21730679Y-6401690D01*
X21761701Y-6455421D01*
X21770240Y-6470211D01*
X22052826Y-6752797D01*
X22074500Y-6805123D01*
X22074500Y-7020390D01*
X22068314Y-7035323D01*
X22067655Y-7051474D01*
X22058397Y-7059264D01*
X22052826Y-7072716D01*
X22026006Y-7089856D01*
X22022875Y-7091005D01*
X21958411Y-7108279D01*
X21933499Y-7122662D01*
X21927984Y-7125845D01*
X21927981Y-7125847D01*
X21889888Y-7147840D01*
X20001740Y-9035988D01*
X19962179Y-9104509D01*
X19962177Y-9104514D01*
X19941700Y-9180935D01*
X19941700Y-10474838D01*
X19920026Y-10527164D01*
X19867700Y-10548838D01*
X19836427Y-10541905D01*
X19759487Y-10506028D01*
X19759485Y-10506027D01*
X19722955Y-10501218D01*
X19709901Y-10499500D01*
X19709899Y-10499500D01*
X19290100Y-10499500D01*
X19240514Y-10506027D01*
X19240512Y-10506028D01*
X19131683Y-10556776D01*
X19082326Y-10606134D01*
X19030000Y-10627808D01*
X18977674Y-10606134D01*
X18956000Y-10553808D01*
X18956000Y-9683237D01*
X18949747Y-9659900D01*
X18949747Y-9659899D01*
X18935523Y-9606816D01*
X18935522Y-9606812D01*
X18908507Y-9560021D01*
X18895962Y-9538292D01*
X18895961Y-9538291D01*
X18895960Y-9538289D01*
X18689995Y-9332324D01*
X18668322Y-9280000D01*
X18689995Y-9227675D01*
X18827160Y-9090511D01*
X18848552Y-9053458D01*
X18866721Y-9021989D01*
X18887199Y-8945564D01*
X18887200Y-8945564D01*
X18887200Y-5785036D01*
X18887199Y-5785035D01*
X18866722Y-5708614D01*
X18864864Y-5704128D01*
X18867119Y-5703194D01*
X18860764Y-5654952D01*
X18895240Y-5610017D01*
X18932244Y-5600100D01*
X19677600Y-5600100D01*
X19729926Y-5621774D01*
X19751600Y-5674100D01*
X19751600Y-6123080D01*
X19743534Y-6156675D01*
X19715049Y-6212579D01*
X19715048Y-6212579D01*
X19699500Y-6310753D01*
X19699500Y-6814246D01*
X19715049Y-6912420D01*
X19775340Y-7030749D01*
X19869250Y-7124659D01*
X19914746Y-7147840D01*
X19987579Y-7184950D01*
X19987579Y-7184951D01*
X20085753Y-7200500D01*
X20085754Y-7200500D01*
X20914247Y-7200500D01*
X21012420Y-7184951D01*
X21130751Y-7124658D01*
X21224658Y-7030751D01*
X21284951Y-6912420D01*
X21300500Y-6814246D01*
X21300500Y-6310754D01*
X21284951Y-6212580D01*
X21242004Y-6128292D01*
X21224659Y-6094250D01*
X21130749Y-6000340D01*
X21012420Y-5940049D01*
X21012420Y-5940048D01*
X20914247Y-5924500D01*
X20914246Y-5924500D01*
X20426600Y-5924500D01*
X20374274Y-5902826D01*
X20352600Y-5850500D01*
X20352600Y-5285036D01*
X20352599Y-5285035D01*
X20332122Y-5208614D01*
X20332121Y-5208613D01*
X20332121Y-5208611D01*
X20319354Y-5186499D01*
X20311962Y-5130348D01*
X20346440Y-5085414D01*
X20383441Y-5075500D01*
X20914247Y-5075500D01*
X21012420Y-5059951D01*
X21130751Y-4999658D01*
X21224658Y-4905751D01*
X21272427Y-4812000D01*
X21287596Y-4782230D01*
X21289473Y-4783186D01*
X21321175Y-4746067D01*
X21354773Y-4738000D01*
X21636200Y-4738000D01*
X21688526Y-4759674D01*
G37*
%TD.AperFunction*%
%TA.AperFunction,Conductor*%
G36*
X18273728Y-6576666D02*
G01*
X18286200Y-6617779D01*
X18286200Y-8750877D01*
X18264526Y-8803203D01*
X18140498Y-8927231D01*
X18088172Y-8948905D01*
X18035846Y-8927231D01*
X17995759Y-8887144D01*
X17995758Y-8887143D01*
X17982714Y-8881740D01*
X17894500Y-8845200D01*
X17894499Y-8845200D01*
X17781122Y-8845200D01*
X17760402Y-8841078D01*
X17760173Y-8841934D01*
X17679064Y-8820200D01*
X17679062Y-8820200D01*
X17599938Y-8820200D01*
X17599936Y-8820200D01*
X17595127Y-8820833D01*
X17595059Y-8820322D01*
X17584597Y-8821700D01*
X17532060Y-8821700D01*
X17479734Y-8800026D01*
X17458060Y-8747700D01*
X17458693Y-8738042D01*
X17460500Y-8724315D01*
X17460500Y-8275685D01*
X17454068Y-8226828D01*
X17425485Y-8165532D01*
X17404065Y-8119596D01*
X17320404Y-8035935D01*
X17315826Y-8031357D01*
X17317397Y-8029785D01*
X17291622Y-7989312D01*
X17290500Y-7976473D01*
X17290500Y-7140122D01*
X17312173Y-7087797D01*
X17802797Y-6597172D01*
X17855123Y-6575499D01*
X18088399Y-6575499D01*
X18088400Y-6575499D01*
X18165117Y-6560240D01*
X18171087Y-6556251D01*
X18226636Y-6545201D01*
X18273728Y-6576666D01*
G37*
%TD.AperFunction*%
%TA.AperFunction,Conductor*%
G36*
X15660603Y-3110574D02*
G01*
X17110986Y-4560957D01*
X17132660Y-4613283D01*
X17131239Y-4627717D01*
X17124500Y-4661601D01*
X17124500Y-4838399D01*
X17139760Y-4915117D01*
X17139761Y-4915119D01*
X17169006Y-4958889D01*
X17171061Y-4969223D01*
X17177893Y-4977249D01*
X17175738Y-4992734D01*
X17180055Y-5014438D01*
X17173356Y-5033704D01*
X17171394Y-5037537D01*
X17139760Y-5084883D01*
X17135044Y-5108587D01*
X17130354Y-5117756D01*
X17116033Y-5129946D01*
X17105585Y-5145582D01*
X17095250Y-5147637D01*
X17087226Y-5154468D01*
X17068480Y-5152961D01*
X17050036Y-5156630D01*
X17038694Y-5150567D01*
X17030771Y-5149931D01*
X17025149Y-5143327D01*
X17012149Y-5136378D01*
X16885311Y-5009540D01*
X16857851Y-4993686D01*
X16816790Y-4969979D01*
X16816785Y-4969977D01*
X16735677Y-4948244D01*
X16736025Y-4946942D01*
X16722190Y-4941730D01*
X16721851Y-4942549D01*
X16715118Y-4939760D01*
X16686100Y-4933988D01*
X16638401Y-4924500D01*
X16638399Y-4924500D01*
X15911600Y-4924500D01*
X15834882Y-4939760D01*
X15828147Y-4942550D01*
X15827324Y-4940563D01*
X15797858Y-4949500D01*
X13599500Y-4949500D01*
X13547174Y-4927826D01*
X13525500Y-4875500D01*
X13525500Y-4532047D01*
X13547174Y-4479721D01*
X13578349Y-4463855D01*
X13577590Y-4461517D01*
X13583121Y-4459719D01*
X13583126Y-4459719D01*
X13703220Y-4398528D01*
X13798528Y-4303220D01*
X13859719Y-4183126D01*
X13875500Y-4083488D01*
X13875500Y-3516512D01*
X13872176Y-3495528D01*
X13859719Y-3416874D01*
X13859718Y-3416873D01*
X13851870Y-3401471D01*
X13798528Y-3296780D01*
X13716974Y-3215226D01*
X13695300Y-3162900D01*
X13716974Y-3110574D01*
X13769300Y-3088900D01*
X15608277Y-3088900D01*
X15660603Y-3110574D01*
G37*
%TD.AperFunction*%
%TA.AperFunction,Conductor*%
G36*
X40039656Y-505365D02*
G01*
X40052350Y-504653D01*
X40064803Y-515781D01*
X40080236Y-522174D01*
X40085101Y-533919D01*
X40094582Y-542392D01*
X40095518Y-559069D01*
X40101910Y-574500D01*
X40097044Y-586246D01*
X40097757Y-598940D01*
X40086628Y-611393D01*
X40080236Y-626826D01*
X40060019Y-641170D01*
X40017461Y-661665D01*
X39949419Y-694433D01*
X39645043Y-885685D01*
X39363993Y-1109815D01*
X39109815Y-1363993D01*
X38885685Y-1645043D01*
X38694433Y-1949419D01*
X38538462Y-2273295D01*
X38419740Y-2612584D01*
X38419735Y-2612600D01*
X38339748Y-2963047D01*
X38339748Y-2963048D01*
X38321022Y-3129248D01*
X38299500Y-3320264D01*
X38299500Y-3679736D01*
X38314746Y-3815048D01*
X38339748Y-4036951D01*
X38339748Y-4036952D01*
X38419735Y-4387399D01*
X38419740Y-4387415D01*
X38538462Y-4726704D01*
X38691543Y-5044579D01*
X38694434Y-5050582D01*
X38885685Y-5354956D01*
X39109812Y-5636003D01*
X39363997Y-5890188D01*
X39645044Y-6114315D01*
X39949418Y-6305566D01*
X40273292Y-6461536D01*
X40612592Y-6580262D01*
X40612597Y-6580263D01*
X40612600Y-6580264D01*
X40963047Y-6660251D01*
X40963048Y-6660251D01*
X40963052Y-6660252D01*
X41320264Y-6700500D01*
X41320268Y-6700500D01*
X41679732Y-6700500D01*
X41679736Y-6700500D01*
X42036948Y-6660252D01*
X42387408Y-6580262D01*
X42726708Y-6461536D01*
X43050582Y-6305566D01*
X43354956Y-6114315D01*
X43636003Y-5890188D01*
X43890188Y-5636003D01*
X44114315Y-5354956D01*
X44305566Y-5050582D01*
X44358828Y-4939981D01*
X44401060Y-4902243D01*
X44457608Y-4905418D01*
X44495347Y-4947650D01*
X44499500Y-4972090D01*
X44499500Y-25027909D01*
X44477826Y-25080235D01*
X44425500Y-25101909D01*
X44373174Y-25080235D01*
X44358828Y-25060017D01*
X44320534Y-24980500D01*
X44305566Y-24949418D01*
X44114315Y-24645044D01*
X43890188Y-24363997D01*
X43636003Y-24109812D01*
X43354956Y-23885685D01*
X43050582Y-23694434D01*
X42726708Y-23538464D01*
X42726704Y-23538462D01*
X42387415Y-23419740D01*
X42387399Y-23419735D01*
X42036952Y-23339748D01*
X41858342Y-23319624D01*
X41679736Y-23299500D01*
X41320264Y-23299500D01*
X41141658Y-23319624D01*
X40963048Y-23339748D01*
X40963047Y-23339748D01*
X40612600Y-23419735D01*
X40612584Y-23419740D01*
X40273295Y-23538462D01*
X39949419Y-23694433D01*
X39645043Y-23885685D01*
X39363993Y-24109815D01*
X39109815Y-24363993D01*
X38885685Y-24645043D01*
X38694433Y-24949419D01*
X38538462Y-25273295D01*
X38419740Y-25612584D01*
X38419735Y-25612600D01*
X38339748Y-25963047D01*
X38339748Y-25963048D01*
X38317921Y-26156773D01*
X38299500Y-26320264D01*
X38299500Y-26679736D01*
X38317921Y-26843227D01*
X38339748Y-27036951D01*
X38339748Y-27036952D01*
X38419735Y-27387399D01*
X38419740Y-27387415D01*
X38538462Y-27726704D01*
X38538464Y-27726708D01*
X38694434Y-28050582D01*
X38885685Y-28354956D01*
X39109812Y-28636003D01*
X39363997Y-28890188D01*
X39645044Y-29114315D01*
X39949418Y-29305566D01*
X40060018Y-29358828D01*
X40097757Y-29401060D01*
X40094582Y-29457608D01*
X40052350Y-29495347D01*
X40027910Y-29499500D01*
X4972090Y-29499500D01*
X4919764Y-29477826D01*
X4898090Y-29425500D01*
X4919764Y-29373174D01*
X4939980Y-29358829D01*
X5050582Y-29305566D01*
X5354956Y-29114315D01*
X5636003Y-28890188D01*
X5890188Y-28636003D01*
X6114315Y-28354956D01*
X6305566Y-28050582D01*
X6461536Y-27726708D01*
X6580262Y-27387408D01*
X6660252Y-27036948D01*
X6700500Y-26679736D01*
X6700500Y-26320264D01*
X6660252Y-25963052D01*
X6655351Y-25941578D01*
X6580264Y-25612600D01*
X6580259Y-25612584D01*
X6572846Y-25591400D01*
X6461536Y-25273292D01*
X6305566Y-24949418D01*
X6114315Y-24645044D01*
X5890188Y-24363997D01*
X5636003Y-24109812D01*
X5354956Y-23885685D01*
X5050582Y-23694434D01*
X4726708Y-23538464D01*
X4726704Y-23538462D01*
X4387415Y-23419740D01*
X4387399Y-23419735D01*
X4036952Y-23339748D01*
X3858342Y-23319624D01*
X3679736Y-23299500D01*
X3320264Y-23299500D01*
X3141658Y-23319624D01*
X2963048Y-23339748D01*
X2963047Y-23339748D01*
X2612600Y-23419735D01*
X2612584Y-23419740D01*
X2273295Y-23538462D01*
X1949419Y-23694433D01*
X1645043Y-23885685D01*
X1363993Y-24109815D01*
X1109815Y-24363993D01*
X885685Y-24645043D01*
X694433Y-24949419D01*
X641172Y-25060017D01*
X598940Y-25097757D01*
X542392Y-25094581D01*
X504652Y-25052349D01*
X500500Y-25027909D01*
X500500Y-13290100D01*
X4539500Y-13290100D01*
X4539500Y-13709899D01*
X4546027Y-13759485D01*
X4546028Y-13759487D01*
X4596776Y-13868316D01*
X4681684Y-13953224D01*
X4790513Y-14003972D01*
X4840099Y-14010500D01*
X5199900Y-14010499D01*
X5249487Y-14003972D01*
X5358316Y-13953224D01*
X5443224Y-13868316D01*
X5493972Y-13759487D01*
X5500500Y-13709901D01*
X5500499Y-13475121D01*
X5522172Y-13422797D01*
X5736697Y-13208274D01*
X5789023Y-13186600D01*
X7311977Y-13186600D01*
X7364303Y-13208274D01*
X7429203Y-13273174D01*
X7450877Y-13325500D01*
X7429203Y-13377826D01*
X7376877Y-13399500D01*
X6730252Y-13399500D01*
X6701010Y-13405316D01*
X6671767Y-13411133D01*
X6605449Y-13455447D01*
X6605447Y-13455449D01*
X6561133Y-13521767D01*
X6549500Y-13580253D01*
X6549500Y-14125500D01*
X6527826Y-14177826D01*
X6475500Y-14199500D01*
X6059562Y-14199500D01*
X5980438Y-14199500D01*
X5904012Y-14219978D01*
X5904011Y-14219978D01*
X5904009Y-14219979D01*
X5904007Y-14219980D01*
X5835490Y-14259538D01*
X5127201Y-14967826D01*
X5074875Y-14989500D01*
X4840100Y-14989500D01*
X4790514Y-14996027D01*
X4790512Y-14996028D01*
X4681683Y-15046776D01*
X4596776Y-15131683D01*
X4546027Y-15240514D01*
X4539500Y-15290100D01*
X4539500Y-15709899D01*
X4546027Y-15759485D01*
X4546028Y-15759487D01*
X4596776Y-15868316D01*
X4681684Y-15953224D01*
X4790513Y-16003972D01*
X4840099Y-16010500D01*
X5199900Y-16010499D01*
X5249487Y-16003972D01*
X5358316Y-15953224D01*
X5443224Y-15868316D01*
X5493972Y-15759487D01*
X5500500Y-15709901D01*
X5500499Y-15475121D01*
X5522172Y-15422797D01*
X6122797Y-14822174D01*
X6175123Y-14800500D01*
X6475500Y-14800500D01*
X6527826Y-14822174D01*
X6549500Y-14874500D01*
X6549500Y-15419748D01*
X6554182Y-15443285D01*
X6561133Y-15478232D01*
X6575812Y-15500200D01*
X6605448Y-15544552D01*
X6646787Y-15572174D01*
X6671767Y-15588866D01*
X6671768Y-15588866D01*
X6671769Y-15588867D01*
X6730252Y-15600500D01*
X6730254Y-15600500D01*
X7769746Y-15600500D01*
X7769748Y-15600500D01*
X7828231Y-15588867D01*
X7894552Y-15544552D01*
X7938867Y-15478231D01*
X7950500Y-15419748D01*
X7950500Y-15202823D01*
X7972174Y-15150497D01*
X8024500Y-15128823D01*
X8076826Y-15150497D01*
X9223140Y-16296811D01*
X9279089Y-16352760D01*
X9347611Y-16392321D01*
X9347612Y-16392321D01*
X9347614Y-16392322D01*
X9385824Y-16402560D01*
X9424035Y-16412799D01*
X9424036Y-16412800D01*
X12208578Y-16412800D01*
X12260904Y-16434474D01*
X12282578Y-16486800D01*
X12260904Y-16539124D01*
X12114267Y-16685762D01*
X11997203Y-16802826D01*
X11944877Y-16824500D01*
X11466511Y-16824500D01*
X11366874Y-16840280D01*
X11366873Y-16840281D01*
X11246780Y-16901471D01*
X11151471Y-16996780D01*
X11090281Y-17116873D01*
X11090280Y-17116874D01*
X11074500Y-17216511D01*
X11074500Y-17783488D01*
X11090280Y-17883125D01*
X11090281Y-17883126D01*
X11148472Y-17997334D01*
X11151472Y-18003220D01*
X11246780Y-18098528D01*
X11366874Y-18159719D01*
X11466511Y-18175500D01*
X11466512Y-18175500D01*
X11645500Y-18175500D01*
X11697826Y-18197174D01*
X11719500Y-18249500D01*
X11719500Y-18981998D01*
X11697826Y-19034324D01*
X11686449Y-19042295D01*
X11686987Y-19043063D01*
X11681683Y-19046776D01*
X11596776Y-19131683D01*
X11546027Y-19240514D01*
X11539500Y-19290100D01*
X11539500Y-19709899D01*
X11546027Y-19759485D01*
X11546028Y-19759487D01*
X11596776Y-19868316D01*
X11681684Y-19953224D01*
X11790513Y-20003972D01*
X11840099Y-20010500D01*
X12199900Y-20010499D01*
X12249487Y-20003972D01*
X12358316Y-19953224D01*
X12443224Y-19868316D01*
X12493972Y-19759487D01*
X12500500Y-19709901D01*
X12500499Y-19290100D01*
X12493972Y-19240513D01*
X12443224Y-19131684D01*
X12358316Y-19046776D01*
X12353013Y-19043063D01*
X12355048Y-19040156D01*
X12324947Y-19007263D01*
X12320500Y-18981998D01*
X12320500Y-18650600D01*
X12342174Y-18598274D01*
X12394500Y-18576600D01*
X12728964Y-18576600D01*
X12728964Y-18576599D01*
X12805389Y-18556121D01*
X12805388Y-18556121D01*
X12810073Y-18554866D01*
X12810302Y-18555721D01*
X12831022Y-18551600D01*
X13415933Y-18551600D01*
X13468259Y-18573274D01*
X14037841Y-19142857D01*
X14059515Y-19195183D01*
X14052582Y-19226455D01*
X14046028Y-19240509D01*
X14039500Y-19290100D01*
X14039500Y-19709899D01*
X14046027Y-19759485D01*
X14046028Y-19759487D01*
X14096776Y-19868316D01*
X14181683Y-19953223D01*
X14186986Y-19956936D01*
X14184938Y-19959860D01*
X14215020Y-19992643D01*
X14219500Y-20018000D01*
X14219500Y-21521564D01*
X14239977Y-21597985D01*
X14239979Y-21597990D01*
X14279540Y-21666511D01*
X17885603Y-25272574D01*
X17907277Y-25324900D01*
X17885603Y-25377226D01*
X17833277Y-25398900D01*
X17473536Y-25398900D01*
X17397114Y-25419377D01*
X17397109Y-25419379D01*
X17370356Y-25434826D01*
X17328588Y-25458940D01*
X16984703Y-25802826D01*
X16932377Y-25824500D01*
X16460753Y-25824500D01*
X16362579Y-25840048D01*
X16362579Y-25840049D01*
X16244250Y-25900340D01*
X16150340Y-25994250D01*
X16090049Y-26112579D01*
X16090048Y-26112579D01*
X16074500Y-26210753D01*
X16074500Y-26789246D01*
X16090049Y-26887420D01*
X16150340Y-27005749D01*
X16244250Y-27099659D01*
X16303414Y-27129804D01*
X16362579Y-27159950D01*
X16362579Y-27159951D01*
X16460753Y-27175500D01*
X16460754Y-27175500D01*
X16964247Y-27175500D01*
X17062420Y-27159951D01*
X17180751Y-27099658D01*
X17274658Y-27005751D01*
X17334951Y-26887420D01*
X17350500Y-26789246D01*
X17350500Y-26317623D01*
X17372174Y-26265297D01*
X17437971Y-26199500D01*
X17530383Y-26107087D01*
X17582708Y-26085414D01*
X17635034Y-26107088D01*
X17656708Y-26159414D01*
X17655797Y-26170989D01*
X17649500Y-26210751D01*
X17649500Y-26789246D01*
X17665049Y-26887420D01*
X17725340Y-27005749D01*
X17725342Y-27005751D01*
X17819249Y-27099658D01*
X17877597Y-27129388D01*
X17942770Y-27162596D01*
X17941811Y-27164478D01*
X17978925Y-27196159D01*
X17987000Y-27229772D01*
X17987000Y-28010794D01*
X17965326Y-28063120D01*
X17958061Y-28069493D01*
X17955190Y-28071696D01*
X17862000Y-28164885D01*
X17796110Y-28279009D01*
X17796106Y-28279018D01*
X17762000Y-28406305D01*
X17762000Y-28538094D01*
X17796106Y-28665381D01*
X17796107Y-28665384D01*
X17796108Y-28665386D01*
X17862000Y-28779514D01*
X17955186Y-28872700D01*
X18069314Y-28938592D01*
X18196605Y-28972699D01*
X18196606Y-28972700D01*
X18196608Y-28972700D01*
X18328394Y-28972700D01*
X18328394Y-28972699D01*
X18455686Y-28938592D01*
X18569814Y-28872700D01*
X18663000Y-28779514D01*
X18728892Y-28665386D01*
X18762999Y-28538094D01*
X18763000Y-28538094D01*
X18763000Y-28406306D01*
X18762999Y-28406305D01*
X18728893Y-28279018D01*
X18728892Y-28279014D01*
X18663000Y-28164886D01*
X18609674Y-28111560D01*
X18588000Y-28059234D01*
X18588000Y-27229772D01*
X18609674Y-27177446D01*
X18632630Y-27163382D01*
X18632230Y-27162596D01*
X18675948Y-27140319D01*
X18755751Y-27099658D01*
X18849658Y-27005751D01*
X18909951Y-26887420D01*
X18925500Y-26789246D01*
X18925500Y-26339123D01*
X18947174Y-26286797D01*
X18999500Y-26265123D01*
X19051826Y-26286797D01*
X19197826Y-26432797D01*
X19219500Y-26485123D01*
X19219500Y-26724314D01*
X19225931Y-26773171D01*
X19225932Y-26773173D01*
X19275935Y-26880404D01*
X19359596Y-26964065D01*
X19466827Y-27014068D01*
X19515684Y-27020500D01*
X19515686Y-27020500D01*
X19864314Y-27020500D01*
X19864316Y-27020500D01*
X19913173Y-27014068D01*
X20020404Y-26964065D01*
X20104065Y-26880404D01*
X20154068Y-26773173D01*
X20160500Y-26724316D01*
X20160500Y-26275684D01*
X20154068Y-26226827D01*
X20104065Y-26119596D01*
X20020404Y-26035935D01*
X19913173Y-25985932D01*
X19913171Y-25985931D01*
X19877178Y-25981193D01*
X19864316Y-25979500D01*
X19864314Y-25979500D01*
X19625123Y-25979500D01*
X19572797Y-25957826D01*
X19332697Y-25717726D01*
X19311023Y-25665400D01*
X19332697Y-25613074D01*
X19385023Y-25591400D01*
X20925477Y-25591400D01*
X20977803Y-25613074D01*
X21137389Y-25772660D01*
X21137391Y-25772661D01*
X21137392Y-25772662D01*
X21183529Y-25799299D01*
X21205912Y-25812222D01*
X21282338Y-25832700D01*
X21282340Y-25832700D01*
X27084864Y-25832700D01*
X27084864Y-25832699D01*
X27161289Y-25812221D01*
X27229811Y-25772660D01*
X27285760Y-25716711D01*
X28081660Y-24920811D01*
X28121222Y-24852288D01*
X28141700Y-24775862D01*
X28141700Y-24696738D01*
X28141700Y-20829447D01*
X28151614Y-20792447D01*
X28158196Y-20781047D01*
X28214292Y-20683886D01*
X28239448Y-20590002D01*
X28241422Y-20582636D01*
X28275900Y-20537703D01*
X28332053Y-20530311D01*
X28376986Y-20564789D01*
X28386900Y-20601789D01*
X28386900Y-26743864D01*
X28407378Y-26820288D01*
X28407379Y-26820289D01*
X28442086Y-26880404D01*
X28446940Y-26888811D01*
X28867940Y-27309811D01*
X28923889Y-27365760D01*
X28992411Y-27405321D01*
X28992412Y-27405321D01*
X28992414Y-27405322D01*
X29030624Y-27415560D01*
X29068835Y-27425799D01*
X29068836Y-27425800D01*
X29068838Y-27425800D01*
X29924264Y-27425800D01*
X29924264Y-27425799D01*
X30000689Y-27405321D01*
X30069211Y-27365760D01*
X30125160Y-27309811D01*
X30392797Y-27042174D01*
X30445123Y-27020500D01*
X30684314Y-27020500D01*
X30684316Y-27020500D01*
X30733173Y-27014068D01*
X30840404Y-26964065D01*
X30924065Y-26880404D01*
X30924065Y-26880402D01*
X30924067Y-26880401D01*
X30941401Y-26843227D01*
X30983158Y-26804963D01*
X31008468Y-26800500D01*
X32537764Y-26800500D01*
X32537764Y-26800499D01*
X32614189Y-26780021D01*
X32682711Y-26740460D01*
X32738660Y-26684511D01*
X34025997Y-25397172D01*
X34078323Y-25375499D01*
X34155504Y-25375499D01*
X34179580Y-25372707D01*
X34278079Y-25329215D01*
X34354215Y-25253079D01*
X34397707Y-25154580D01*
X34400500Y-25130505D01*
X34400499Y-24869496D01*
X34397707Y-24845420D01*
X34354215Y-24746921D01*
X34278079Y-24670785D01*
X34179580Y-24627293D01*
X34179579Y-24627292D01*
X34179577Y-24627292D01*
X34159140Y-24624921D01*
X34155505Y-24624500D01*
X34155504Y-24624500D01*
X33694496Y-24624500D01*
X33670424Y-24627292D01*
X33670416Y-24627294D01*
X33654389Y-24634371D01*
X33597767Y-24635679D01*
X33556805Y-24596565D01*
X33550500Y-24566676D01*
X33550500Y-23839370D01*
X33550500Y-23839364D01*
X33539866Y-23766375D01*
X33539865Y-23766373D01*
X33539850Y-23766269D01*
X33553754Y-23711365D01*
X33602408Y-23682373D01*
X33613077Y-23681600D01*
X34645500Y-23681600D01*
X34697826Y-23703274D01*
X34719500Y-23755600D01*
X34719500Y-23981998D01*
X34697826Y-24034324D01*
X34686449Y-24042295D01*
X34686987Y-24043063D01*
X34681683Y-24046776D01*
X34596776Y-24131683D01*
X34546027Y-24240514D01*
X34539500Y-24290100D01*
X34539500Y-24709899D01*
X34546027Y-24759485D01*
X34546028Y-24759487D01*
X34596776Y-24868316D01*
X34681684Y-24953224D01*
X34790513Y-25003972D01*
X34840099Y-25010500D01*
X35199900Y-25010499D01*
X35249487Y-25003972D01*
X35358316Y-24953224D01*
X35443224Y-24868316D01*
X35493972Y-24759487D01*
X35500500Y-24709901D01*
X35500499Y-24290100D01*
X35493972Y-24240513D01*
X35443224Y-24131684D01*
X35358316Y-24046776D01*
X35353013Y-24043063D01*
X35355048Y-24040156D01*
X35324947Y-24007263D01*
X35320500Y-23981998D01*
X35320500Y-23755600D01*
X35342174Y-23703274D01*
X35394500Y-23681600D01*
X36104564Y-23681600D01*
X36104564Y-23681599D01*
X36180989Y-23661121D01*
X36249511Y-23621560D01*
X36305460Y-23565611D01*
X39857760Y-20013311D01*
X39859383Y-20010500D01*
X39897321Y-19944789D01*
X39917799Y-19868364D01*
X39917800Y-19868364D01*
X39917800Y-18982738D01*
X39917462Y-18981478D01*
X39914381Y-18969979D01*
X39897322Y-18906312D01*
X39865900Y-18851888D01*
X39857762Y-18837792D01*
X39857761Y-18837791D01*
X39857760Y-18837789D01*
X38589995Y-17570024D01*
X38568322Y-17517700D01*
X38589995Y-17465375D01*
X40337460Y-15717911D01*
X40341426Y-15711040D01*
X40341429Y-15711038D01*
X40341428Y-15711038D01*
X40356427Y-15685059D01*
X40377021Y-15649389D01*
X40397499Y-15572964D01*
X40397500Y-15572964D01*
X40397500Y-12451138D01*
X40389816Y-12422462D01*
X40377022Y-12374712D01*
X40354468Y-12335648D01*
X40337462Y-12306192D01*
X40337461Y-12306191D01*
X40337460Y-12306189D01*
X37270811Y-9239540D01*
X37265871Y-9236688D01*
X37257232Y-9231700D01*
X37202290Y-9199979D01*
X37202285Y-9199977D01*
X37125864Y-9179500D01*
X37125862Y-9179500D01*
X35018001Y-9179500D01*
X34965675Y-9157826D01*
X34957708Y-9146446D01*
X34956937Y-9146987D01*
X34953223Y-9141683D01*
X34868316Y-9056776D01*
X34861205Y-9053460D01*
X34759487Y-9006028D01*
X34759485Y-9006027D01*
X34722955Y-9001218D01*
X34709901Y-8999500D01*
X34709899Y-8999500D01*
X34290100Y-8999500D01*
X34240514Y-9006027D01*
X34240512Y-9006028D01*
X34131683Y-9056776D01*
X34046776Y-9141683D01*
X33996027Y-9250514D01*
X33989500Y-9300100D01*
X33989500Y-9400500D01*
X33967826Y-9452826D01*
X33915500Y-9474500D01*
X33732048Y-9474500D01*
X33679722Y-9452826D01*
X33663844Y-9421660D01*
X33661520Y-9422416D01*
X33659719Y-9416878D01*
X33659719Y-9416874D01*
X33598528Y-9296780D01*
X33503220Y-9201472D01*
X33503219Y-9201471D01*
X33383126Y-9140281D01*
X33383125Y-9140280D01*
X33283489Y-9124500D01*
X33283488Y-9124500D01*
X32805123Y-9124500D01*
X32752797Y-9102826D01*
X32340711Y-8690740D01*
X32329922Y-8684511D01*
X32272190Y-8651179D01*
X32272185Y-8651177D01*
X32195764Y-8630700D01*
X32195762Y-8630700D01*
X26650323Y-8630700D01*
X26597997Y-8609026D01*
X25594811Y-7605840D01*
X25567181Y-7589888D01*
X25526290Y-7566279D01*
X25526285Y-7566277D01*
X25449864Y-7545800D01*
X25449862Y-7545800D01*
X23397589Y-7545800D01*
X23345263Y-7524126D01*
X23323589Y-7471800D01*
X23331653Y-7438208D01*
X23359719Y-7383126D01*
X23375500Y-7283488D01*
X23375500Y-6716512D01*
X23359719Y-6616874D01*
X23298528Y-6496780D01*
X23203220Y-6401472D01*
X23203219Y-6401471D01*
X23104034Y-6350934D01*
X23067251Y-6307867D01*
X23071695Y-6251405D01*
X23114762Y-6214622D01*
X23137629Y-6211000D01*
X25414064Y-6211000D01*
X25414064Y-6210999D01*
X25490489Y-6190521D01*
X25559011Y-6150960D01*
X25614960Y-6095011D01*
X26907797Y-4802174D01*
X26960123Y-4780500D01*
X27205522Y-4780500D01*
X27205528Y-4780500D01*
X27273170Y-4770645D01*
X27377511Y-4719636D01*
X27459636Y-4637511D01*
X27510645Y-4533170D01*
X27520500Y-4465528D01*
X27520500Y-4104472D01*
X27510645Y-4036830D01*
X27459636Y-3932489D01*
X27379473Y-3852326D01*
X27369322Y-3827821D01*
X27357901Y-3803887D01*
X27358626Y-3801997D01*
X27357799Y-3800000D01*
X27376797Y-3750495D01*
X27378102Y-3749044D01*
X27459636Y-3667511D01*
X27469323Y-3647694D01*
X27476254Y-3639995D01*
X27493175Y-3631919D01*
X27507228Y-3619510D01*
X27525607Y-3616442D01*
X27527369Y-3615602D01*
X27528418Y-3615973D01*
X27531256Y-3615500D01*
X27679877Y-3615500D01*
X27732203Y-3637174D01*
X27817826Y-3722797D01*
X27839500Y-3775123D01*
X27839500Y-4009899D01*
X27846027Y-4059485D01*
X27846028Y-4059487D01*
X27896776Y-4168316D01*
X27981684Y-4253224D01*
X28090513Y-4303972D01*
X28091729Y-4304132D01*
X28092691Y-4304606D01*
X28095946Y-4305555D01*
X28095778Y-4306128D01*
X28134402Y-4325173D01*
X28512526Y-4703297D01*
X28534200Y-4755623D01*
X28534200Y-4866394D01*
X28568306Y-4993681D01*
X28568310Y-4993690D01*
X28571953Y-5000000D01*
X28634200Y-5107814D01*
X28727386Y-5201000D01*
X28841514Y-5266892D01*
X28968805Y-5300999D01*
X28968806Y-5301000D01*
X28968808Y-5301000D01*
X29100594Y-5301000D01*
X29100594Y-5300999D01*
X29227886Y-5266892D01*
X29342014Y-5201000D01*
X29435200Y-5107814D01*
X29501092Y-4993686D01*
X29535199Y-4866394D01*
X29535200Y-4866394D01*
X29535200Y-4734606D01*
X29535199Y-4734605D01*
X29530621Y-4717521D01*
X29501092Y-4607314D01*
X29435200Y-4493186D01*
X29378839Y-4436825D01*
X29357165Y-4384499D01*
X29378839Y-4332173D01*
X29431165Y-4310499D01*
X29459900Y-4310499D01*
X29509487Y-4303972D01*
X29618316Y-4253224D01*
X29703224Y-4168316D01*
X29708277Y-4157480D01*
X29714925Y-4143225D01*
X29724628Y-4134333D01*
X29729665Y-4122174D01*
X29744690Y-4115950D01*
X29756682Y-4104962D01*
X29781991Y-4100500D01*
X29796523Y-4100500D01*
X29848849Y-4122174D01*
X29863004Y-4142000D01*
X29880363Y-4177510D01*
X29880364Y-4177511D01*
X29962489Y-4259636D01*
X30066830Y-4310645D01*
X30134472Y-4320500D01*
X30134478Y-4320500D01*
X30495522Y-4320500D01*
X30495528Y-4320500D01*
X30563170Y-4310645D01*
X30667511Y-4259636D01*
X30747674Y-4179473D01*
X30800000Y-4157799D01*
X30852326Y-4179473D01*
X30932489Y-4259636D01*
X31036830Y-4310645D01*
X31103869Y-4320412D01*
X31152523Y-4349404D01*
X31167200Y-4393639D01*
X31167200Y-5857176D01*
X31145526Y-5909502D01*
X30877201Y-6177826D01*
X30824875Y-6199500D01*
X30590100Y-6199500D01*
X30540514Y-6206027D01*
X30540512Y-6206028D01*
X30431683Y-6256776D01*
X30346776Y-6341683D01*
X30296027Y-6450514D01*
X30289500Y-6500100D01*
X30289500Y-6859899D01*
X30296027Y-6909485D01*
X30296028Y-6909487D01*
X30346776Y-7018316D01*
X30431684Y-7103224D01*
X30540513Y-7153972D01*
X30590099Y-7160500D01*
X31009900Y-7160499D01*
X31059487Y-7153972D01*
X31168316Y-7103224D01*
X31253224Y-7018316D01*
X31303972Y-6909487D01*
X31310500Y-6859901D01*
X31310499Y-6625121D01*
X31332172Y-6572797D01*
X31708160Y-6196811D01*
X31709090Y-6195200D01*
X31747721Y-6128289D01*
X31768199Y-6051864D01*
X31768200Y-6051864D01*
X31768200Y-4243999D01*
X31789874Y-4191673D01*
X31842200Y-4169999D01*
X31894526Y-4191673D01*
X31962489Y-4259636D01*
X32066830Y-4310645D01*
X32134472Y-4320500D01*
X32134478Y-4320500D01*
X32495522Y-4320500D01*
X32495528Y-4320500D01*
X32563170Y-4310645D01*
X32667511Y-4259636D01*
X32747674Y-4179473D01*
X32800000Y-4157799D01*
X32852326Y-4179473D01*
X32932489Y-4259636D01*
X33036830Y-4310645D01*
X33055269Y-4313331D01*
X33103923Y-4342323D01*
X33118600Y-4386558D01*
X33118600Y-5905776D01*
X33096926Y-5958102D01*
X32877201Y-6177826D01*
X32824875Y-6199500D01*
X32590100Y-6199500D01*
X32540514Y-6206027D01*
X32540512Y-6206028D01*
X32431683Y-6256776D01*
X32346776Y-6341683D01*
X32296027Y-6450514D01*
X32289500Y-6500100D01*
X32289500Y-6859899D01*
X32296027Y-6909485D01*
X32296028Y-6909487D01*
X32346776Y-7018316D01*
X32431684Y-7103224D01*
X32442525Y-7108279D01*
X32456773Y-7114923D01*
X32495037Y-7156680D01*
X32499500Y-7181990D01*
X32499500Y-7303164D01*
X32519977Y-7379585D01*
X32519979Y-7379590D01*
X32531566Y-7399659D01*
X32559540Y-7448111D01*
X32615489Y-7504060D01*
X32638979Y-7517622D01*
X32688212Y-7546047D01*
X32687767Y-7546816D01*
X32705335Y-7558550D01*
X32854241Y-7707457D01*
X32870907Y-7714360D01*
X32955500Y-7749400D01*
X34957278Y-7749400D01*
X34977997Y-7753521D01*
X34978227Y-7752666D01*
X34982911Y-7753921D01*
X35059335Y-7774399D01*
X35059336Y-7774400D01*
X35059338Y-7774400D01*
X35333777Y-7774400D01*
X35386103Y-7796074D01*
X35457826Y-7867797D01*
X35479500Y-7920123D01*
X35479500Y-8165532D01*
X35489355Y-8233170D01*
X35489355Y-8233171D01*
X35540363Y-8337510D01*
X35540364Y-8337511D01*
X35622489Y-8419636D01*
X35726830Y-8470645D01*
X35794472Y-8480500D01*
X35794478Y-8480500D01*
X36205522Y-8480500D01*
X36205528Y-8480500D01*
X36273170Y-8470645D01*
X36377511Y-8419636D01*
X36459636Y-8337511D01*
X36510645Y-8233170D01*
X36520500Y-8165528D01*
X36520500Y-7804472D01*
X36510645Y-7736830D01*
X36459636Y-7632489D01*
X36377511Y-7550364D01*
X36377510Y-7550363D01*
X36273171Y-7499355D01*
X36205532Y-7489500D01*
X36205528Y-7489500D01*
X35960123Y-7489500D01*
X35907797Y-7467826D01*
X35673411Y-7233440D01*
X35648639Y-7219138D01*
X35604890Y-7193879D01*
X35604885Y-7193877D01*
X35528464Y-7173400D01*
X35528462Y-7173400D01*
X35059338Y-7173400D01*
X35059336Y-7173400D01*
X34978227Y-7195134D01*
X34977997Y-7194278D01*
X34957278Y-7198400D01*
X33251792Y-7198400D01*
X33199466Y-7176726D01*
X33177792Y-7124400D01*
X33199466Y-7072074D01*
X33220066Y-7051474D01*
X33253224Y-7018316D01*
X33303972Y-6909487D01*
X33310500Y-6859901D01*
X33310499Y-6625121D01*
X33332172Y-6572797D01*
X33659560Y-6245411D01*
X33699122Y-6176888D01*
X33719600Y-6100462D01*
X33719600Y-6021338D01*
X33719600Y-4194704D01*
X33727119Y-4162204D01*
X33736996Y-4141999D01*
X33779449Y-4104510D01*
X33803477Y-4100500D01*
X34187881Y-4100500D01*
X34240207Y-4122174D01*
X34257728Y-4150059D01*
X34297206Y-4262881D01*
X34297207Y-4262883D01*
X34377846Y-4372146D01*
X34377853Y-4372153D01*
X34487116Y-4452792D01*
X34487118Y-4452793D01*
X34615295Y-4497644D01*
X34615301Y-4497646D01*
X34645734Y-4500500D01*
X34645741Y-4500500D01*
X35304258Y-4500500D01*
X35304266Y-4500500D01*
X35334699Y-4497646D01*
X35385926Y-4479721D01*
X35411559Y-4470752D01*
X35468107Y-4473927D01*
X35505847Y-4516158D01*
X35510000Y-4540599D01*
X35510000Y-4750000D01*
X37600000Y-4750000D01*
X37600000Y-2850000D01*
X35510000Y-2850000D01*
X35510000Y-3059400D01*
X35488326Y-3111726D01*
X35436000Y-3133400D01*
X35411560Y-3129248D01*
X35334702Y-3102355D01*
X35334701Y-3102354D01*
X35334699Y-3102354D01*
X35304266Y-3099500D01*
X34645734Y-3099500D01*
X34615301Y-3102354D01*
X34615299Y-3102354D01*
X34615295Y-3102355D01*
X34487118Y-3147206D01*
X34487116Y-3147207D01*
X34377853Y-3227846D01*
X34377846Y-3227853D01*
X34297207Y-3337116D01*
X34297206Y-3337118D01*
X34257728Y-3449941D01*
X34219988Y-3492172D01*
X34187881Y-3499500D01*
X33803477Y-3499500D01*
X33751151Y-3477826D01*
X33736996Y-3458000D01*
X33729272Y-3442201D01*
X33719636Y-3422489D01*
X33637511Y-3340364D01*
X33637510Y-3340363D01*
X33533171Y-3289355D01*
X33465532Y-3279500D01*
X33465528Y-3279500D01*
X33104472Y-3279500D01*
X33104467Y-3279500D01*
X33036829Y-3289355D01*
X33036828Y-3289355D01*
X32932489Y-3340363D01*
X32852326Y-3420527D01*
X32800000Y-3442201D01*
X32747674Y-3420527D01*
X32667510Y-3340363D01*
X32563171Y-3289355D01*
X32495532Y-3279500D01*
X32495528Y-3279500D01*
X32134472Y-3279500D01*
X32134467Y-3279500D01*
X32066829Y-3289355D01*
X32066828Y-3289355D01*
X31962489Y-3340363D01*
X31880363Y-3422489D01*
X31866481Y-3450887D01*
X31824028Y-3488377D01*
X31767500Y-3484868D01*
X31733519Y-3450887D01*
X31719636Y-3422489D01*
X31637510Y-3340363D01*
X31533171Y-3289355D01*
X31465532Y-3279500D01*
X31465528Y-3279500D01*
X31104472Y-3279500D01*
X31104467Y-3279500D01*
X31036829Y-3289355D01*
X31036828Y-3289355D01*
X30932489Y-3340363D01*
X30852326Y-3420527D01*
X30800000Y-3442201D01*
X30747674Y-3420527D01*
X30667510Y-3340363D01*
X30563171Y-3289355D01*
X30495532Y-3279500D01*
X30495528Y-3279500D01*
X30134472Y-3279500D01*
X30134467Y-3279500D01*
X30066829Y-3289355D01*
X30066828Y-3289355D01*
X29962489Y-3340363D01*
X29880363Y-3422489D01*
X29863004Y-3458000D01*
X29853633Y-3466274D01*
X29848849Y-3477826D01*
X29833225Y-3484297D01*
X29820551Y-3495490D01*
X29796523Y-3499500D01*
X29781991Y-3499500D01*
X29729665Y-3477826D01*
X29714925Y-3456775D01*
X29703225Y-3431686D01*
X29703223Y-3431683D01*
X29618316Y-3346776D01*
X29561461Y-3320264D01*
X29509487Y-3296028D01*
X29509485Y-3296027D01*
X29472955Y-3291218D01*
X29459901Y-3289500D01*
X29459899Y-3289500D01*
X29100100Y-3289500D01*
X29050514Y-3296027D01*
X29050512Y-3296028D01*
X28941683Y-3346776D01*
X28852326Y-3436134D01*
X28800000Y-3457808D01*
X28747674Y-3436134D01*
X28658316Y-3346776D01*
X28601461Y-3320264D01*
X28549487Y-3296028D01*
X28549485Y-3296027D01*
X28512955Y-3291218D01*
X28499901Y-3289500D01*
X28499899Y-3289500D01*
X28265123Y-3289500D01*
X28212797Y-3267826D01*
X28019511Y-3074540D01*
X27950990Y-3034979D01*
X27950985Y-3034977D01*
X27874564Y-3014500D01*
X27874562Y-3014500D01*
X27531256Y-3014500D01*
X27478930Y-2992826D01*
X27464775Y-2973000D01*
X27459637Y-2962490D01*
X27377510Y-2880363D01*
X27273171Y-2829355D01*
X27205532Y-2819500D01*
X27205528Y-2819500D01*
X26794472Y-2819500D01*
X26794467Y-2819500D01*
X26726829Y-2829355D01*
X26726828Y-2829355D01*
X26622489Y-2880363D01*
X26540363Y-2962489D01*
X26489355Y-3066828D01*
X26489355Y-3066829D01*
X26479500Y-3134467D01*
X26479500Y-3495532D01*
X26489355Y-3563170D01*
X26489355Y-3563171D01*
X26540363Y-3667510D01*
X26620527Y-3747674D01*
X26642201Y-3800000D01*
X26620527Y-3852326D01*
X26540363Y-3932489D01*
X26489355Y-4036828D01*
X26489355Y-4036829D01*
X26479500Y-4104467D01*
X26479500Y-4349877D01*
X26457826Y-4402203D01*
X25271703Y-5588326D01*
X25219377Y-5610000D01*
X23050366Y-5610000D01*
X22998040Y-5588326D01*
X22919714Y-5510000D01*
X22805590Y-5444110D01*
X22805581Y-5444106D01*
X22678294Y-5410000D01*
X22678292Y-5410000D01*
X22546508Y-5410000D01*
X22546506Y-5410000D01*
X22419218Y-5444106D01*
X22414729Y-5445966D01*
X22413712Y-5443511D01*
X22366007Y-5449765D01*
X22321093Y-5415261D01*
X22311200Y-5378297D01*
X22311200Y-4799032D01*
X22332874Y-4746706D01*
X22355022Y-4731465D01*
X22360378Y-4729072D01*
X22403489Y-4717521D01*
X22462421Y-4683496D01*
X22465922Y-4681933D01*
X22472793Y-4681745D01*
X22496100Y-4675500D01*
X22983489Y-4675500D01*
X23071243Y-4661601D01*
X23083126Y-4659719D01*
X23203220Y-4598528D01*
X23298528Y-4503220D01*
X23359719Y-4383126D01*
X23375500Y-4283488D01*
X23375500Y-3716512D01*
X23360136Y-3619510D01*
X23359719Y-3616874D01*
X23359718Y-3616873D01*
X23359498Y-3616442D01*
X23298528Y-3496780D01*
X23203220Y-3401472D01*
X23203219Y-3401471D01*
X23083126Y-3340281D01*
X23083125Y-3340280D01*
X22983489Y-3324500D01*
X22983488Y-3324500D01*
X22466512Y-3324500D01*
X22466511Y-3324500D01*
X22366874Y-3340280D01*
X22366873Y-3340281D01*
X22246780Y-3401471D01*
X22151471Y-3496780D01*
X22090281Y-3616873D01*
X22090280Y-3616874D01*
X22074500Y-3716511D01*
X22074500Y-4063000D01*
X22052826Y-4115326D01*
X22000500Y-4137000D01*
X21354773Y-4137000D01*
X21302447Y-4115326D01*
X21288380Y-4092370D01*
X21287596Y-4092770D01*
X21224657Y-3969248D01*
X21130749Y-3875340D01*
X21012420Y-3815049D01*
X21012420Y-3815048D01*
X20914247Y-3799500D01*
X20914246Y-3799500D01*
X20085754Y-3799500D01*
X20085753Y-3799500D01*
X19987579Y-3815048D01*
X19987579Y-3815049D01*
X19869250Y-3875340D01*
X19775342Y-3969248D01*
X19712404Y-4092770D01*
X19710526Y-4091813D01*
X19678825Y-4128933D01*
X19645227Y-4137000D01*
X18077062Y-4137000D01*
X17997938Y-4137000D01*
X17921512Y-4157478D01*
X17921511Y-4157478D01*
X17921509Y-4157479D01*
X17921507Y-4157480D01*
X17852992Y-4197037D01*
X17777326Y-4272703D01*
X17725000Y-4294377D01*
X17672674Y-4272703D01*
X15947911Y-2547940D01*
X15879390Y-2508379D01*
X15879385Y-2508377D01*
X15802964Y-2487900D01*
X15802962Y-2487900D01*
X10913838Y-2487900D01*
X10913836Y-2487900D01*
X10837414Y-2508377D01*
X10837409Y-2508379D01*
X10768888Y-2547940D01*
X10256110Y-3060719D01*
X10254068Y-3058677D01*
X10212870Y-3082389D01*
X10158182Y-3067656D01*
X10143770Y-3052952D01*
X10123930Y-3026070D01*
X10123929Y-3026069D01*
X10078887Y-2992826D01*
X10016179Y-2946545D01*
X10016177Y-2946544D01*
X9889780Y-2902315D01*
X9889775Y-2902314D01*
X9885486Y-2901912D01*
X9859764Y-2899500D01*
X9265236Y-2899500D01*
X9243800Y-2901510D01*
X9235224Y-2902314D01*
X9235219Y-2902315D01*
X9108822Y-2946544D01*
X9001070Y-3026069D01*
X9001069Y-3026070D01*
X8921544Y-3133822D01*
X8877315Y-3260219D01*
X8877314Y-3260224D01*
X8874500Y-3290241D01*
X8874500Y-4032377D01*
X8852826Y-4084703D01*
X5759540Y-7177988D01*
X5719979Y-7246509D01*
X5719977Y-7246514D01*
X5699500Y-7322935D01*
X5699500Y-8375500D01*
X5677826Y-8427826D01*
X5625500Y-8449500D01*
X5130252Y-8449500D01*
X5101010Y-8455316D01*
X5071767Y-8461133D01*
X5005449Y-8505447D01*
X5005447Y-8505449D01*
X4961133Y-8571767D01*
X4949500Y-8630253D01*
X4949500Y-10369746D01*
X4961133Y-10428232D01*
X4990608Y-10472343D01*
X5005448Y-10494552D01*
X5027397Y-10509218D01*
X5071767Y-10538866D01*
X5071768Y-10538866D01*
X5071769Y-10538867D01*
X5130252Y-10550500D01*
X5130254Y-10550500D01*
X6869746Y-10550500D01*
X6869748Y-10550500D01*
X6928231Y-10538867D01*
X6994552Y-10494552D01*
X7038867Y-10428231D01*
X7050500Y-10369748D01*
X7050500Y-9413426D01*
X7440000Y-9413426D01*
X7440000Y-9586573D01*
X7467085Y-9757581D01*
X7467088Y-9757594D01*
X7520588Y-9922249D01*
X7599197Y-10076526D01*
X7599197Y-10076527D01*
X7663220Y-10164646D01*
X8096328Y-9731537D01*
X8139901Y-9807007D01*
X8232993Y-9900099D01*
X8308461Y-9943670D01*
X7875352Y-10376779D01*
X7963472Y-10440802D01*
X8117750Y-10519411D01*
X8117749Y-10519411D01*
X8282405Y-10572911D01*
X8282418Y-10572914D01*
X8453426Y-10600000D01*
X8626574Y-10600000D01*
X8797581Y-10572914D01*
X8797594Y-10572911D01*
X8962249Y-10519411D01*
X9116526Y-10440802D01*
X9116527Y-10440802D01*
X9204646Y-10376779D01*
X8771538Y-9943670D01*
X8847007Y-9900099D01*
X8940099Y-9807007D01*
X8983671Y-9731538D01*
X9416779Y-10164646D01*
X9480802Y-10076527D01*
X9480802Y-10076526D01*
X9559411Y-9922249D01*
X9612911Y-9757594D01*
X9612914Y-9757581D01*
X9640000Y-9586573D01*
X9640000Y-9413426D01*
X9612914Y-9242418D01*
X9612911Y-9242405D01*
X9559411Y-9077750D01*
X9480802Y-8923473D01*
X9480802Y-8923472D01*
X9416779Y-8835352D01*
X8983670Y-9268460D01*
X8940099Y-9192993D01*
X8847007Y-9099901D01*
X8771537Y-9056328D01*
X9204646Y-8623220D01*
X9116527Y-8559197D01*
X8962249Y-8480588D01*
X8962250Y-8480588D01*
X8797594Y-8427088D01*
X8797581Y-8427085D01*
X8626574Y-8400000D01*
X8453426Y-8400000D01*
X8282418Y-8427085D01*
X8282405Y-8427088D01*
X8117752Y-8480587D01*
X7963479Y-8559193D01*
X7875352Y-8623220D01*
X8308461Y-9056329D01*
X8232993Y-9099901D01*
X8139901Y-9192993D01*
X8096329Y-9268461D01*
X7663220Y-8835352D01*
X7599193Y-8923479D01*
X7520587Y-9077752D01*
X7467088Y-9242405D01*
X7467085Y-9242418D01*
X7440000Y-9413426D01*
X7050500Y-9413426D01*
X7050500Y-8630252D01*
X7038867Y-8571769D01*
X6994552Y-8505448D01*
X6957347Y-8480588D01*
X6928232Y-8461133D01*
X6928233Y-8461133D01*
X6898989Y-8455316D01*
X6869748Y-8449500D01*
X6869746Y-8449500D01*
X6374500Y-8449500D01*
X6322174Y-8427826D01*
X6300500Y-8375500D01*
X6300500Y-7517622D01*
X6322173Y-7465297D01*
X9094607Y-4692862D01*
X9146932Y-4671189D01*
X9171369Y-4675341D01*
X9235226Y-4697686D01*
X9265236Y-4700500D01*
X9265243Y-4700500D01*
X9859757Y-4700500D01*
X9859764Y-4700500D01*
X9889774Y-4697686D01*
X9950271Y-4676517D01*
X10006819Y-4679692D01*
X10044559Y-4721923D01*
X10041384Y-4778471D01*
X10027038Y-4798690D01*
X8736189Y-6089540D01*
X8680240Y-6145488D01*
X8640679Y-6214009D01*
X8640677Y-6214014D01*
X8620200Y-6290435D01*
X8620200Y-7298264D01*
X8640677Y-7374685D01*
X8640679Y-7374690D01*
X8645548Y-7383123D01*
X8655095Y-7399658D01*
X8680240Y-7443211D01*
X12401540Y-11164511D01*
X12457489Y-11220460D01*
X12526011Y-11260021D01*
X12526012Y-11260021D01*
X12526014Y-11260022D01*
X12564224Y-11270260D01*
X12602435Y-11280499D01*
X12602436Y-11280500D01*
X12602438Y-11280500D01*
X14145500Y-11280500D01*
X14197826Y-11302174D01*
X14219500Y-11354500D01*
X14219500Y-12981998D01*
X14197826Y-13034324D01*
X14186449Y-13042295D01*
X14186987Y-13043063D01*
X14181683Y-13046776D01*
X14096776Y-13131683D01*
X14046027Y-13240514D01*
X14039500Y-13290100D01*
X14039500Y-13709899D01*
X14046027Y-13759485D01*
X14046028Y-13759487D01*
X14096776Y-13868316D01*
X14106934Y-13878474D01*
X14128608Y-13930800D01*
X14106934Y-13983126D01*
X14054608Y-14004800D01*
X10706836Y-14004800D01*
X10630414Y-14025277D01*
X10630408Y-14025280D01*
X10561500Y-14065064D01*
X10505347Y-14072456D01*
X10460414Y-14037978D01*
X10450500Y-14000978D01*
X10450500Y-13580253D01*
X10450500Y-13580252D01*
X10438867Y-13521769D01*
X10432865Y-13512787D01*
X10407698Y-13475122D01*
X10394552Y-13455448D01*
X10366948Y-13437003D01*
X10328232Y-13411133D01*
X10328233Y-13411133D01*
X10298989Y-13405316D01*
X10269748Y-13399500D01*
X9230252Y-13399500D01*
X9201010Y-13405316D01*
X9171767Y-13411133D01*
X9105449Y-13455447D01*
X9105447Y-13455449D01*
X9061133Y-13521767D01*
X9049500Y-13580253D01*
X9049500Y-13864877D01*
X9027826Y-13917203D01*
X8975500Y-13938877D01*
X8923174Y-13917203D01*
X7651611Y-12645640D01*
X7641471Y-12639786D01*
X7636798Y-12637088D01*
X7628812Y-12632477D01*
X7583090Y-12606079D01*
X7583085Y-12606077D01*
X7506664Y-12585600D01*
X7506662Y-12585600D01*
X5673462Y-12585600D01*
X5594338Y-12585600D01*
X5517912Y-12606078D01*
X5517911Y-12606078D01*
X5517909Y-12606079D01*
X5517907Y-12606080D01*
X5449389Y-12645638D01*
X5127201Y-12967826D01*
X5074875Y-12989500D01*
X4840100Y-12989500D01*
X4790514Y-12996027D01*
X4790512Y-12996028D01*
X4681683Y-13046776D01*
X4596776Y-13131683D01*
X4546027Y-13240514D01*
X4539500Y-13290100D01*
X500500Y-13290100D01*
X500500Y-4972090D01*
X522174Y-4919764D01*
X574500Y-4898090D01*
X626826Y-4919764D01*
X641170Y-4939980D01*
X694434Y-5050582D01*
X885685Y-5354956D01*
X1109812Y-5636003D01*
X1363997Y-5890188D01*
X1645044Y-6114315D01*
X1949418Y-6305566D01*
X2273292Y-6461536D01*
X2612592Y-6580262D01*
X2612597Y-6580263D01*
X2612600Y-6580264D01*
X2963047Y-6660251D01*
X2963048Y-6660251D01*
X2963052Y-6660252D01*
X3320264Y-6700500D01*
X3320268Y-6700500D01*
X3679732Y-6700500D01*
X3679736Y-6700500D01*
X4036948Y-6660252D01*
X4387408Y-6580262D01*
X4726708Y-6461536D01*
X5050582Y-6305566D01*
X5354956Y-6114315D01*
X5636003Y-5890188D01*
X5890188Y-5636003D01*
X6114315Y-5354956D01*
X6305566Y-5050582D01*
X6461536Y-4726708D01*
X6580262Y-4387408D01*
X6660252Y-4036948D01*
X6700500Y-3679736D01*
X6700500Y-3320264D01*
X6660252Y-2963052D01*
X6660124Y-2962490D01*
X6580264Y-2612600D01*
X6580259Y-2612584D01*
X6461537Y-2273295D01*
X6379002Y-2101909D01*
X6305566Y-1949418D01*
X6114315Y-1645044D01*
X5890188Y-1363997D01*
X5636003Y-1109812D01*
X5354956Y-885685D01*
X5050582Y-694434D01*
X4939981Y-641171D01*
X4902243Y-598940D01*
X4905418Y-542392D01*
X4947650Y-504653D01*
X4972090Y-500500D01*
X40027910Y-500500D01*
X40039656Y-505365D01*
G37*
%TD.AperFunction*%
%TD*%
M02*
