%TF.GenerationSoftware,KiCad,Pcbnew,10.0.1*%
%TF.CreationDate,2026-09-04T22:04:05-05:00*%
%TF.ProjectId,CHIPDOWNARM,43484950-444f-4574-9e41-524d2e6b6963,rev?*%
%TF.SameCoordinates,Original*%
%TF.FileFunction,Legend,Top*%
%TF.FilePolarity,Positive*%
%FSLAX46Y46*%
G04 Gerber Fmt 4.6, Leading zero omitted, Abs format (unit mm)*
G04 Created by KiCad (PCBNEW 10.0.1) date 2026-09-04 22:04:05*
%MOMM*%
%LPD*%
G01*
G04 APERTURE LIST*
%ADD10C,0.150000*%
%ADD11C,0.120000*%
%ADD12C,0.100000*%
G04 APERTURE END LIST*
D10*
X36166666Y-16154819D02*
X36166666Y-16869104D01*
X36166666Y-16869104D02*
X36119047Y-17011961D01*
X36119047Y-17011961D02*
X36023809Y-17107200D01*
X36023809Y-17107200D02*
X35880952Y-17154819D01*
X35880952Y-17154819D02*
X35785714Y-17154819D01*
X36547619Y-16154819D02*
X37166666Y-16154819D01*
X37166666Y-16154819D02*
X36833333Y-16535771D01*
X36833333Y-16535771D02*
X36976190Y-16535771D01*
X36976190Y-16535771D02*
X37071428Y-16583390D01*
X37071428Y-16583390D02*
X37119047Y-16631009D01*
X37119047Y-16631009D02*
X37166666Y-16726247D01*
X37166666Y-16726247D02*
X37166666Y-16964342D01*
X37166666Y-16964342D02*
X37119047Y-17059580D01*
X37119047Y-17059580D02*
X37071428Y-17107200D01*
X37071428Y-17107200D02*
X36976190Y-17154819D01*
X36976190Y-17154819D02*
X36690476Y-17154819D01*
X36690476Y-17154819D02*
X36595238Y-17107200D01*
X36595238Y-17107200D02*
X36547619Y-17059580D01*
X81666667Y-50454819D02*
X81666667Y-49454819D01*
X81666667Y-49454819D02*
X82000000Y-50169104D01*
X82000000Y-50169104D02*
X82333333Y-49454819D01*
X82333333Y-49454819D02*
X82333333Y-50454819D01*
X82809524Y-50454819D02*
X82809524Y-49454819D01*
X82809524Y-49931009D02*
X83380952Y-49931009D01*
X83380952Y-50454819D02*
X83380952Y-49454819D01*
X84285714Y-49788152D02*
X84285714Y-50454819D01*
X84047619Y-49407200D02*
X83809524Y-50121485D01*
X83809524Y-50121485D02*
X84428571Y-50121485D01*
X16238095Y-3004819D02*
X16238095Y-3814342D01*
X16238095Y-3814342D02*
X16285714Y-3909580D01*
X16285714Y-3909580D02*
X16333333Y-3957200D01*
X16333333Y-3957200D02*
X16428571Y-4004819D01*
X16428571Y-4004819D02*
X16619047Y-4004819D01*
X16619047Y-4004819D02*
X16714285Y-3957200D01*
X16714285Y-3957200D02*
X16761904Y-3909580D01*
X16761904Y-3909580D02*
X16809523Y-3814342D01*
X16809523Y-3814342D02*
X16809523Y-3004819D01*
X17238095Y-3100057D02*
X17285714Y-3052438D01*
X17285714Y-3052438D02*
X17380952Y-3004819D01*
X17380952Y-3004819D02*
X17619047Y-3004819D01*
X17619047Y-3004819D02*
X17714285Y-3052438D01*
X17714285Y-3052438D02*
X17761904Y-3100057D01*
X17761904Y-3100057D02*
X17809523Y-3195295D01*
X17809523Y-3195295D02*
X17809523Y-3290533D01*
X17809523Y-3290533D02*
X17761904Y-3433390D01*
X17761904Y-3433390D02*
X17190476Y-4004819D01*
X17190476Y-4004819D02*
X17809523Y-4004819D01*
X8023809Y-12478628D02*
X8023809Y-12954819D01*
X7690476Y-11954819D02*
X8023809Y-12478628D01*
X8023809Y-12478628D02*
X8357142Y-11954819D01*
X8642857Y-12050057D02*
X8690476Y-12002438D01*
X8690476Y-12002438D02*
X8785714Y-11954819D01*
X8785714Y-11954819D02*
X9023809Y-11954819D01*
X9023809Y-11954819D02*
X9119047Y-12002438D01*
X9119047Y-12002438D02*
X9166666Y-12050057D01*
X9166666Y-12050057D02*
X9214285Y-12145295D01*
X9214285Y-12145295D02*
X9214285Y-12240533D01*
X9214285Y-12240533D02*
X9166666Y-12383390D01*
X9166666Y-12383390D02*
X8595238Y-12954819D01*
X8595238Y-12954819D02*
X9214285Y-12954819D01*
X10166666Y-2081009D02*
X9833333Y-2081009D01*
X9833333Y-2604819D02*
X9833333Y-1604819D01*
X9833333Y-1604819D02*
X10309523Y-1604819D01*
X11214285Y-2604819D02*
X10642857Y-2604819D01*
X10928571Y-2604819D02*
X10928571Y-1604819D01*
X10928571Y-1604819D02*
X10833333Y-1747676D01*
X10833333Y-1747676D02*
X10738095Y-1842914D01*
X10738095Y-1842914D02*
X10642857Y-1890533D01*
X5666667Y-50454819D02*
X5666667Y-49454819D01*
X5666667Y-49454819D02*
X6000000Y-50169104D01*
X6000000Y-50169104D02*
X6333333Y-49454819D01*
X6333333Y-49454819D02*
X6333333Y-50454819D01*
X6809524Y-50454819D02*
X6809524Y-49454819D01*
X6809524Y-49931009D02*
X7380952Y-49931009D01*
X7380952Y-50454819D02*
X7380952Y-49454819D01*
X7761905Y-49454819D02*
X8380952Y-49454819D01*
X8380952Y-49454819D02*
X8047619Y-49835771D01*
X8047619Y-49835771D02*
X8190476Y-49835771D01*
X8190476Y-49835771D02*
X8285714Y-49883390D01*
X8285714Y-49883390D02*
X8333333Y-49931009D01*
X8333333Y-49931009D02*
X8380952Y-50026247D01*
X8380952Y-50026247D02*
X8380952Y-50264342D01*
X8380952Y-50264342D02*
X8333333Y-50359580D01*
X8333333Y-50359580D02*
X8285714Y-50407200D01*
X8285714Y-50407200D02*
X8190476Y-50454819D01*
X8190476Y-50454819D02*
X7904762Y-50454819D01*
X7904762Y-50454819D02*
X7809524Y-50407200D01*
X7809524Y-50407200D02*
X7761905Y-50359580D01*
X19761009Y-11333333D02*
X19761009Y-11666666D01*
X20284819Y-11666666D02*
X19284819Y-11666666D01*
X19284819Y-11666666D02*
X19284819Y-11190476D01*
X19761009Y-10476190D02*
X19808628Y-10333333D01*
X19808628Y-10333333D02*
X19856247Y-10285714D01*
X19856247Y-10285714D02*
X19951485Y-10238095D01*
X19951485Y-10238095D02*
X20094342Y-10238095D01*
X20094342Y-10238095D02*
X20189580Y-10285714D01*
X20189580Y-10285714D02*
X20237200Y-10333333D01*
X20237200Y-10333333D02*
X20284819Y-10428571D01*
X20284819Y-10428571D02*
X20284819Y-10809523D01*
X20284819Y-10809523D02*
X19284819Y-10809523D01*
X19284819Y-10809523D02*
X19284819Y-10476190D01*
X19284819Y-10476190D02*
X19332438Y-10380952D01*
X19332438Y-10380952D02*
X19380057Y-10333333D01*
X19380057Y-10333333D02*
X19475295Y-10285714D01*
X19475295Y-10285714D02*
X19570533Y-10285714D01*
X19570533Y-10285714D02*
X19665771Y-10333333D01*
X19665771Y-10333333D02*
X19713390Y-10380952D01*
X19713390Y-10380952D02*
X19761009Y-10476190D01*
X19761009Y-10476190D02*
X19761009Y-10809523D01*
X20284819Y-9285714D02*
X20284819Y-9857142D01*
X20284819Y-9571428D02*
X19284819Y-9571428D01*
X19284819Y-9571428D02*
X19427676Y-9666666D01*
X19427676Y-9666666D02*
X19522914Y-9761904D01*
X19522914Y-9761904D02*
X19570533Y-9857142D01*
X36166666Y-54819D02*
X36166666Y-769104D01*
X36166666Y-769104D02*
X36119047Y-911961D01*
X36119047Y-911961D02*
X36023809Y-1007200D01*
X36023809Y-1007200D02*
X35880952Y-1054819D01*
X35880952Y-1054819D02*
X35785714Y-1054819D01*
X36595238Y-150057D02*
X36642857Y-102438D01*
X36642857Y-102438D02*
X36738095Y-54819D01*
X36738095Y-54819D02*
X36976190Y-54819D01*
X36976190Y-54819D02*
X37071428Y-102438D01*
X37071428Y-102438D02*
X37119047Y-150057D01*
X37119047Y-150057D02*
X37166666Y-245295D01*
X37166666Y-245295D02*
X37166666Y-340533D01*
X37166666Y-340533D02*
X37119047Y-483390D01*
X37119047Y-483390D02*
X36547619Y-1054819D01*
X36547619Y-1054819D02*
X37166666Y-1054819D01*
X35023809Y-17478628D02*
X35023809Y-17954819D01*
X34690476Y-16954819D02*
X35023809Y-17478628D01*
X35023809Y-17478628D02*
X35357142Y-16954819D01*
X36214285Y-17954819D02*
X35642857Y-17954819D01*
X35928571Y-17954819D02*
X35928571Y-16954819D01*
X35928571Y-16954819D02*
X35833333Y-17097676D01*
X35833333Y-17097676D02*
X35738095Y-17192914D01*
X35738095Y-17192914D02*
X35642857Y-17240533D01*
X5666667Y-4454819D02*
X5666667Y-3454819D01*
X5666667Y-3454819D02*
X6000000Y-4169104D01*
X6000000Y-4169104D02*
X6333333Y-3454819D01*
X6333333Y-3454819D02*
X6333333Y-4454819D01*
X6809524Y-4454819D02*
X6809524Y-3454819D01*
X6809524Y-3931009D02*
X7380952Y-3931009D01*
X7380952Y-4454819D02*
X7380952Y-3454819D01*
X8380952Y-4454819D02*
X7809524Y-4454819D01*
X8095238Y-4454819D02*
X8095238Y-3454819D01*
X8095238Y-3454819D02*
X8000000Y-3597676D01*
X8000000Y-3597676D02*
X7904762Y-3692914D01*
X7904762Y-3692914D02*
X7809524Y-3740533D01*
X81666667Y-4454819D02*
X81666667Y-3454819D01*
X81666667Y-3454819D02*
X82000000Y-4169104D01*
X82000000Y-4169104D02*
X82333333Y-3454819D01*
X82333333Y-3454819D02*
X82333333Y-4454819D01*
X82809524Y-4454819D02*
X82809524Y-3454819D01*
X82809524Y-3931009D02*
X83380952Y-3931009D01*
X83380952Y-4454819D02*
X83380952Y-3454819D01*
X83809524Y-3550057D02*
X83857143Y-3502438D01*
X83857143Y-3502438D02*
X83952381Y-3454819D01*
X83952381Y-3454819D02*
X84190476Y-3454819D01*
X84190476Y-3454819D02*
X84285714Y-3502438D01*
X84285714Y-3502438D02*
X84333333Y-3550057D01*
X84333333Y-3550057D02*
X84380952Y-3645295D01*
X84380952Y-3645295D02*
X84380952Y-3740533D01*
X84380952Y-3740533D02*
X84333333Y-3883390D01*
X84333333Y-3883390D02*
X83761905Y-4454819D01*
X83761905Y-4454819D02*
X84380952Y-4454819D01*
X32238095Y-22004819D02*
X32238095Y-22814342D01*
X32238095Y-22814342D02*
X32285714Y-22909580D01*
X32285714Y-22909580D02*
X32333333Y-22957200D01*
X32333333Y-22957200D02*
X32428571Y-23004819D01*
X32428571Y-23004819D02*
X32619047Y-23004819D01*
X32619047Y-23004819D02*
X32714285Y-22957200D01*
X32714285Y-22957200D02*
X32761904Y-22909580D01*
X32761904Y-22909580D02*
X32809523Y-22814342D01*
X32809523Y-22814342D02*
X32809523Y-22004819D01*
X33190476Y-22004819D02*
X33809523Y-22004819D01*
X33809523Y-22004819D02*
X33476190Y-22385771D01*
X33476190Y-22385771D02*
X33619047Y-22385771D01*
X33619047Y-22385771D02*
X33714285Y-22433390D01*
X33714285Y-22433390D02*
X33761904Y-22481009D01*
X33761904Y-22481009D02*
X33809523Y-22576247D01*
X33809523Y-22576247D02*
X33809523Y-22814342D01*
X33809523Y-22814342D02*
X33761904Y-22909580D01*
X33761904Y-22909580D02*
X33714285Y-22957200D01*
X33714285Y-22957200D02*
X33619047Y-23004819D01*
X33619047Y-23004819D02*
X33333333Y-23004819D01*
X33333333Y-23004819D02*
X33238095Y-22957200D01*
X33238095Y-22957200D02*
X33190476Y-22909580D01*
X3074819Y-9833333D02*
X3789104Y-9833333D01*
X3789104Y-9833333D02*
X3931961Y-9880952D01*
X3931961Y-9880952D02*
X4027200Y-9976190D01*
X4027200Y-9976190D02*
X4074819Y-10119047D01*
X4074819Y-10119047D02*
X4074819Y-10214285D01*
X4074819Y-8833333D02*
X4074819Y-9404761D01*
X4074819Y-9119047D02*
X3074819Y-9119047D01*
X3074819Y-9119047D02*
X3217676Y-9214285D01*
X3217676Y-9214285D02*
X3312914Y-9309523D01*
X3312914Y-9309523D02*
X3360533Y-9404761D01*
X21738095Y-11624819D02*
X21738095Y-12434342D01*
X21738095Y-12434342D02*
X21785714Y-12529580D01*
X21785714Y-12529580D02*
X21833333Y-12577200D01*
X21833333Y-12577200D02*
X21928571Y-12624819D01*
X21928571Y-12624819D02*
X22119047Y-12624819D01*
X22119047Y-12624819D02*
X22214285Y-12577200D01*
X22214285Y-12577200D02*
X22261904Y-12529580D01*
X22261904Y-12529580D02*
X22309523Y-12434342D01*
X22309523Y-12434342D02*
X22309523Y-11624819D01*
X23309523Y-12624819D02*
X22738095Y-12624819D01*
X23023809Y-12624819D02*
X23023809Y-11624819D01*
X23023809Y-11624819D02*
X22928571Y-11767676D01*
X22928571Y-11767676D02*
X22833333Y-11862914D01*
X22833333Y-11862914D02*
X22738095Y-11910533D01*
%TO.C,D1*%
D11*
X9015000Y-6065000D02*
X9015000Y-7535000D01*
X9015000Y-7535000D02*
X11300000Y-7535000D01*
X11300000Y-6065000D02*
X9015000Y-6065000D01*
%TO.C,C24*%
X34140000Y-9107836D02*
X34140000Y-8892164D01*
X34860000Y-9107836D02*
X34860000Y-8892164D01*
%TO.C,C19*%
X5392164Y-15140000D02*
X5607836Y-15140000D01*
X5392164Y-15860000D02*
X5607836Y-15860000D01*
%TO.C,U2*%
X16564432Y-4365000D02*
X17860000Y-4365000D01*
X17860000Y-6635000D02*
X16140000Y-6635000D01*
X16270000Y-4360000D02*
X16130000Y-4170000D01*
X16410000Y-4170000D01*
X16270000Y-4360000D01*
G36*
X16270000Y-4360000D02*
G01*
X16130000Y-4170000D01*
X16410000Y-4170000D01*
X16270000Y-4360000D01*
G37*
%TO.C,C8*%
X24440000Y-24107836D02*
X24440000Y-23892164D01*
X25160000Y-24107836D02*
X25160000Y-23892164D01*
%TO.C,C9*%
X12359420Y-16990000D02*
X12640580Y-16990000D01*
X12359420Y-18010000D02*
X12640580Y-18010000D01*
%TO.C,R_STOP*%
X15346359Y-8120000D02*
X15653641Y-8120000D01*
X15346359Y-8880000D02*
X15653641Y-8880000D01*
%TO.C,C26*%
X35392164Y-24140000D02*
X35607836Y-24140000D01*
X35392164Y-24860000D02*
X35607836Y-24860000D01*
%TO.C,R_BOOT0*%
X26120000Y-24153641D02*
X26120000Y-23846359D01*
X26880000Y-24153641D02*
X26880000Y-23846359D01*
%TO.C,Y2*%
X7825000Y-13625000D02*
X9175000Y-13625000D01*
X7825000Y-15375000D02*
X9175000Y-15375000D01*
%TO.C,R_VDDPA*%
X14846359Y-17120000D02*
X15153641Y-17120000D01*
X14846359Y-17880000D02*
X15153641Y-17880000D01*
%TO.C,C13*%
X19640000Y-24107836D02*
X19640000Y-23892164D01*
X20360000Y-24107836D02*
X20360000Y-23892164D01*
%TO.C,D3*%
D12*
X36050000Y-8590000D02*
G75*
G02*
X35950000Y-8590000I-50000J0D01*
G01*
X35950000Y-8590000D02*
G75*
G02*
X36050000Y-8590000I50000J0D01*
G01*
%TO.C,R_PULL_SDA*%
D11*
X29846359Y-26120000D02*
X30153641Y-26120000D01*
X29846359Y-26880000D02*
X30153641Y-26880000D01*
%TO.C,F1*%
X10241422Y-3090000D02*
X10758578Y-3090000D01*
X10241422Y-4510000D02*
X10758578Y-4510000D01*
%TO.C,C3*%
X23359420Y-3490000D02*
X23640580Y-3490000D01*
X23359420Y-4510000D02*
X23640580Y-4510000D01*
%TO.C,L1*%
X19940000Y-5899622D02*
X19940000Y-5100378D01*
X21060000Y-5899622D02*
X21060000Y-5100378D01*
%TO.C,C2*%
X13859420Y-6290000D02*
X14140580Y-6290000D01*
X13859420Y-7310000D02*
X14140580Y-7310000D01*
%TO.C,C4*%
X23359420Y-6490000D02*
X23640580Y-6490000D01*
X23359420Y-7510000D02*
X23640580Y-7510000D01*
%TO.C,C20*%
X22140000Y-10607836D02*
X22140000Y-10392164D01*
X22860000Y-10607836D02*
X22860000Y-10392164D01*
%TO.C,C25*%
X38392164Y-19140000D02*
X38607836Y-19140000D01*
X38392164Y-19860000D02*
X38607836Y-19860000D01*
%TO.C,C18*%
X5392164Y-13140000D02*
X5607836Y-13140000D01*
X5392164Y-13860000D02*
X5607836Y-13860000D01*
%TO.C,J2*%
X35140000Y-2400000D02*
X35140000Y-3040000D01*
X35140000Y-3040000D02*
X34510000Y-3040000D01*
X35140000Y-5200000D02*
X35140000Y-4560000D01*
X37860000Y-2450000D02*
X37860000Y-5150000D01*
%TO.C,Y1*%
X34040000Y-18240000D02*
X34040000Y-20760000D01*
X34040000Y-20760000D02*
X36960000Y-20760000D01*
%TO.C,C11*%
X12392164Y-19140000D02*
X12607836Y-19140000D01*
X12392164Y-19860000D02*
X12607836Y-19860000D01*
%TO.C,C_M2*%
X32440000Y-6307836D02*
X32440000Y-6092164D01*
X33160000Y-6307836D02*
X33160000Y-6092164D01*
%TO.C,C17*%
X19140000Y-10607836D02*
X19140000Y-10392164D01*
X19860000Y-10607836D02*
X19860000Y-10392164D01*
%TO.C,C5*%
X14892164Y-13140000D02*
X15107836Y-13140000D01*
X14892164Y-13860000D02*
X15107836Y-13860000D01*
%TO.C,R_SET*%
X17346359Y-8120000D02*
X17653641Y-8120000D01*
X17346359Y-8880000D02*
X17653641Y-8880000D01*
%TO.C,D2*%
X16015000Y-25765000D02*
X16015000Y-27235000D01*
X16015000Y-27235000D02*
X18300000Y-27235000D01*
X18300000Y-25765000D02*
X16015000Y-25765000D01*
%TO.C,C16*%
X30640000Y-10607836D02*
X30640000Y-10392164D01*
X31360000Y-10607836D02*
X31360000Y-10392164D01*
%TO.C,R_VDDRF*%
X18120000Y-24153641D02*
X18120000Y-23846359D01*
X18880000Y-24153641D02*
X18880000Y-23846359D01*
%TO.C,C14*%
X21140000Y-24107836D02*
X21140000Y-23892164D01*
X21860000Y-24107836D02*
X21860000Y-23892164D01*
%TO.C,R_PULL_SCL*%
X29846359Y-24120000D02*
X30153641Y-24120000D01*
X29846359Y-24880000D02*
X30153641Y-24880000D01*
%TO.C,C_M1*%
X30440000Y-6307836D02*
X30440000Y-6092164D01*
X31160000Y-6307836D02*
X31160000Y-6092164D01*
%TO.C,C22*%
X17640000Y-10607836D02*
X17640000Y-10392164D01*
X18360000Y-10607836D02*
X18360000Y-10392164D01*
%TO.C,R_LED*%
X20046359Y-26120000D02*
X20353641Y-26120000D01*
X20046359Y-26880000D02*
X20353641Y-26880000D01*
%TO.C,C1*%
X13859420Y-3290000D02*
X14140580Y-3290000D01*
X13859420Y-4310000D02*
X14140580Y-4310000D01*
%TO.C,C15*%
X28990000Y-10640580D02*
X28990000Y-10359420D01*
X30010000Y-10640580D02*
X30010000Y-10359420D01*
%TO.C,L_SMPS*%
X26100378Y-9940000D02*
X26899622Y-9940000D01*
X26100378Y-11060000D02*
X26899622Y-11060000D01*
%TO.C,U3*%
X32000000Y-23390000D02*
X34000000Y-23390000D01*
X32000000Y-25610000D02*
X34000000Y-25610000D01*
X31650000Y-23680000D02*
X31370000Y-23680000D01*
X31650000Y-23400000D01*
X31650000Y-23680000D01*
G36*
X31650000Y-23680000D02*
G01*
X31370000Y-23680000D01*
X31650000Y-23400000D01*
X31650000Y-23680000D01*
G37*
%TO.C,C12*%
X31892164Y-20140000D02*
X32107836Y-20140000D01*
X31892164Y-20860000D02*
X32107836Y-20860000D01*
%TO.C,C21*%
X23640000Y-10607836D02*
X23640000Y-10392164D01*
X24360000Y-10607836D02*
X24360000Y-10392164D01*
%TO.C,R_TCXO*%
X31846359Y-18120000D02*
X32153641Y-18120000D01*
X31846359Y-18880000D02*
X32153641Y-18880000D01*
%TO.C,C10*%
X14892164Y-19140000D02*
X15107836Y-19140000D01*
X14892164Y-19860000D02*
X15107836Y-19860000D01*
%TO.C,C23*%
X32490000Y-9140580D02*
X32490000Y-8859420D01*
X33510000Y-9140580D02*
X33510000Y-8859420D01*
%TO.C,C7*%
X22840000Y-24107836D02*
X22840000Y-23892164D01*
X23560000Y-24107836D02*
X23560000Y-23892164D01*
%TO.C,C6*%
X14892164Y-15140000D02*
X15107836Y-15140000D01*
X14892164Y-15860000D02*
X15107836Y-15860000D01*
%TO.C,C_DC*%
X28692164Y-3440000D02*
X28907836Y-3440000D01*
X28692164Y-4160000D02*
X28907836Y-4160000D01*
%TO.C,J1*%
X4620000Y-10880000D02*
X4620000Y-9500000D01*
X6000000Y-10880000D02*
X4620000Y-10880000D01*
X7270000Y-8120000D02*
X9920000Y-8120000D01*
X7270000Y-10880000D02*
X7270000Y-8120000D01*
X7270000Y-10880000D02*
X9920000Y-10880000D01*
X9920000Y-10880000D02*
X9920000Y-8120000D01*
%TO.C,U1*%
X18890000Y-13390000D02*
X19365000Y-13390000D01*
X18890000Y-13865000D02*
X18890000Y-13390000D01*
X18890000Y-20610000D02*
X18890000Y-20135000D01*
X19365000Y-20610000D02*
X18890000Y-20610000D01*
X25635000Y-13390000D02*
X26110000Y-13390000D01*
X26110000Y-13390000D02*
X26110000Y-13865000D01*
X26110000Y-20135000D02*
X26110000Y-20610000D01*
X26110000Y-20610000D02*
X25635000Y-20610000D01*
X18360000Y-14250000D02*
X18030000Y-14490000D01*
X18030000Y-14010000D01*
X18360000Y-14250000D01*
G36*
X18360000Y-14250000D02*
G01*
X18030000Y-14490000D01*
X18030000Y-14010000D01*
X18360000Y-14250000D01*
G37*
%TD*%
M02*
